{"glyphs":{"0":{"ha":911,"x_min":99,"x_max":813,"o":"m 457 -19 q 192 67 286 -19 q 99 303 99 153 l 99 683 q 192 919 99 833 q 457 1006 286 1006 q 719 919 625 1006 q 813 683 813 833 l 813 303 q 719 67 813 153 q 457 -19 625 -19 m 457 74 q 646 134 579 74 q 713 303 713 194 l 713 683 q 646 852 713 792 q 457 913 579 913 q 266 852 333 913 q 199 683 199 792 l 199 303 q 266 134 199 194 q 457 74 333 74 z "},"1":{"ha":651,"x_min":44,"x_max":513,"o":"m 440 0 q 417 6 424 0 q 411 28 411 13 l 411 864 l 118 701 q 78 711 92 686 l 57 749 q 69 785 44 771 l 408 975 q 447 986 426 986 l 485 986 q 506 980 500 986 q 513 958 513 974 l 513 28 q 506 6 513 13 q 485 0 500 0 l 440 0 z "},"2":{"ha":854,"x_min":83,"x_max":768,"o":"m 115 0 q 88 28 88 0 l 88 129 q 105 227 88 183 q 146 299 122 271 q 213 356 169 328 q 289 398 257 383 q 376 433 321 413 q 567 522 519 489 q 663 704 661 590 q 602 852 663 792 q 447 913 542 913 q 288 872 349 913 q 188 746 226 831 q 153 729 176 719 l 108 746 q 92 781 83 756 q 450 1006 190 1006 q 680 919 592 1006 q 768 708 768 833 q 745 576 768 632 q 668 477 722 519 q 559 407 614 435 q 406 340 504 379 q 342 316 364 325 q 287 289 321 307 q 236 253 253 271 q 206 208 219 235 q 193 147 193 181 l 193 93 l 732 93 q 753 88 747 93 q 760 67 760 82 l 760 28 q 753 6 760 13 q 732 0 747 0 l 115 0 z "},"3":{"ha":868,"x_min":76,"x_max":783,"o":"m 446 -19 q 207 41 292 -19 q 85 222 122 101 q 101 258 76 249 l 144 274 q 181 256 169 283 q 268 117 210 161 q 446 74 326 74 q 622 126 564 74 q 679 274 679 178 q 631 409 679 360 q 493 458 583 458 l 290 458 q 264 485 264 458 l 264 522 q 269 543 264 538 q 290 549 275 549 l 481 549 q 608 597 564 549 q 653 721 653 646 q 443 913 653 913 q 274 871 329 913 q 189 735 218 829 q 153 718 179 711 l 110 733 q 93 768 85 743 q 213 947 131 889 q 446 1006 294 1006 q 674 933 596 1006 q 753 731 753 861 q 628 513 753 567 q 783 272 783 457 q 699 58 783 136 q 446 -19 614 -19 z "},"4":{"ha":883,"x_min":53,"x_max":826,"o":"m 603 0 q 581 6 588 0 q 575 28 575 13 l 575 268 l 81 268 q 59 274 65 268 q 53 296 53 281 l 53 325 q 63 358 53 346 l 560 978 q 597 997 575 997 l 642 997 q 664 991 658 997 q 669 969 669 985 l 669 358 l 799 358 q 820 352 814 358 q 826 331 826 346 l 826 296 q 820 274 826 281 q 799 268 814 268 l 669 268 l 669 28 q 664 6 669 13 q 643 0 658 0 l 603 0 m 171 358 l 575 358 l 575 860 l 171 358 z "},"5":{"ha":849,"x_min":67,"x_max":772,"o":"m 438 -21 q 76 199 154 -21 q 92 233 67 224 l 136 250 q 171 232 161 260 q 438 72 229 72 q 605 135 542 72 q 668 294 668 197 q 610 445 668 388 q 446 503 551 503 l 144 503 q 115 536 111 503 l 157 943 q 169 977 158 968 q 204 986 179 986 l 708 986 q 730 980 724 986 q 736 958 736 974 l 736 919 q 730 899 736 904 q 708 893 724 893 l 251 893 l 221 596 l 451 596 q 690 511 608 596 q 772 294 772 426 q 682 70 772 161 q 438 -21 592 -21 z "},"6":{"ha":899,"x_min":97,"x_max":814,"o":"m 456 -19 q 190 73 282 -19 q 97 331 97 165 l 97 656 q 189 915 97 825 q 456 1006 281 1006 q 800 793 718 1006 q 782 758 808 769 l 740 743 q 719 742 725 738 q 706 761 713 746 q 456 913 643 913 q 263 847 329 913 q 197 656 197 782 l 197 538 q 468 582 315 582 q 729 508 644 582 q 814 282 814 433 q 719 60 814 140 q 456 -19 624 -19 m 456 74 q 647 127 579 74 q 714 282 714 181 q 653 438 714 388 q 463 489 593 489 q 197 442 306 489 l 197 331 q 263 140 197 207 q 456 74 329 74 z "},"7":{"ha":757,"x_min":54,"x_max":721,"o":"m 224 0 q 210 28 199 0 l 606 893 l 82 893 q 60 899 67 893 q 54 919 54 904 l 54 958 q 60 980 54 974 q 82 986 67 986 l 694 986 q 721 958 721 986 l 721 931 q 713 893 721 911 l 318 24 q 302 4 311 8 q 268 0 293 0 l 224 0 z "},"8":{"ha":890,"x_min":85,"x_max":807,"o":"m 444 -19 q 85 235 85 -19 q 310 501 85 419 q 166 595 218 539 q 114 747 114 651 q 201 938 114 871 q 444 1006 289 1006 q 693 942 608 1006 q 778 754 778 878 q 583 507 778 581 q 748 413 689 469 q 807 250 807 357 q 719 52 807 124 q 444 -19 632 -19 m 483 539 q 535 556 515 549 q 594 588 554 564 q 657 651 635 611 q 679 746 679 692 q 444 918 679 918 q 275 874 335 918 q 215 746 215 831 q 233 665 215 699 q 288 610 250 632 q 359 576 326 588 q 450 549 392 564 l 483 539 m 444 68 q 701 249 701 68 q 694 309 701 282 q 665 356 686 336 q 627 390 643 376 q 571 417 611 403 q 512 436 531 431 q 442 456 493 442 q 429 459 433 458 q 418 462 425 460 q 406 465 411 464 q 186 244 186 407 q 444 68 186 68 z "},"9":{"ha":899,"x_min":85,"x_max":801,"o":"m 443 -19 q 99 193 181 -19 q 117 228 90 217 l 158 243 q 180 244 174 249 q 193 225 186 240 q 443 74 256 74 q 635 139 569 74 q 701 331 701 204 l 701 449 q 429 404 578 404 q 169 478 254 404 q 85 704 85 553 q 180 926 85 846 q 443 1006 275 1006 q 709 913 617 1006 q 801 656 801 821 l 801 331 q 710 71 801 161 q 443 -19 618 -19 m 436 497 q 701 544 593 497 l 701 656 q 635 846 701 779 q 443 913 569 913 q 252 859 319 913 q 185 704 185 806 q 245 548 185 599 q 436 497 306 497 z "}," ":{"ha":364,"x_min":0,"x_max":0,"o":""},"!":{"ha":322,"x_min":101,"x_max":222,"o":"m 149 233 q 124 258 125 233 l 113 1003 q 138 1028 113 1028 l 186 1028 q 211 1003 211 1028 l 199 258 q 174 233 197 233 l 149 233 m 157 -10 q 113 2 125 -10 q 101 47 101 14 l 101 56 q 113 100 101 88 q 157 113 125 113 l 165 113 q 210 100 197 113 q 222 56 222 88 l 222 47 q 210 3 222 15 q 165 -10 197 -10 l 157 -10 z "},"\"":{"ha":446,"x_min":111,"x_max":351,"o":"m 135 658 q 115 663 119 658 q 111 681 111 667 l 111 964 q 116 982 111 978 q 135 986 121 986 l 174 986 q 194 982 189 986 q 197 964 199 978 l 185 681 q 179 663 183 667 q 160 658 175 658 l 135 658 m 288 658 q 269 663 274 658 q 265 681 265 667 l 265 964 q 269 982 265 978 q 288 986 274 986 l 328 986 q 347 982 342 986 q 350 964 351 978 l 338 681 q 332 663 336 667 q 314 658 328 658 l 288 658 z "},"#":{"ha":981,"x_min":58,"x_max":919,"o":"m 175 0 q 157 25 149 0 l 228 265 l 85 265 q 67 290 58 265 l 78 328 q 111 351 85 351 l 254 351 l 322 581 l 179 581 q 160 606 151 581 l 172 643 q 204 667 178 667 l 347 667 l 413 883 q 444 908 421 908 l 486 908 q 504 883 513 908 l 439 667 l 657 667 l 722 883 q 754 908 731 908 l 794 908 q 814 883 822 908 l 749 667 l 894 667 q 914 642 919 667 l 903 603 q 869 581 896 581 l 724 581 l 656 351 l 801 351 q 821 326 829 351 l 808 288 q 775 265 801 265 l 629 265 l 558 25 q 525 0 549 0 l 485 0 q 467 25 458 0 l 538 265 l 319 265 l 247 25 q 215 0 242 0 l 175 0 m 344 351 l 564 351 l 632 581 l 414 581 l 344 351 z "},"$":{"ha":856,"x_min":65,"x_max":775,"o":"m 403 -101 q 383 -97 389 -101 q 378 -76 378 -92 l 378 13 q 76 244 160 29 q 93 283 65 272 l 132 297 q 156 299 147 303 q 171 279 164 296 q 265 147 207 190 q 425 103 324 103 q 674 283 674 103 q 658 353 674 324 q 624 398 643 382 q 566 425 606 414 q 501 440 526 436 q 424 449 475 443 q 327 460 365 454 q 240 484 289 467 q 161 526 190 501 q 111 597 132 551 q 90 703 90 642 q 163 895 90 825 q 378 975 235 965 l 378 1063 q 383 1083 378 1078 q 403 1088 389 1088 l 446 1088 q 471 1063 471 1088 l 471 975 q 646 914 581 965 q 760 763 711 863 q 744 724 774 738 l 706 707 q 668 719 682 696 q 570 843 625 804 q 415 882 515 882 q 193 704 193 882 q 208 638 193 665 q 242 594 222 610 q 300 568 263 579 q 365 553 338 557 q 442 544 393 549 q 538 533 501 539 q 625 510 575 526 q 704 467 675 493 q 754 395 733 442 q 775 286 775 349 q 698 94 775 164 q 471 14 621 24 l 471 -76 q 446 -101 471 -101 l 403 -101 z "},"%":{"ha":1164,"x_min":68,"x_max":1096,"o":"m 288 499 q 125 552 182 499 q 68 701 68 606 l 68 803 q 125 953 68 899 q 288 1007 182 1007 q 451 953 394 1007 q 508 803 508 899 l 508 701 q 451 552 508 606 q 288 499 394 499 m 203 0 q 183 8 188 0 q 188 28 179 17 l 876 963 q 896 982 888 978 q 926 986 904 986 l 964 986 q 976 960 996 986 l 289 24 q 267 4 276 8 q 235 0 258 0 l 203 0 m 288 574 q 392 608 356 574 q 429 706 429 643 l 429 799 q 392 896 429 861 q 288 931 356 931 q 183 896 219 931 q 147 799 147 861 l 147 706 q 184 608 147 643 q 288 574 221 574 m 875 -21 q 713 33 769 -21 q 656 182 656 86 l 656 283 q 713 433 656 379 q 875 488 769 488 q 1038 433 981 488 q 1096 283 1096 379 l 1096 182 q 1039 33 1096 86 q 875 -21 982 -21 m 771 89 q 789 72 771 89 q 875 54 807 54 q 980 89 943 54 q 1017 186 1017 124 l 1017 279 q 980 376 1017 342 q 875 411 943 411 q 771 376 807 411 q 735 279 735 342 l 735 186 q 771 89 735 124 z "},"&":{"ha":954,"x_min":75,"x_max":936,"o":"m 350 -19 q 154 58 233 -19 q 75 251 75 135 q 131 419 75 356 q 288 532 188 483 q 165 768 165 654 q 234 935 165 865 q 417 1006 303 1006 q 592 938 522 1006 q 663 774 663 869 q 610 622 663 679 q 442 513 558 564 l 428 507 l 678 264 l 774 356 q 807 356 790 372 l 839 324 q 838 294 853 310 l 739 199 l 914 25 q 901 0 936 0 l 844 0 q 806 15 819 0 l 678 140 q 503 13 574 44 q 350 -19 433 -19 m 368 571 l 403 588 q 534 665 493 628 q 575 774 575 701 q 529 878 575 833 q 417 924 483 924 q 299 877 343 924 q 254 767 254 831 q 282 670 254 713 q 368 571 310 628 m 354 69 q 475 98 419 69 q 617 206 531 126 l 349 468 q 215 378 260 428 q 169 250 169 329 q 224 121 169 172 q 354 69 278 69 z "},"'":{"ha":292,"x_min":107,"x_max":194,"o":"m 131 658 q 111 663 115 658 q 107 681 107 667 l 107 964 q 112 982 107 978 q 131 986 117 986 l 169 986 q 190 982 185 986 q 193 964 194 978 l 179 681 q 174 663 179 667 q 156 658 169 658 l 131 658 z "},"(":{"ha":392,"x_min":101,"x_max":357,"o":"m 296 -335 q 149 -208 197 -279 q 101 -14 101 -136 l 101 696 q 149 891 101 819 q 296 1017 197 963 q 329 1001 318 1026 l 347 967 q 333 933 356 946 q 227 840 261 889 q 193 703 193 790 l 193 -21 q 212 -126 193 -82 q 258 -195 231 -169 q 333 -251 285 -221 q 347 -285 357 -265 l 329 -319 q 296 -335 318 -343 z "},")":{"ha":392,"x_min":35,"x_max":290,"o":"m 96 -333 q 63 -319 75 -343 l 44 -283 q 58 -250 35 -262 q 165 -156 131 -204 q 199 -19 199 -108 l 199 703 q 180 808 199 764 q 134 878 161 853 q 58 935 107 904 q 44 968 35 947 l 63 1003 q 96 1017 75 1026 q 242 891 194 963 q 290 697 290 819 l 290 -12 q 242 -208 290 -136 q 96 -333 194 -279 z "},"*":{"ha":563,"x_min":92,"x_max":472,"o":"m 181 582 l 157 600 q 154 624 142 611 l 250 736 l 110 771 q 96 790 92 772 l 106 819 q 128 828 114 835 l 263 772 l 253 918 q 267 935 249 935 l 296 935 q 311 918 314 935 l 300 772 l 436 826 q 458 818 453 833 l 468 790 q 456 769 472 774 l 313 736 l 407 622 q 406 600 421 611 l 381 583 q 358 588 367 571 l 282 711 l 204 589 q 181 582 197 572 z "},"+":{"ha":824,"x_min":83,"x_max":739,"o":"m 394 126 q 374 133 379 126 q 368 154 368 139 l 368 411 l 111 411 q 83 438 83 411 l 83 471 q 90 492 83 486 q 111 499 96 499 l 368 499 l 368 754 q 374 776 368 769 q 394 782 379 782 l 428 782 q 449 776 443 782 q 456 754 456 769 l 456 499 l 713 499 q 739 471 739 499 l 739 438 q 713 411 739 411 l 456 411 l 456 154 q 449 133 456 139 q 428 126 443 126 l 394 126 z "},",":{"ha":288,"x_min":49,"x_max":208,"o":"m 68 -168 q 52 -164 56 -168 q 50 -149 49 -160 l 97 81 q 108 106 100 99 q 135 113 117 113 l 171 113 q 196 81 208 113 l 118 -144 q 106 -163 113 -158 q 86 -168 100 -168 l 68 -168 z "},"-":{"ha":621,"x_min":104,"x_max":518,"o":"m 131 332 q 104 358 104 332 l 104 394 q 110 415 104 410 q 131 421 115 421 l 490 421 q 512 415 506 421 q 518 394 518 410 l 518 358 q 490 332 518 332 l 131 332 z "},".":{"ha":294,"x_min":86,"x_max":207,"o":"m 143 -10 q 99 2 111 -10 q 86 47 86 14 l 86 56 q 99 100 86 88 q 143 113 111 113 l 150 113 q 194 100 182 113 q 207 56 207 88 l 207 47 q 194 3 207 15 q 150 -10 182 -10 l 143 -10 z "},"/":{"ha":603,"x_min":56,"x_max":547,"o":"m 81 -83 q 64 -60 56 -83 l 443 964 q 478 986 451 986 l 522 986 q 539 964 547 986 l 160 -60 q 125 -83 150 -83 l 81 -83 z "},":":{"ha":325,"x_min":103,"x_max":224,"o":"m 158 556 q 115 567 126 556 q 103 611 103 579 l 103 621 q 115 665 103 653 q 158 678 126 678 l 167 678 q 211 665 199 678 q 224 621 224 653 l 224 611 q 211 567 224 579 q 167 556 199 556 l 158 556 m 158 -10 q 115 2 126 -10 q 103 47 103 14 l 103 56 q 115 100 103 88 q 158 113 126 113 l 167 113 q 211 100 199 113 q 224 56 224 88 l 224 47 q 211 3 224 15 q 167 -10 199 -10 l 158 -10 z "},";":{"ha":365,"x_min":71,"x_max":238,"o":"m 174 556 q 129 567 142 556 q 117 611 117 579 l 117 621 q 129 665 117 653 q 174 678 142 678 l 182 678 q 226 665 214 678 q 238 621 238 653 l 238 611 q 226 567 238 579 q 182 556 214 556 l 174 556 m 90 -168 q 74 -164 78 -168 q 72 -149 71 -160 l 119 81 q 131 106 122 99 q 157 113 139 113 l 193 113 q 219 81 231 113 l 140 -144 q 110 -168 133 -168 l 90 -168 z "},"<":{"ha":726,"x_min":68,"x_max":624,"o":"m 593 132 l 90 404 q 68 440 68 417 l 68 465 q 90 501 68 489 l 593 774 q 624 753 624 789 l 624 717 q 618 688 624 696 q 597 672 613 681 l 186 457 l 186 453 l 596 238 q 613 227 608 231 q 621 215 618 224 q 624 192 624 207 l 624 153 q 593 132 624 117 z "},"=":{"ha":865,"x_min":106,"x_max":761,"o":"m 132 546 q 106 574 106 546 l 106 610 q 132 636 106 636 l 733 636 q 761 610 761 636 l 761 574 q 755 552 761 558 q 733 546 749 546 l 132 546 m 132 271 q 106 299 106 271 l 106 335 q 132 363 106 363 l 733 363 q 755 356 749 363 q 761 335 761 350 l 761 299 q 755 277 761 283 q 733 271 749 271 l 132 271 z "},">":{"ha":726,"x_min":103,"x_max":658,"o":"m 133 133 q 103 153 103 117 l 103 189 q 108 219 103 211 q 129 235 113 226 l 539 450 l 539 454 l 131 668 q 108 684 113 676 q 103 714 103 692 l 103 753 q 133 774 103 790 l 635 501 q 658 467 658 489 l 658 440 q 635 404 658 417 l 133 133 z "},"?":{"ha":811,"x_min":53,"x_max":746,"o":"m 354 215 q 335 221 340 215 q 329 242 329 226 q 368 389 329 336 q 481 490 407 442 q 544 534 525 519 q 592 579 563 549 q 635 649 622 610 q 647 738 647 688 q 585 882 647 825 q 413 939 522 939 q 153 767 224 939 q 140 748 146 751 q 118 750 133 744 l 79 764 q 63 799 53 771 q 414 1028 151 1028 q 656 946 567 1028 q 746 742 746 864 q 733 644 746 689 q 706 572 719 599 q 658 513 692 544 q 610 472 624 482 q 554 436 596 463 q 538 425 543 429 q 445 345 476 385 q 414 242 414 306 q 408 221 414 226 q 388 215 403 215 l 354 215 m 368 -10 q 324 2 336 -10 q 311 47 311 14 l 311 56 q 324 100 311 88 q 368 113 336 113 l 375 113 q 420 100 408 113 q 432 56 432 88 l 432 47 q 420 3 432 15 q 375 -10 408 -10 l 368 -10 z "},"@":{"ha":1288,"x_min":85,"x_max":1197,"o":"m 640 -183 q 230 -42 375 -183 q 85 356 85 99 l 85 456 q 231 858 85 710 q 640 1006 378 1006 q 1053 857 908 1006 q 1197 456 1197 708 l 1197 356 q 1128 139 1197 215 q 956 63 1058 63 q 894 76 915 63 q 858 119 874 89 q 603 69 739 69 q 423 129 482 69 q 364 299 364 189 l 364 511 q 423 681 364 621 q 603 740 482 740 q 850 699 754 740 q 888 674 878 688 q 899 633 899 661 l 899 188 q 957 133 899 133 q 1074 188 1026 133 q 1122 354 1122 243 l 1122 456 q 997 809 1122 679 q 640 939 872 939 q 286 810 413 939 q 160 456 160 682 l 160 354 q 285 6 160 128 q 640 -115 410 -115 q 939 -78 761 -115 q 954 -87 954 -76 l 954 -125 q 939 -146 954 -142 q 640 -183 807 -183 m 613 143 q 818 186 719 143 l 818 607 q 794 640 818 629 q 613 667 718 667 q 444 508 444 667 l 444 300 q 613 143 444 143 z "},"A":{"ha":926,"x_min":24,"x_max":901,"o":"m 53 0 q 35 26 24 0 l 407 967 q 442 990 415 990 l 483 990 q 518 968 511 990 l 890 26 q 872 0 901 0 l 832 0 q 782 24 789 0 l 678 289 l 243 289 l 139 24 q 124 5 133 10 q 89 0 114 0 l 53 0 m 272 372 l 650 372 l 482 799 q 471 842 475 819 q 464 881 467 865 l 463 896 l 457 896 l 456 881 q 450 843 454 865 q 439 800 446 821 l 272 372 z "},"B":{"ha":929,"x_min":126,"x_max":849,"o":"m 153 0 q 126 28 126 0 l 126 958 q 153 986 126 986 l 546 986 q 744 921 674 986 q 814 733 814 856 q 683 511 814 568 l 683 508 q 849 265 849 465 q 771 69 849 139 q 560 0 693 0 l 153 0 m 226 547 l 533 547 q 711 721 711 547 q 533 893 711 893 l 226 893 l 226 547 m 226 93 l 557 93 q 695 140 647 93 q 743 275 743 186 q 695 410 743 364 q 557 457 647 457 l 226 457 l 226 93 z "},"C":{"ha":919,"x_min":97,"x_max":858,"o":"m 478 -19 q 196 73 294 -19 q 97 329 97 165 l 97 657 q 195 913 97 821 q 478 1006 293 1006 q 722 947 633 1006 q 847 768 810 888 q 849 745 853 753 q 831 732 846 738 l 788 718 q 766 717 774 714 q 753 735 758 719 q 658 869 722 826 q 478 913 594 913 q 270 846 342 913 q 199 658 199 779 l 199 328 q 271 141 199 208 q 478 74 343 74 q 661 118 597 74 q 754 257 725 163 q 790 274 765 282 l 832 258 q 850 224 858 249 q 724 42 813 103 q 478 -19 635 -19 z "},"D":{"ha":943,"x_min":126,"x_max":850,"o":"m 153 0 q 126 28 126 0 l 126 958 q 153 986 126 986 l 447 986 q 744 888 639 986 q 850 619 850 790 l 850 367 q 744 98 850 196 q 447 0 639 0 l 153 0 m 226 93 l 447 93 q 671 165 593 93 q 749 367 749 236 l 749 619 q 671 822 749 750 q 447 893 593 893 l 226 893 l 226 93 z "},"E":{"ha":832,"x_min":126,"x_max":761,"o":"m 153 0 q 126 28 126 0 l 126 958 q 153 986 126 986 l 717 986 q 743 958 743 986 l 743 919 q 738 899 743 904 q 717 893 732 893 l 226 893 l 226 547 l 654 547 q 681 519 681 547 l 681 481 q 654 453 681 453 l 226 453 l 226 93 l 733 93 q 755 88 749 93 q 761 67 761 82 l 761 28 q 755 6 761 13 q 733 0 749 0 l 153 0 z "},"F":{"ha":807,"x_min":126,"x_max":743,"o":"m 153 0 q 126 28 126 0 l 126 958 q 153 986 126 986 l 717 986 q 743 958 743 986 l 743 919 q 738 899 743 904 q 717 893 732 893 l 226 893 l 226 532 l 649 532 q 675 506 675 532 l 675 467 q 649 439 675 439 l 226 439 l 226 28 q 200 0 226 0 l 153 0 z "},"G":{"ha":946,"x_min":97,"x_max":860,"o":"m 479 -19 q 196 74 294 -19 q 97 331 97 167 l 97 657 q 195 913 97 821 q 478 1006 293 1006 q 722 947 633 1006 q 847 768 810 888 q 849 745 853 753 q 831 732 846 738 l 788 718 q 753 735 761 708 q 658 869 722 826 q 478 913 594 913 q 269 846 340 913 q 197 658 197 779 l 197 331 q 270 141 197 208 q 479 74 343 74 q 688 138 614 74 q 761 313 761 203 l 761 418 l 493 418 q 465 444 465 418 l 465 483 q 472 505 465 499 q 493 511 478 511 l 832 511 q 853 505 847 511 q 860 483 860 499 l 860 313 q 760 71 860 161 q 479 -19 660 -19 z "},"H":{"ha":982,"x_min":126,"x_max":856,"o":"m 153 0 q 126 28 126 0 l 126 958 q 153 986 126 986 l 200 986 q 226 958 226 986 l 226 547 l 756 547 l 756 958 q 762 980 756 974 q 783 986 768 986 l 829 986 q 856 958 856 986 l 856 28 q 829 0 856 0 l 783 0 q 762 6 768 0 q 756 28 756 13 l 756 453 l 226 453 l 226 28 q 200 0 226 0 l 153 0 z "},"I":{"ha":353,"x_min":126,"x_max":226,"o":"m 153 0 q 126 28 126 0 l 126 958 q 153 986 126 986 l 200 986 q 226 958 226 986 l 226 28 q 200 0 226 0 l 153 0 z "},"J":{"ha":828,"x_min":36,"x_max":708,"o":"m 374 -21 q 46 239 108 -21 q 63 275 36 265 l 106 290 q 142 272 132 300 q 219 124 164 174 q 374 74 274 74 q 548 135 488 74 q 608 308 608 197 l 608 960 q 635 986 608 986 l 682 986 q 703 981 697 986 q 708 960 708 975 l 708 310 q 622 67 708 154 q 374 -21 535 -21 z "},"K":{"ha":882,"x_min":126,"x_max":851,"o":"m 153 0 q 126 28 126 0 l 126 958 q 153 986 126 986 l 200 986 q 226 958 226 986 l 226 546 l 360 546 l 390 546 l 701 963 q 757 986 719 986 l 807 986 q 825 978 821 986 q 821 960 829 969 l 492 526 q 660 371 596 497 l 836 28 q 821 0 851 0 l 776 0 q 722 24 733 0 l 567 333 q 491 427 533 400 q 368 454 449 454 l 226 454 l 226 28 q 200 0 226 0 l 153 0 z "},"L":{"ha":760,"x_min":126,"x_max":724,"o":"m 153 0 q 126 28 126 0 l 126 958 q 153 986 126 986 l 200 986 q 226 958 226 986 l 226 93 l 697 93 q 718 88 713 93 q 724 67 724 82 l 724 28 q 697 0 724 0 l 153 0 z "},"M":{"ha":1147,"x_min":126,"x_max":1021,"o":"m 153 0 q 126 28 126 0 l 126 958 q 153 986 126 986 l 189 986 q 229 964 217 986 l 574 354 l 917 963 q 954 986 928 986 l 994 986 q 1021 958 1021 986 l 1021 28 q 994 0 1021 0 l 953 0 q 931 6 938 0 q 925 28 925 13 l 926 594 q 943 840 926 707 l 938 840 q 831 625 896 740 l 619 251 q 588 231 608 231 l 560 231 q 526 251 538 231 l 313 629 q 211 842 254 728 l 206 842 q 221 594 221 718 l 221 28 q 215 6 221 13 q 193 0 208 0 l 153 0 z "},"N":{"ha":994,"x_min":126,"x_max":869,"o":"m 153 0 q 126 28 126 0 l 126 958 q 153 986 126 986 l 199 986 q 226 972 217 986 l 660 349 q 733 226 692 301 q 783 138 774 151 l 788 138 q 780 243 788 153 q 772 397 772 333 l 772 960 q 778 981 772 975 q 799 986 783 986 l 842 986 q 863 980 857 986 q 869 958 869 974 l 869 28 q 863 6 869 13 q 842 0 857 0 l 797 0 q 768 15 776 0 l 325 651 q 260 765 297 693 q 213 850 222 838 l 208 850 q 216 751 208 839 q 224 606 224 664 l 224 28 q 217 6 224 13 q 196 0 211 0 l 153 0 z "},"O":{"ha":957,"x_min":97,"x_max":860,"o":"m 479 -19 q 196 73 294 -19 q 97 329 97 165 l 97 657 q 196 913 97 821 q 479 1006 294 1006 q 761 913 663 1006 q 860 657 860 821 l 860 329 q 761 73 860 165 q 479 -19 663 -19 m 270 140 q 307 107 270 140 q 479 74 343 74 q 688 140 615 74 q 760 329 760 207 l 760 657 q 688 846 760 779 q 479 913 615 913 q 270 846 343 913 q 197 657 197 779 l 197 329 q 270 140 197 207 z "},"P":{"ha":900,"x_min":126,"x_max":839,"o":"m 153 0 q 126 28 126 0 l 126 958 q 153 986 126 986 l 525 986 q 755 904 671 986 q 839 678 839 822 q 755 452 839 533 q 525 371 671 371 l 226 371 l 226 28 q 200 0 226 0 l 153 0 m 226 464 l 517 464 q 676 521 618 464 q 735 678 735 578 q 676 836 735 779 q 517 893 618 893 l 226 893 l 226 464 z "},"Q":{"ha":972,"x_min":97,"x_max":900,"o":"m 810 -89 l 703 36 q 479 -19 618 -19 q 196 73 294 -19 q 97 329 97 165 l 97 657 q 196 913 97 821 q 479 1006 294 1006 q 761 913 663 1006 q 860 657 860 821 l 860 329 q 779 92 860 183 l 881 -28 q 878 -67 900 -49 l 847 -92 q 810 -89 828 -111 m 270 140 q 307 107 270 140 q 479 74 343 74 q 688 140 615 74 q 760 329 760 207 l 760 657 q 688 846 760 779 q 479 913 615 913 q 270 846 343 913 q 197 657 197 779 l 197 329 q 270 140 197 207 z "},"R":{"ha":931,"x_min":126,"x_max":879,"o":"m 153 0 q 126 28 126 0 l 126 958 q 153 986 126 986 l 547 986 q 762 910 685 986 q 839 699 839 835 q 780 514 839 585 q 615 426 721 443 q 706 331 669 401 l 861 28 q 847 0 879 0 l 801 0 q 747 24 758 0 l 613 293 q 537 387 579 360 q 414 414 494 414 l 226 414 l 226 28 q 200 0 226 0 l 153 0 m 226 507 l 538 507 q 683 557 632 507 q 735 699 735 607 q 683 842 735 792 q 538 893 632 893 l 226 893 l 226 507 z "},"S":{"ha":906,"x_min":67,"x_max":828,"o":"m 451 -19 q 213 39 303 -19 q 75 219 124 97 q 92 257 67 246 l 135 272 q 156 274 150 278 q 169 256 163 271 q 451 75 249 75 q 728 269 728 75 q 712 341 728 311 q 674 389 696 371 q 612 419 651 407 q 540 437 572 432 q 457 447 508 442 q 369 460 401 454 q 287 477 336 465 q 208 508 238 489 q 148 554 178 526 q 104 624 118 582 q 90 721 90 667 q 185 928 90 851 q 449 1006 279 1006 q 674 954 589 1006 q 814 792 760 903 q 799 756 826 768 l 756 736 q 735 733 742 731 q 719 750 728 736 q 615 871 678 832 q 449 910 551 910 q 259 863 325 910 q 193 726 193 815 q 210 654 193 685 q 251 606 226 624 q 317 574 275 588 q 393 556 360 561 q 481 544 426 550 q 582 530 542 538 q 674 503 622 522 q 755 458 725 485 q 806 383 785 431 q 828 272 828 336 q 731 57 828 133 q 451 -19 635 -19 z "},"T":{"ha":804,"x_min":36,"x_max":768,"o":"m 379 0 q 358 6 364 0 q 353 28 353 13 l 353 893 l 64 893 q 42 899 49 893 q 36 919 36 904 l 36 958 q 42 980 36 974 q 64 986 49 986 l 740 986 q 762 980 756 986 q 768 958 768 974 l 768 919 q 762 899 768 904 q 740 893 756 893 l 453 893 l 453 28 q 447 6 453 13 q 425 0 440 0 l 379 0 z "},"U":{"ha":983,"x_min":118,"x_max":865,"o":"m 769 74 q 722 27 769 74 q 492 -21 674 -21 q 214 74 310 -21 q 118 336 118 169 l 118 958 q 124 980 118 974 q 146 986 131 986 l 192 986 q 213 980 207 986 q 219 958 219 974 l 219 335 q 288 142 219 211 q 492 72 357 72 q 695 142 626 72 q 764 335 764 211 l 764 958 q 770 980 764 974 q 792 986 776 986 l 838 986 q 859 980 853 986 q 865 958 865 974 l 865 336 q 769 74 865 169 z "},"V":{"ha":899,"x_min":26,"x_max":875,"o":"m 429 0 q 394 22 401 0 l 35 960 q 53 986 26 986 l 94 986 q 143 963 136 986 l 417 232 q 431 188 424 213 q 442 144 438 164 q 449 121 447 124 l 454 121 q 467 166 457 126 q 486 231 478 206 l 758 963 q 807 986 765 986 l 847 986 q 864 960 875 986 l 506 24 q 471 0 496 0 l 429 0 z "},"W":{"ha":1258,"x_min":44,"x_max":1217,"o":"m 333 0 q 299 22 304 0 l 50 960 q 68 986 44 986 l 124 986 q 160 963 154 986 l 331 290 q 345 206 336 265 q 356 140 354 146 l 361 140 q 390 289 379 250 l 575 946 q 613 971 582 971 l 656 971 q 692 946 686 971 l 875 288 q 906 140 885 254 l 911 140 q 936 288 924 231 l 1106 963 q 1142 986 1111 986 l 1190 986 q 1208 960 1217 986 l 960 24 q 925 0 954 0 l 882 0 q 846 22 853 0 l 660 694 q 633 832 642 761 l 628 832 q 599 696 615 753 l 413 24 q 376 0 406 0 l 333 0 z "},"X":{"ha":893,"x_min":35,"x_max":860,"o":"m 56 0 q 38 9 40 0 q 43 29 35 18 l 382 501 l 53 960 q 49 978 46 969 q 67 986 53 986 l 121 986 q 153 982 144 986 q 174 963 163 978 l 447 581 l 721 963 q 740 982 731 978 q 771 986 749 986 l 826 986 q 844 978 840 986 q 840 960 847 969 l 510 501 l 851 29 q 857 9 860 18 q 838 0 854 0 l 782 0 q 748 3 757 0 q 729 24 739 7 l 443 424 l 161 24 q 141 4 150 8 q 108 0 132 0 l 56 0 z "},"Y":{"ha":907,"x_min":32,"x_max":882,"o":"m 431 0 q 409 6 415 0 q 403 28 403 13 l 403 401 l 40 958 q 36 978 32 969 q 54 986 40 986 l 111 986 q 146 982 136 986 q 164 963 156 978 l 454 504 l 747 963 q 765 983 756 979 q 800 986 775 986 l 853 986 q 867 958 882 986 l 503 400 l 503 28 q 476 0 503 0 l 431 0 z "},"Z":{"ha":822,"x_min":64,"x_max":763,"o":"m 90 0 q 64 28 64 0 l 64 65 q 74 97 64 86 l 622 893 l 97 893 q 76 899 82 893 q 69 919 69 904 l 69 958 q 76 980 69 974 q 97 986 82 986 l 721 986 q 742 980 736 986 q 749 958 749 974 l 749 921 q 739 890 749 904 l 189 94 l 735 94 q 756 88 750 94 q 763 67 763 82 l 763 28 q 756 6 763 13 q 735 0 750 0 l 90 0 z "},"[":{"ha":414,"x_min":111,"x_max":374,"o":"m 136 -354 q 116 -349 121 -354 q 111 -329 111 -344 l 111 1013 q 116 1033 111 1028 q 136 1038 121 1038 l 349 1038 q 369 1033 364 1038 q 374 1014 374 1029 l 374 978 q 369 958 374 963 q 349 954 364 954 l 201 954 l 201 -269 l 349 -269 q 369 -274 364 -269 q 374 -293 374 -278 l 374 -329 q 369 -349 374 -344 q 349 -354 364 -354 l 136 -354 z "},"\\":{"ha":603,"x_min":54,"x_max":547,"o":"m 476 -83 q 443 -60 453 -83 l 63 963 q 79 986 54 986 l 125 986 q 160 963 150 986 l 539 -60 q 522 -83 547 -83 l 476 -83 z "},"]":{"ha":414,"x_min":40,"x_max":303,"o":"m 64 -354 q 44 -349 49 -354 q 40 -329 40 -344 l 40 -293 q 45 -274 40 -278 q 64 -269 50 -269 l 213 -269 l 213 954 l 64 954 q 45 959 50 954 q 40 978 40 964 l 40 1014 q 44 1033 40 1029 q 64 1038 49 1038 l 278 1038 q 298 1033 293 1038 q 303 1013 303 1028 l 303 -329 q 298 -349 303 -344 q 278 -354 293 -354 l 64 -354 z "},"^":{"ha":858,"x_min":69,"x_max":788,"o":"m 107 722 q 93 753 69 722 l 379 1103 q 414 1125 397 1125 l 440 1125 q 475 1103 457 1125 l 764 753 q 750 722 788 722 l 708 722 q 678 726 686 722 q 658 744 671 729 l 429 1029 l 424 1029 l 196 744 q 176 726 183 729 q 146 722 168 722 l 107 722 z "},"_":{"ha":738,"x_min":56,"x_max":683,"o":"m 82 -90 q 56 -62 56 -90 l 56 -28 q 82 0 56 0 l 656 0 q 677 -6 671 0 q 683 -28 683 -12 l 683 -62 q 677 -84 683 -78 q 656 -90 671 -90 l 82 -90 z "},"`":{"ha":393,"x_min":36,"x_max":361,"o":"m 301 822 l 56 951 q 53 981 36 960 l 72 1006 q 119 1007 89 1025 l 344 868 q 347 840 361 858 l 333 824 q 301 822 324 813 z "},"a":{"ha":747,"x_min":69,"x_max":650,"o":"m 369 -19 q 133 33 197 -19 q 69 196 69 85 q 140 362 69 314 q 375 410 210 410 q 557 396 474 410 l 557 461 q 516 601 557 551 q 369 651 475 651 q 174 551 232 651 q 140 539 161 531 l 107 553 q 93 589 81 563 q 372 735 171 735 q 588 660 526 735 q 650 460 650 586 l 650 96 q 640 44 650 60 q 600 17 629 29 q 369 -19 517 -19 m 363 58 q 531 81 474 58 q 552 94 547 88 q 557 121 557 101 l 557 322 q 365 335 432 335 q 209 303 254 335 q 164 197 164 271 q 206 92 164 126 q 363 58 247 58 z "},"b":{"ha":781,"x_min":107,"x_max":694,"o":"m 396 -19 q 160 22 254 -19 q 117 51 126 38 q 107 99 107 64 l 107 1003 q 132 1028 107 1028 l 175 1028 q 194 1022 189 1028 q 200 1003 200 1017 l 200 692 q 421 735 329 735 q 694 463 694 735 l 694 265 q 396 -19 694 -19 m 389 65 q 601 267 601 65 l 601 460 q 408 650 601 650 q 200 604 310 650 l 200 128 q 204 106 200 113 q 226 93 208 100 q 389 65 294 65 z "},"c":{"ha":750,"x_min":86,"x_max":692,"o":"m 383 -19 q 161 53 236 -19 q 86 254 86 125 l 86 461 q 163 663 86 590 q 389 735 239 735 q 679 547 622 735 q 663 511 689 519 l 626 499 q 592 515 601 490 q 522 619 569 586 q 386 651 474 651 q 231 602 283 651 q 179 464 179 553 l 179 251 q 233 113 179 163 q 386 63 286 63 q 593 206 551 63 q 629 222 603 229 l 665 211 q 682 175 692 201 q 383 -19 618 -19 z "},"d":{"ha":781,"x_min":88,"x_max":674,"o":"m 379 -19 q 88 258 88 -19 l 88 457 q 156 663 88 590 q 361 735 224 735 q 581 694 468 735 l 581 1003 q 606 1028 581 1028 l 649 1028 q 669 1022 664 1028 q 674 1003 674 1017 l 674 97 q 663 50 674 64 q 619 22 653 36 q 379 -19 521 -19 m 388 65 q 554 92 481 65 q 576 105 572 99 q 581 128 581 111 l 581 607 q 378 650 471 650 q 181 454 181 650 l 181 260 q 388 65 181 65 z "},"e":{"ha":772,"x_min":83,"x_max":699,"o":"m 383 -19 q 158 56 233 -19 q 83 261 83 131 l 83 442 q 162 658 83 581 q 390 735 240 735 q 620 656 542 735 q 699 447 699 578 l 699 371 q 657 332 699 332 l 176 332 l 176 251 q 230 111 176 161 q 385 61 283 61 q 603 176 539 61 q 643 186 619 199 l 672 171 q 682 131 699 157 q 383 -19 599 -19 m 176 404 l 606 404 l 606 453 q 551 601 606 547 q 390 654 496 654 q 231 601 286 654 q 176 453 176 547 l 176 404 z "},"f":{"ha":526,"x_min":29,"x_max":497,"o":"m 203 0 q 183 6 189 0 q 178 25 178 11 l 178 628 l 54 628 q 29 653 29 628 l 29 689 q 34 708 29 703 q 54 714 39 714 l 178 714 l 178 749 q 243 961 178 897 q 458 1028 308 1025 l 469 1028 q 489 1022 483 1028 q 494 1003 494 1017 l 494 967 q 469 940 494 940 q 313 900 356 940 q 271 749 271 860 l 271 714 l 472 714 q 497 689 497 714 l 497 653 q 472 628 497 628 l 271 628 l 271 25 q 266 6 271 11 q 246 0 261 0 l 203 0 z "},"g":{"ha":781,"x_min":86,"x_max":674,"o":"m 381 -343 q 101 -194 183 -343 q 113 -154 86 -167 l 142 -137 q 182 -147 167 -124 q 257 -231 213 -203 q 378 -258 301 -258 q 581 -47 581 -258 l 581 39 q 361 -3 468 -3 q 86 268 86 -3 l 86 450 q 386 735 86 735 q 621 693 521 735 q 664 665 654 678 q 674 617 674 651 l 674 -43 q 381 -343 674 -343 m 372 82 q 581 124 469 82 l 581 586 q 576 609 581 603 q 554 622 572 615 q 392 650 479 650 q 179 449 179 650 l 179 271 q 372 82 179 82 z "},"h":{"ha":801,"x_min":111,"x_max":697,"o":"m 136 0 q 117 6 122 0 q 111 25 111 11 l 111 1003 q 117 1022 111 1017 q 136 1028 122 1028 l 179 1028 q 204 1003 204 1028 l 204 696 q 422 735 288 735 q 697 463 697 735 l 697 25 q 692 6 697 11 q 672 0 686 0 l 629 0 q 604 25 604 0 l 604 460 q 410 650 604 650 q 204 608 288 650 l 204 25 q 179 0 204 0 l 136 0 z "},"i":{"ha":314,"x_min":101,"x_max":213,"o":"m 153 879 q 112 890 122 879 q 101 931 101 900 l 101 939 q 112 980 101 969 q 153 990 122 990 l 161 990 q 202 980 192 990 q 213 939 213 969 l 213 931 q 202 890 213 900 q 161 879 192 879 l 153 879 m 135 0 q 110 25 110 0 l 110 689 q 135 714 110 714 l 178 714 q 197 708 192 714 q 203 689 203 703 l 203 25 q 197 6 203 11 q 178 0 192 0 l 135 0 z "},"j":{"ha":315,"x_min":-110,"x_max":214,"o":"m 154 879 q 112 890 122 879 q 101 931 101 900 l 101 939 q 112 980 101 969 q 154 990 122 990 l 161 990 q 203 980 193 990 q 214 939 214 969 l 214 931 q 203 890 214 900 q 161 879 192 879 l 154 879 m -85 -321 q -110 -294 -110 -321 l -110 -258 q -85 -232 -110 -232 q 67 -177 24 -232 q 111 -11 111 -122 l 111 689 q 117 708 111 703 q 136 714 122 714 l 178 714 q 204 689 204 714 l 204 -12 q 136 -242 204 -164 q -85 -321 68 -321 z "},"k":{"ha":740,"x_min":111,"x_max":699,"o":"m 138 0 q 117 6 122 0 q 111 26 111 11 l 111 1003 q 117 1023 111 1018 q 138 1028 122 1028 l 178 1028 q 204 1003 204 1028 l 204 410 l 338 410 l 350 410 l 574 694 q 592 711 583 708 q 622 714 600 714 l 661 714 q 678 685 699 714 l 443 392 q 564 279 518 372 l 689 29 q 694 7 697 14 q 674 0 690 0 l 632 0 q 603 4 611 0 q 589 22 596 8 l 483 239 q 431 303 463 283 q 349 324 400 324 l 204 324 l 204 26 q 199 6 204 11 q 178 0 193 0 l 138 0 z "},"l":{"ha":324,"x_min":115,"x_max":208,"o":"m 140 0 q 120 6 125 0 q 115 25 115 11 l 115 1003 q 120 1022 115 1017 q 140 1028 125 1028 l 183 1028 q 208 1003 208 1028 l 208 25 q 183 0 208 0 l 140 0 z "},"m":{"ha":1185,"x_min":107,"x_max":1082,"o":"m 132 0 q 107 25 107 0 l 107 611 q 118 660 107 643 q 160 690 129 676 q 385 735 257 735 q 569 675 507 735 q 824 735 694 735 q 1082 471 1082 735 l 1082 25 q 1057 0 1082 0 l 1014 0 q 994 6 1000 0 q 989 25 989 11 l 989 467 q 946 605 989 560 q 811 650 903 650 q 619 603 725 650 q 647 471 647 551 l 647 25 q 622 0 647 0 l 579 0 q 559 6 564 0 q 554 25 554 11 l 554 467 q 374 650 554 650 q 224 621 289 650 q 200 583 200 610 l 200 25 q 194 6 200 11 q 175 0 189 0 l 132 0 z "},"n":{"ha":799,"x_min":107,"x_max":694,"o":"m 132 0 q 107 25 107 0 l 107 611 q 117 658 107 643 q 160 688 128 674 q 418 735 275 735 q 694 463 694 735 l 694 25 q 669 0 694 0 l 626 0 q 606 6 611 0 q 601 25 601 11 l 601 460 q 407 650 601 650 q 222 618 310 650 q 200 583 200 608 l 200 25 q 194 6 200 11 q 175 0 189 0 l 132 0 z "},"o":{"ha":785,"x_min":88,"x_max":697,"o":"m 392 -19 q 169 49 250 -19 q 88 235 88 117 l 88 479 q 169 667 88 599 q 392 735 250 735 q 616 667 535 735 q 697 479 697 599 l 697 235 q 616 48 697 115 q 392 -19 535 -19 m 392 64 q 547 110 490 64 q 604 235 604 156 l 604 481 q 547 605 604 560 q 392 650 490 650 q 238 605 294 650 q 181 481 181 560 l 181 235 q 238 110 181 156 q 392 64 294 64 z "},"p":{"ha":781,"x_min":107,"x_max":694,"o":"m 132 -306 q 107 -281 107 -306 l 107 617 q 118 665 107 650 q 163 694 129 681 q 406 735 264 735 q 694 457 694 735 l 694 257 q 410 -19 694 -19 q 200 28 322 -19 l 200 -281 q 194 -300 200 -294 q 175 -306 189 -306 l 132 -306 m 403 65 q 601 260 601 65 l 601 454 q 394 650 601 650 q 228 622 306 650 q 205 608 210 615 q 200 585 200 601 l 200 114 q 403 65 306 65 z "},"q":{"ha":781,"x_min":88,"x_max":674,"o":"m 606 -306 q 581 -281 581 -306 l 581 29 q 361 -19 461 -19 q 88 251 88 -19 l 88 450 q 386 735 88 735 q 621 693 521 735 q 664 665 654 678 q 674 617 674 651 l 674 -281 q 669 -300 674 -294 q 649 -306 664 -306 l 606 -306 m 374 65 q 581 114 475 65 l 581 585 q 576 608 581 601 q 553 622 571 615 q 392 650 478 650 q 181 449 181 650 l 181 253 q 374 65 181 65 z "},"r":{"ha":511,"x_min":107,"x_max":479,"o":"m 132 0 q 107 25 107 0 l 107 594 q 118 642 107 626 q 160 671 129 658 q 411 714 265 714 l 454 714 q 479 689 479 714 l 479 654 q 454 629 479 629 l 408 629 q 225 600 304 629 q 200 563 200 589 l 200 25 q 194 6 200 11 q 175 0 189 0 l 132 0 z "},"s":{"ha":725,"x_min":60,"x_max":654,"o":"m 369 -19 q 71 153 138 -19 q 86 186 60 178 l 122 199 q 156 183 144 206 q 368 63 200 63 q 564 189 564 63 q 516 281 564 257 q 363 317 468 306 q 278 327 310 322 q 205 346 247 332 q 139 381 163 360 q 99 438 115 401 q 82 526 82 475 q 152 679 82 624 q 356 735 222 735 q 639 583 572 735 q 626 547 653 558 l 592 532 q 557 544 569 524 q 488 624 533 597 q 357 651 442 651 q 175 529 175 651 q 186 474 175 497 q 213 439 197 451 q 259 418 228 426 q 315 406 290 410 q 385 399 339 403 q 492 383 449 393 q 575 351 535 372 q 635 290 615 329 q 654 193 654 251 q 583 37 654 93 q 369 -19 511 -19 z "},"t":{"ha":533,"x_min":25,"x_max":500,"o":"m 474 0 q 245 59 308 0 q 182 285 182 118 l 182 628 l 50 628 q 25 653 25 628 l 25 689 q 50 714 25 714 l 182 714 l 182 856 q 207 881 182 881 l 250 881 q 269 875 264 881 q 275 856 275 869 l 275 714 l 475 714 q 494 708 489 714 q 500 689 500 703 l 500 653 q 475 628 500 628 l 275 628 l 275 288 q 316 128 275 167 q 474 89 357 89 q 499 64 499 89 l 499 26 q 474 0 499 0 z "},"u":{"ha":799,"x_min":104,"x_max":690,"o":"m 379 -19 q 104 251 104 -19 l 104 689 q 109 708 104 703 q 129 714 114 714 l 172 714 q 197 689 197 714 l 197 256 q 392 65 197 65 q 572 94 493 65 q 597 135 597 106 l 597 689 q 622 714 597 714 l 665 714 q 690 689 690 714 l 690 103 q 680 56 690 71 q 639 26 669 40 q 379 -19 528 -19 z "},"v":{"ha":735,"x_min":35,"x_max":701,"o":"m 356 -4 q 319 19 329 -4 l 42 685 q 39 708 35 703 q 61 714 43 714 l 93 714 q 124 709 115 714 q 138 689 132 704 l 328 231 q 351 160 338 204 q 367 110 364 117 l 371 110 q 386 159 374 117 q 408 229 399 201 l 597 689 q 611 709 603 704 q 642 714 619 714 l 675 714 q 697 708 692 714 q 694 686 701 703 l 417 19 q 381 -4 406 -4 l 356 -4 z "},"w":{"ha":1051,"x_min":46,"x_max":1006,"o":"m 289 -4 q 256 18 263 -4 l 51 685 q 50 708 46 701 q 71 714 54 714 l 103 714 q 135 709 126 714 q 147 689 144 704 l 274 257 q 291 176 281 229 q 304 114 301 124 l 308 114 q 323 176 311 122 q 343 258 335 229 l 476 674 q 488 694 481 689 q 517 699 494 699 l 538 699 q 565 694 558 699 q 578 674 572 689 l 710 263 q 731 177 719 231 q 746 114 743 124 l 750 114 q 763 174 753 122 q 782 261 772 226 l 907 689 q 919 710 911 706 q 951 714 928 714 l 979 714 q 1001 708 997 714 q 1000 685 1006 701 l 794 18 q 761 -4 789 -4 l 732 -4 q 697 18 704 -4 l 554 472 q 537 543 546 501 q 526 590 528 585 l 522 590 q 511 542 519 583 q 494 472 503 500 l 351 18 q 318 -4 344 -4 l 289 -4 z "},"x":{"ha":713,"x_min":26,"x_max":688,"o":"m 64 0 q 47 28 26 0 l 300 367 l 58 686 q 78 714 40 714 l 117 714 q 161 693 149 714 l 357 435 l 551 693 q 568 710 561 707 q 594 714 575 714 l 636 714 q 653 686 672 714 l 414 367 l 668 28 q 650 0 688 0 l 608 0 q 564 21 578 0 l 356 300 l 149 21 q 104 0 135 0 l 64 0 z "},"y":{"ha":801,"x_min":100,"x_max":690,"o":"m 396 -343 q 119 -194 200 -343 q 129 -154 100 -167 l 160 -137 q 200 -147 185 -124 q 394 -260 261 -260 q 597 -47 597 -260 l 597 35 q 379 -1 475 -1 q 104 269 104 -1 l 104 689 q 109 708 104 703 q 129 714 114 714 l 172 714 q 197 689 197 714 l 197 274 q 392 83 197 83 q 597 121 492 83 l 597 689 q 622 714 597 714 l 665 714 q 685 708 681 714 q 690 689 690 703 l 690 -43 q 396 -343 690 -343 z "},"z":{"ha":668,"x_min":60,"x_max":608,"o":"m 85 0 q 60 25 60 0 l 60 60 q 69 86 60 75 l 482 631 l 90 631 q 72 635 76 631 q 67 654 67 640 l 67 689 q 72 708 67 703 q 90 714 76 714 l 576 714 q 597 708 592 714 q 601 689 601 703 l 601 654 q 592 625 601 640 l 179 85 l 583 85 q 608 60 608 85 l 608 25 q 583 0 608 0 l 85 0 z "},"{":{"ha":481,"x_min":26,"x_max":443,"o":"m 354 -356 q 216 -313 257 -356 q 175 -178 175 -271 l 175 160 q 61 293 175 293 l 47 293 q 26 317 26 293 l 26 363 q 47 388 26 388 l 61 388 q 175 521 175 388 l 175 860 q 216 995 175 953 q 353 1038 257 1038 l 418 1038 q 443 1013 443 1038 l 443 978 q 418 953 443 953 l 356 953 q 264 856 264 953 l 264 508 q 171 340 264 382 q 264 171 264 306 l 264 -172 q 356 -269 264 -269 l 418 -269 q 443 -294 443 -269 l 443 -331 q 418 -356 443 -356 l 354 -356 z "},"|":{"ha":311,"x_min":111,"x_max":200,"o":"m 136 -204 q 111 -179 111 -204 l 111 1164 q 136 1189 111 1189 l 175 1189 q 194 1183 189 1189 q 200 1164 200 1178 l 200 -179 q 194 -199 200 -194 q 175 -204 189 -204 l 136 -204 z "},"}":{"ha":481,"x_min":38,"x_max":454,"o":"m 63 -356 q 38 -331 38 -356 l 38 -294 q 63 -269 38 -269 l 125 -269 q 215 -172 215 -269 l 215 171 q 310 340 215 306 q 215 508 215 381 l 215 856 q 125 953 215 953 l 63 953 q 42 958 47 953 q 38 978 38 964 l 38 1013 q 42 1033 38 1028 q 63 1038 47 1038 l 128 1038 q 264 995 224 1038 q 304 860 304 953 l 304 521 q 331 422 304 456 q 419 388 357 388 l 433 388 q 454 363 454 388 l 454 317 q 433 293 454 293 l 419 293 q 331 259 357 293 q 304 160 304 225 l 304 -178 q 264 -313 304 -271 q 126 -356 224 -356 l 63 -356 z "},"~":{"ha":814,"x_min":93,"x_max":724,"o":"m 536 378 q 406 406 479 378 q 289 435 332 435 q 176 388 231 435 q 140 389 157 369 l 114 413 q 114 451 93 433 q 279 519 192 519 q 410 491 336 519 q 526 463 485 463 q 640 510 589 463 q 659 520 651 521 q 676 508 667 519 l 701 485 q 701 446 724 464 q 536 378 626 378 z "}," ":{"ha":364,"x_min":0,"x_max":0,"o":""},"¡":{"ha":308,"x_min":93,"x_max":214,"o":"m 150 721 l 158 721 q 202 708 190 721 q 214 664 214 696 l 214 656 q 202 611 214 624 q 158 599 190 599 l 150 599 q 106 611 118 599 q 93 656 93 624 l 93 664 q 106 709 93 697 q 150 721 118 721 m 142 478 l 167 478 q 192 453 190 478 l 203 -292 q 178 -317 204 -317 l 131 -317 q 106 -292 104 -317 l 117 453 q 142 478 117 478 z "},"¢":{"ha":778,"x_min":93,"x_max":700,"o":"m 372 -117 q 347 -92 347 -117 l 347 -17 q 158 64 224 -7 q 93 254 93 135 l 93 461 q 158 649 93 578 q 347 731 222 719 l 347 822 q 372 847 347 847 l 417 847 q 442 822 442 847 l 442 731 q 688 547 636 715 q 671 511 696 521 l 635 499 q 599 515 610 490 q 529 619 578 586 q 393 651 481 651 q 239 602 292 651 q 186 464 186 553 l 186 251 q 240 113 186 163 q 393 63 293 63 q 601 206 557 63 q 638 222 610 229 l 674 211 q 690 175 700 201 q 442 -15 633 0 l 442 -92 q 417 -117 442 -117 l 372 -117 z "},"£":{"ha":918,"x_min":72,"x_max":836,"o":"m 99 0 q 78 6 83 0 q 72 28 72 13 l 72 68 q 89 90 72 90 l 111 90 q 186 138 163 96 q 210 236 210 179 l 210 426 l 111 426 q 83 453 83 426 l 83 486 q 90 508 83 501 q 111 514 96 514 l 210 514 l 210 740 q 286 931 210 856 q 510 1006 363 1006 q 710 954 633 1006 q 828 792 788 903 q 810 757 836 767 l 768 742 q 746 740 751 736 q 732 758 740 743 q 649 878 700 843 q 513 913 597 913 q 365 864 414 913 q 315 736 315 815 l 315 514 l 672 514 q 694 508 688 514 q 700 486 700 501 l 700 453 q 672 426 700 426 l 315 426 l 315 238 q 246 89 315 138 l 246 85 q 425 93 332 93 l 797 93 q 819 88 813 93 q 825 67 825 82 l 825 28 q 819 6 825 13 q 797 0 813 0 l 99 0 z "},"¤":{"ha":869,"x_min":89,"x_max":781,"o":"m 140 140 l 110 171 q 110 206 92 189 l 185 281 q 119 467 119 364 q 183 651 119 572 l 108 728 q 108 763 89 744 l 139 793 q 174 793 156 811 l 249 718 q 435 782 331 782 q 619 719 540 782 l 693 794 q 729 794 713 811 l 760 764 q 760 729 778 747 l 685 654 q 750 467 750 574 q 688 282 750 364 l 761 208 q 761 172 781 192 l 732 143 q 696 143 713 124 l 621 217 q 435 151 540 151 q 250 215 332 151 l 175 140 q 140 140 158 121 m 272 303 q 306 270 272 303 q 435 238 339 238 q 597 305 531 238 q 664 468 664 372 q 598 630 664 564 q 435 696 532 696 q 272 630 339 696 q 206 468 206 564 q 272 303 206 369 z "},"¥":{"ha":922,"x_min":46,"x_max":876,"o":"m 438 0 q 411 28 411 0 l 411 211 l 200 211 q 181 216 186 211 q 176 235 176 221 l 176 260 q 200 285 176 285 l 411 285 l 411 411 l 200 411 q 176 436 176 411 l 176 461 q 181 480 176 475 q 200 485 186 485 l 375 485 l 61 958 q 76 986 46 986 l 126 986 q 161 983 151 986 q 179 963 171 979 l 464 519 l 747 963 q 765 983 756 979 q 800 986 775 986 l 847 986 q 861 958 876 986 l 549 485 l 721 485 q 740 480 735 485 q 744 461 744 475 l 744 436 q 721 411 744 411 l 511 411 l 511 285 l 721 285 q 744 260 744 285 l 744 235 q 740 216 744 221 q 721 211 735 211 l 511 211 l 511 28 q 485 0 511 0 l 438 0 z "},"¦":{"ha":325,"x_min":118,"x_max":207,"o":"m 143 599 q 123 603 128 599 q 118 624 118 608 l 118 1164 q 123 1183 118 1178 q 143 1189 128 1189 l 182 1189 q 207 1164 207 1189 l 207 624 q 182 599 207 599 l 143 599 m 143 -203 q 123 -197 128 -203 q 118 -178 118 -192 l 118 363 q 123 383 118 378 q 143 388 128 388 l 182 388 q 207 363 207 388 l 207 -178 q 182 -203 207 -203 l 143 -203 z "},"§":{"ha":864,"x_min":81,"x_max":775,"o":"m 435 -308 q 88 -78 169 -308 q 107 -42 81 -51 l 146 -28 q 183 -46 172 -17 q 435 -215 243 -215 q 615 -172 556 -215 q 675 -54 675 -129 q 660 10 675 -17 q 626 53 646 38 q 569 78 607 68 q 505 93 532 89 q 429 101 478 97 q 349 111 376 107 q 274 126 321 115 q 200 151 226 136 q 145 192 174 167 q 104 254 117 217 q 92 340 92 292 q 236 551 92 478 q 101 757 101 604 q 183 943 101 874 q 428 1013 265 1013 q 763 789 678 1013 q 747 751 775 765 l 708 733 q 669 749 682 722 q 428 917 607 917 q 204 757 204 917 q 219 692 204 719 q 252 650 233 665 q 308 624 271 635 q 372 608 346 613 q 446 599 397 604 q 538 585 501 592 q 622 561 575 578 q 697 520 669 544 q 745 454 725 496 q 765 357 765 413 q 640 154 765 231 q 775 -53 775 101 q 688 -238 775 -168 q 435 -308 601 -308 m 546 182 q 664 349 664 244 q 650 410 664 383 q 615 451 636 436 q 560 478 594 467 q 497 494 526 489 q 425 504 467 500 q 328 518 358 513 q 194 353 194 468 q 209 288 194 315 q 244 245 224 261 q 300 219 264 229 q 366 203 336 208 q 442 194 396 199 q 546 182 514 189 z "},"¨":{"ha":646,"x_min":135,"x_max":503,"o":"m 179 854 q 144 863 153 854 q 135 899 135 872 l 135 910 q 144 944 135 935 q 179 954 153 954 l 188 954 q 224 944 214 954 q 233 910 233 935 l 233 899 q 224 863 233 872 q 188 854 214 854 l 179 854 m 449 854 q 413 863 422 854 q 403 899 403 872 l 403 910 q 413 944 403 935 q 449 954 422 954 l 457 954 q 493 944 483 954 q 503 910 503 935 l 503 899 q 493 863 503 872 q 457 854 483 854 l 449 854 z "},"©":{"ha":1157,"x_min":81,"x_max":1076,"o":"m 581 -11 q 213 121 344 -11 q 81 488 81 253 q 213 854 81 722 q 581 986 344 986 q 945 854 814 986 q 1076 488 1076 722 q 945 121 1076 253 q 581 -11 814 -11 m 581 47 q 901 164 786 47 q 1017 488 1017 281 q 901 810 1017 694 q 581 926 786 926 q 256 810 372 926 q 140 488 140 694 q 256 164 140 281 q 581 47 372 47 m 575 206 q 416 258 472 206 q 360 403 360 311 l 360 563 q 415 708 360 656 q 575 760 471 760 q 783 624 742 760 q 772 597 790 603 l 747 589 q 722 601 729 582 q 674 675 707 653 q 575 697 640 697 q 426 563 426 697 l 426 403 q 464 303 426 339 q 575 268 501 268 q 673 292 638 268 q 724 369 708 317 q 751 382 731 389 l 772 374 q 786 347 793 367 q 575 206 740 206 z "},"ª":{"ha":547,"x_min":92,"x_max":449,"o":"m 268 493 q 131 524 171 493 q 92 615 92 554 q 133 711 92 679 q 271 743 174 743 q 375 738 342 743 l 375 764 q 352 842 375 817 q 274 868 329 868 q 165 813 207 868 q 139 808 154 803 l 118 819 q 107 850 93 832 q 275 931 163 931 q 409 886 369 931 q 449 758 449 842 l 449 585 q 439 540 449 553 q 403 514 429 526 q 268 493 358 493 m 265 551 q 354 564 324 551 q 375 597 375 572 l 375 682 q 268 689 331 689 q 187 671 210 689 q 164 618 164 653 q 265 551 164 551 z "},"«":{"ha":819,"x_min":58,"x_max":743,"o":"m 347 74 l 72 349 q 72 381 58 364 l 351 660 q 383 660 369 675 l 411 632 q 411 600 426 615 l 178 367 l 410 135 q 410 103 425 119 l 381 74 q 347 74 364 58 m 665 74 l 390 349 q 390 381 375 364 l 669 660 q 701 660 686 675 l 728 632 q 728 600 743 615 l 494 367 l 726 135 q 726 103 743 119 l 697 74 q 665 74 682 58 z "},"¬":{"ha":842,"x_min":106,"x_max":735,"o":"m 665 194 q 640 218 640 194 l 640 453 l 131 453 q 106 478 106 453 l 106 515 q 131 540 106 540 l 710 540 q 735 515 735 540 l 735 218 q 710 194 735 194 l 665 194 z "},"®":{"ha":704,"x_min":83,"x_max":622,"o":"m 354 447 q 155 518 226 447 q 83 717 83 589 q 155 915 83 844 q 354 986 226 986 q 551 915 481 986 q 622 717 622 843 q 551 519 622 590 q 354 447 481 447 m 356 486 q 522 547 463 486 q 582 717 582 608 q 522 885 582 825 q 356 946 463 946 q 186 885 247 946 q 125 717 125 825 q 186 547 125 608 q 356 486 247 486 m 256 576 q 244 586 244 576 l 244 843 q 260 857 244 857 l 382 857 q 453 833 426 857 q 479 765 479 808 q 417 681 479 696 l 468 592 q 460 576 481 576 l 440 576 q 422 586 428 576 l 371 676 l 286 676 l 286 586 q 275 576 286 576 l 256 576 m 286 714 l 381 714 q 436 765 436 714 q 381 817 436 817 l 286 817 l 286 714 z "},"¯":{"ha":525,"x_min":74,"x_max":449,"o":"m 97 871 q 78 876 83 871 q 74 894 74 881 l 74 915 q 79 934 74 929 q 97 939 85 939 l 425 939 q 444 934 439 939 q 449 915 449 929 l 449 894 q 444 876 449 881 q 425 871 439 871 l 97 871 z "},"°":{"ha":574,"x_min":76,"x_max":497,"o":"m 288 560 q 138 622 200 560 q 76 771 76 683 q 138 919 76 858 q 288 981 200 981 q 436 920 375 981 q 497 771 497 860 q 435 622 497 685 q 288 560 374 560 m 288 636 q 383 676 343 636 q 422 771 422 715 q 383 866 422 826 q 288 906 343 906 q 192 866 232 906 q 153 771 153 826 q 192 675 153 714 q 288 636 231 636 z "},"±":{"ha":922,"x_min":133,"x_max":789,"o":"m 446 325 q 425 331 431 325 q 419 353 419 338 l 419 508 l 161 508 q 140 515 146 508 q 133 536 133 521 l 133 563 q 140 584 133 578 q 161 590 146 590 l 419 590 l 419 751 q 425 773 419 767 q 446 779 431 779 l 476 779 q 498 773 492 779 q 504 751 504 767 l 504 590 l 761 590 q 783 584 776 590 q 789 563 789 578 l 789 536 q 783 515 789 521 q 761 508 776 508 l 504 508 l 504 353 q 498 331 504 338 q 476 325 492 325 l 446 325 m 161 160 q 133 186 133 160 l 133 213 q 140 234 133 228 q 161 240 146 240 l 761 240 q 783 234 776 240 q 789 213 789 228 l 789 186 q 761 160 789 160 l 161 160 z "},"´":{"ha":393,"x_min":42,"x_max":367,"o":"m 101 822 q 68 824 79 813 l 56 840 q 58 868 42 858 l 282 1007 q 329 1006 313 1024 l 350 981 q 346 951 367 960 l 101 822 z "},"µ":{"ha":796,"x_min":106,"x_max":693,"o":"m 129 -306 q 106 -281 106 -306 l 106 689 q 131 714 106 714 l 174 714 q 194 708 189 714 q 199 689 199 703 l 199 254 q 393 64 199 64 q 575 94 492 64 q 600 133 600 106 l 600 689 q 606 708 600 703 q 625 714 611 714 l 668 714 q 693 689 693 714 l 693 103 q 682 55 693 71 q 640 25 671 39 q 400 -21 525 -21 q 199 75 254 -21 l 199 -281 q 194 -300 199 -294 q 174 -306 189 -306 l 129 -306 z "},"¶":{"ha":632,"x_min":79,"x_max":514,"o":"m 289 -124 q 269 -119 275 -124 q 264 -99 264 -114 l 264 608 q 131 663 182 611 q 79 796 79 714 q 132 933 79 881 q 269 986 185 986 l 489 986 q 514 961 514 986 l 514 -99 q 489 -124 514 -124 l 450 -124 q 425 -99 425 -124 l 425 892 l 350 892 l 350 -99 q 344 -119 350 -114 q 325 -124 339 -124 l 289 -124 z "},"·":{"ha":329,"x_min":104,"x_max":225,"o":"m 161 318 q 117 330 129 318 q 104 374 104 342 l 104 383 q 117 428 104 415 q 161 440 129 440 l 169 440 q 213 428 201 440 q 225 383 225 415 l 225 374 q 213 330 225 342 q 169 318 201 318 l 161 318 z "},"¸":{"ha":385,"x_min":54,"x_max":350,"o":"m 182 -342 q 71 -315 115 -342 q 54 -287 54 -306 l 54 -261 q 68 -251 54 -243 q 171 -283 114 -283 q 242 -262 217 -283 q 267 -206 267 -242 q 183 -147 267 -147 q 138 -153 156 -147 q 121 -149 125 -154 q 122 -129 117 -143 l 172 0 l 231 0 l 193 -103 q 229 -99 210 -99 q 317 -129 285 -99 q 347 -210 350 -160 q 298 -309 343 -276 q 182 -342 253 -342 z "},"º":{"ha":554,"x_min":92,"x_max":463,"o":"m 276 494 q 140 538 188 494 q 92 660 92 582 l 92 764 q 140 886 92 842 q 276 931 188 931 q 415 886 367 931 q 463 764 463 842 l 463 660 q 415 538 463 582 q 276 494 367 494 m 195 588 q 209 575 195 588 q 276 563 224 563 q 358 588 329 563 q 386 657 386 613 l 386 768 q 358 838 386 813 q 276 863 329 863 q 195 838 224 863 q 167 768 167 813 l 167 657 q 195 588 167 613 z "},"»":{"ha":819,"x_min":75,"x_max":760,"o":"m 439 74 l 410 103 q 410 135 393 119 l 642 367 l 408 600 q 408 632 393 615 l 436 660 q 468 660 453 678 l 746 381 q 746 349 760 364 l 471 74 q 439 74 454 58 m 121 74 l 92 103 q 92 135 76 119 l 324 367 l 90 600 q 90 632 75 617 l 118 660 q 150 660 133 675 l 429 381 q 429 349 443 364 l 154 74 q 121 74 138 58 z "},"¼":{"ha":1128,"x_min":51,"x_max":1063,"o":"m 294 442 q 274 447 279 442 q 268 468 268 453 l 268 892 l 114 807 q 76 815 89 792 l 64 836 q 76 874 51 860 l 271 983 q 304 992 288 992 l 319 992 q 341 985 335 992 q 347 964 347 979 l 347 468 q 319 442 347 442 l 294 442 m 192 0 q 174 8 178 0 q 179 28 169 17 l 867 963 q 885 982 876 978 q 917 986 894 986 l 953 986 q 971 978 967 986 q 967 960 975 971 l 279 25 q 259 4 268 8 q 225 0 250 0 l 192 0 m 929 0 q 913 5 917 0 q 908 24 908 10 l 908 142 l 643 142 q 624 147 629 142 q 619 167 619 153 l 619 185 q 628 214 619 203 l 890 535 q 925 550 901 550 l 958 550 q 979 545 975 550 q 983 525 983 540 l 983 210 l 1039 210 q 1058 206 1054 210 q 1063 188 1063 201 l 1063 164 q 1058 146 1063 150 q 1039 142 1054 142 l 983 142 l 983 24 q 979 5 983 10 q 961 0 975 0 l 929 0 m 711 210 l 908 210 l 908 451 l 711 210 z "},"½":{"ha":1204,"x_min":53,"x_max":1128,"o":"m 294 446 q 273 452 279 446 q 267 474 267 458 l 267 897 l 114 811 q 75 821 89 799 l 64 840 q 75 878 53 864 l 271 988 q 303 996 282 996 l 319 996 q 346 969 346 996 l 346 474 q 319 446 346 446 l 294 446 m 188 0 q 169 8 174 0 q 175 28 165 17 l 863 963 q 881 982 872 978 q 913 986 890 986 l 949 986 q 967 978 963 986 q 963 960 971 971 l 275 25 q 255 4 264 8 q 221 0 246 0 l 188 0 m 764 0 q 736 26 736 0 l 736 81 q 762 188 736 147 q 847 250 788 228 l 929 282 q 947 289 933 283 q 965 296 961 294 q 981 302 969 297 q 997 310 993 307 q 1010 318 1001 313 q 1023 328 1019 324 q 1032 340 1026 333 q 1040 354 1038 347 q 1044 370 1042 361 q 1046 390 1046 379 q 1018 460 1046 433 q 938 486 990 486 q 894 479 914 486 q 863 463 875 472 q 841 441 850 454 q 828 418 832 428 q 819 399 824 408 q 815 388 815 389 q 802 369 808 372 q 781 369 796 365 l 757 378 q 740 413 729 386 q 939 561 794 561 q 1078 514 1029 561 q 1128 393 1128 467 q 1088 284 1128 319 q 964 221 1049 249 l 883 193 q 813 107 813 168 l 813 74 l 1097 74 q 1121 49 1121 74 l 1121 24 q 1097 0 1121 0 l 764 0 z "},"¾":{"ha":1179,"x_min":67,"x_max":1117,"o":"m 288 436 q 149 472 199 436 q 75 581 99 507 q 89 615 67 607 l 113 624 q 147 606 139 631 q 195 531 164 554 q 288 507 226 507 q 374 532 344 507 q 403 600 403 557 q 381 665 403 639 q 319 690 358 690 l 236 690 q 216 694 221 690 q 211 714 211 699 l 211 736 q 216 757 211 753 q 238 761 221 761 l 314 761 q 371 784 351 761 q 390 844 390 807 q 364 911 390 886 q 289 936 338 936 q 199 913 232 936 q 151 838 167 889 q 137 816 144 819 q 111 818 129 813 l 93 824 q 78 860 68 833 q 151 972 101 936 q 288 1008 201 1008 q 419 966 372 1008 q 465 851 465 924 q 400 732 465 765 q 482 592 482 693 q 433 478 482 519 q 288 436 383 436 m 247 0 q 229 8 233 0 q 235 28 225 17 l 922 963 q 942 982 933 978 q 972 986 950 986 l 1008 986 q 1026 978 1022 986 q 1022 960 1031 971 l 335 25 q 315 4 324 8 q 281 0 306 0 l 247 0 m 983 0 q 965 5 969 0 q 961 24 961 10 l 961 142 l 697 142 q 678 147 683 142 q 674 167 674 153 l 674 185 q 682 214 674 204 l 943 535 q 979 550 956 550 l 1013 550 q 1033 545 1029 550 q 1038 525 1038 540 l 1038 210 l 1093 210 q 1113 206 1108 210 q 1117 188 1117 201 l 1117 164 q 1113 146 1117 150 q 1093 142 1108 142 l 1038 142 l 1038 24 q 1033 5 1038 10 q 1015 0 1029 0 l 983 0 m 764 210 l 961 210 l 961 451 l 764 210 z "},"¿":{"ha":804,"x_min":58,"x_max":751,"o":"m 436 721 q 481 709 468 721 q 493 664 493 697 l 493 656 q 481 611 493 624 q 436 599 468 599 l 429 599 q 384 611 396 599 q 372 656 372 624 l 372 664 q 384 709 372 697 q 429 721 396 721 l 436 721 m 450 496 q 469 490 464 496 q 475 469 475 485 q 451 353 475 404 q 399 278 426 303 q 324 221 372 254 q 260 178 279 192 q 212 133 242 164 q 169 63 182 101 q 157 -25 157 25 q 219 -170 157 -114 q 392 -226 282 -226 q 651 -56 581 -226 q 665 -37 658 -40 q 686 -39 671 -33 l 725 -51 q 742 -86 751 -61 q 390 -315 654 -315 q 147 -234 236 -315 q 58 -29 58 -153 q 72 68 58 24 q 99 140 85 113 q 147 198 113 167 q 194 239 181 229 q 250 275 208 249 q 267 286 261 282 q 359 366 328 326 q 390 469 390 406 q 396 490 390 485 q 417 496 401 496 l 450 496 z "},"À":{"ha":926,"x_min":24,"x_max":901,"o":"m 568 1067 l 319 1190 q 317 1219 299 1199 l 336 1244 q 383 1247 351 1263 l 611 1111 q 614 1083 629 1103 l 600 1068 q 568 1067 592 1057 m 53 0 q 35 26 24 0 l 407 967 q 442 990 415 990 l 483 990 q 518 968 511 990 l 890 26 q 872 0 901 0 l 832 0 q 782 24 789 0 l 678 289 l 243 289 l 139 24 q 124 5 133 10 q 89 0 114 0 l 53 0 m 272 372 l 650 372 l 482 799 q 471 842 475 819 q 464 881 467 865 l 463 896 l 457 896 l 456 881 q 450 843 454 865 q 439 800 446 821 l 272 372 z "},"Á":{"ha":926,"x_min":24,"x_max":901,"o":"m 363 1061 q 329 1064 339 1053 l 317 1079 q 319 1107 301 1099 l 543 1247 q 590 1244 575 1263 l 611 1219 q 607 1190 628 1199 l 363 1061 m 53 0 q 35 26 24 0 l 407 967 q 442 990 415 990 l 483 990 q 518 968 511 990 l 890 26 q 872 0 901 0 l 832 0 q 782 24 789 0 l 678 289 l 243 289 l 139 24 q 124 5 133 10 q 89 0 114 0 l 53 0 m 272 372 l 650 372 l 482 799 q 471 842 475 819 q 464 881 467 865 l 463 896 l 457 896 l 456 881 q 450 843 454 865 q 439 800 446 821 l 272 372 z "},"Â":{"ha":926,"x_min":24,"x_max":901,"o":"m 251 1060 q 239 1079 219 1060 l 410 1229 q 433 1248 425 1244 q 458 1251 440 1251 l 469 1251 q 494 1248 486 1251 q 517 1229 501 1244 l 688 1079 q 693 1066 696 1072 q 675 1060 690 1060 l 636 1060 q 596 1074 608 1060 l 463 1189 l 326 1074 q 288 1060 313 1060 l 251 1060 m 53 0 q 35 26 24 0 l 407 967 q 442 990 415 990 l 483 990 q 518 968 511 990 l 890 26 q 872 0 901 0 l 832 0 q 782 24 789 0 l 678 289 l 243 289 l 139 24 q 124 5 133 10 q 89 0 114 0 l 53 0 m 272 372 l 650 372 l 482 799 q 471 842 475 819 q 464 881 467 865 l 463 896 l 457 896 l 456 881 q 450 843 454 865 q 439 800 446 821 l 272 372 z "},"Ã":{"ha":926,"x_min":24,"x_max":901,"o":"m 261 1069 q 244 1086 244 1069 q 353 1225 244 1225 q 431 1201 394 1225 q 497 1155 467 1178 q 558 1132 528 1132 q 614 1208 614 1132 q 629 1225 614 1225 l 657 1225 q 672 1208 672 1225 q 565 1069 672 1069 q 490 1093 525 1069 q 423 1140 454 1117 q 361 1163 392 1163 q 304 1086 304 1163 q 289 1069 304 1069 l 261 1069 m 53 0 q 35 26 24 0 l 407 967 q 442 990 415 990 l 483 990 q 518 968 511 990 l 890 26 q 872 0 901 0 l 832 0 q 782 24 789 0 l 678 289 l 243 289 l 139 24 q 124 5 133 10 q 89 0 114 0 l 53 0 m 272 372 l 650 372 l 482 799 q 471 842 475 819 q 464 881 467 865 l 463 896 l 457 896 l 456 881 q 450 843 454 865 q 439 800 446 821 l 272 372 z "},"Ä":{"ha":926,"x_min":24,"x_max":901,"o":"m 324 1100 q 288 1110 297 1100 q 279 1144 279 1119 l 279 1156 q 288 1190 279 1181 q 324 1200 297 1200 l 332 1200 q 368 1190 358 1200 q 378 1156 378 1181 l 378 1144 q 368 1110 378 1119 q 332 1100 358 1100 l 324 1100 m 593 1100 q 557 1110 567 1100 q 547 1144 547 1119 l 547 1156 q 557 1190 547 1181 q 593 1200 567 1200 l 601 1200 q 638 1190 628 1200 q 647 1156 647 1181 l 647 1144 q 638 1110 647 1119 q 601 1100 628 1100 l 593 1100 m 53 0 q 35 26 24 0 l 407 967 q 442 990 415 990 l 483 990 q 518 968 511 990 l 890 26 q 872 0 901 0 l 832 0 q 782 24 789 0 l 678 289 l 243 289 l 139 24 q 124 5 133 10 q 89 0 114 0 l 53 0 m 272 372 l 650 372 l 482 799 q 471 842 475 819 q 464 881 467 865 l 463 896 l 457 896 l 456 881 q 450 843 454 865 q 439 800 446 821 l 272 372 z "},"Å":{"ha":926,"x_min":24,"x_max":901,"o":"m 53 0 q 35 26 24 0 l 401 954 q 313 1082 313 983 q 354 1189 313 1149 q 465 1229 396 1229 q 573 1189 532 1229 q 614 1082 614 1149 q 590 999 614 1033 q 525 953 567 965 l 890 26 q 872 0 901 0 l 832 0 q 782 24 789 0 l 678 289 l 243 289 l 139 24 q 124 5 133 10 q 89 0 114 0 l 53 0 m 465 992 q 531 1017 506 992 q 556 1082 556 1042 q 531 1148 556 1124 q 465 1172 506 1172 q 395 1148 421 1172 q 369 1082 369 1124 q 396 1017 369 1042 q 465 992 422 992 m 272 372 l 650 372 l 482 799 q 471 842 475 819 q 464 881 467 865 l 463 896 l 457 896 l 456 881 q 450 843 454 865 q 439 800 446 821 l 272 372 z "},"Æ":{"ha":1189,"x_min":4,"x_max":1119,"o":"m 33 0 q 15 26 4 0 l 590 963 q 626 986 604 986 l 1075 986 q 1101 958 1101 986 l 1101 919 q 1096 899 1101 904 q 1075 893 1090 893 l 701 893 l 701 546 l 1013 546 q 1039 518 1039 546 l 1039 479 q 1033 458 1039 464 q 1013 453 1028 453 l 701 453 l 701 93 l 1092 93 q 1113 88 1107 93 q 1119 67 1119 82 l 1119 28 q 1113 6 1119 13 q 1092 0 1107 0 l 632 0 q 610 6 617 0 q 604 28 604 13 l 604 243 l 257 243 l 126 24 q 108 5 117 10 q 76 0 100 0 l 33 0 m 308 326 l 604 326 l 604 819 l 308 326 z "},"Ç":{"ha":919,"x_min":97,"x_max":858,"o":"m 454 -342 q 343 -315 388 -342 q 326 -287 326 -306 l 326 -261 q 340 -251 326 -243 q 443 -283 386 -283 q 514 -262 489 -283 q 539 -206 539 -242 q 456 -147 539 -147 q 410 -153 428 -147 q 393 -149 397 -154 q 394 -129 389 -143 l 439 -19 q 186 83 275 -10 q 97 329 97 175 l 97 657 q 195 913 97 821 q 478 1006 293 1006 q 722 947 633 1006 q 847 768 810 888 q 849 745 853 753 q 831 732 846 738 l 788 718 q 766 717 774 714 q 753 735 758 719 q 658 869 722 826 q 478 913 594 913 q 270 846 342 913 q 199 658 199 779 l 199 328 q 271 141 199 208 q 478 74 343 74 q 661 118 597 74 q 754 257 725 163 q 790 274 765 282 l 832 258 q 850 224 858 249 q 730 45 813 106 q 497 -19 647 -15 l 465 -103 q 501 -99 481 -99 q 590 -129 557 -99 q 619 -210 622 -160 q 570 -309 615 -276 q 454 -342 525 -342 z "},"È":{"ha":832,"x_min":126,"x_max":761,"o":"m 540 1067 l 292 1190 q 289 1219 271 1199 l 308 1244 q 356 1247 324 1263 l 583 1111 q 586 1083 601 1103 l 572 1068 q 540 1067 564 1057 m 153 0 q 126 28 126 0 l 126 958 q 153 986 126 986 l 717 986 q 743 958 743 986 l 743 919 q 738 899 743 904 q 717 893 732 893 l 226 893 l 226 547 l 654 547 q 681 519 681 547 l 681 481 q 654 453 681 453 l 226 453 l 226 93 l 733 93 q 755 88 749 93 q 761 67 761 82 l 761 28 q 755 6 761 13 q 733 0 749 0 l 153 0 z "},"É":{"ha":832,"x_min":126,"x_max":761,"o":"m 335 1061 q 301 1064 311 1053 l 289 1079 q 292 1107 274 1099 l 515 1247 q 563 1244 547 1263 l 583 1219 q 579 1190 600 1199 l 335 1061 m 153 0 q 126 28 126 0 l 126 958 q 153 986 126 986 l 717 986 q 743 958 743 986 l 743 919 q 738 899 743 904 q 717 893 732 893 l 226 893 l 226 547 l 654 547 q 681 519 681 547 l 681 481 q 654 453 681 453 l 226 453 l 226 93 l 733 93 q 755 88 749 93 q 761 67 761 82 l 761 28 q 755 6 761 13 q 733 0 749 0 l 153 0 z "},"Ê":{"ha":832,"x_min":126,"x_max":761,"o":"m 225 1060 q 213 1079 193 1060 l 383 1229 q 406 1248 399 1244 q 432 1251 414 1251 l 443 1251 q 467 1248 460 1251 q 490 1229 475 1244 l 661 1079 q 667 1066 669 1072 q 649 1060 664 1060 l 610 1060 q 569 1074 582 1060 l 436 1189 l 300 1074 q 261 1060 286 1060 l 225 1060 m 153 0 q 126 28 126 0 l 126 958 q 153 986 126 986 l 717 986 q 743 958 743 986 l 743 919 q 738 899 743 904 q 717 893 732 893 l 226 893 l 226 547 l 654 547 q 681 519 681 547 l 681 481 q 654 453 681 453 l 226 453 l 226 93 l 733 93 q 755 88 749 93 q 761 67 761 82 l 761 28 q 755 6 761 13 q 733 0 749 0 l 153 0 z "},"Ë":{"ha":832,"x_min":126,"x_max":761,"o":"m 296 1100 q 260 1110 269 1100 q 251 1144 251 1119 l 251 1156 q 260 1190 251 1181 q 296 1200 269 1200 l 304 1200 q 340 1190 331 1200 q 350 1156 350 1181 l 350 1144 q 340 1110 350 1119 q 304 1100 331 1100 l 296 1100 m 565 1100 q 529 1110 539 1100 q 519 1144 519 1119 l 519 1156 q 529 1190 519 1181 q 565 1200 539 1200 l 574 1200 q 610 1190 600 1200 q 619 1156 619 1181 l 619 1144 q 610 1110 619 1119 q 574 1100 600 1100 l 565 1100 m 153 0 q 126 28 126 0 l 126 958 q 153 986 126 986 l 717 986 q 743 958 743 986 l 743 919 q 738 899 743 904 q 717 893 732 893 l 226 893 l 226 547 l 654 547 q 681 519 681 547 l 681 481 q 654 453 681 453 l 226 453 l 226 93 l 733 93 q 755 88 749 93 q 761 67 761 82 l 761 28 q 755 6 761 13 q 733 0 749 0 l 153 0 z "},"Ì":{"ha":353,"x_min":11,"x_max":342,"o":"m 281 1067 l 32 1190 q 29 1219 11 1199 l 49 1244 q 96 1247 64 1263 l 324 1111 q 326 1083 342 1103 l 313 1068 q 281 1067 304 1057 m 153 0 q 126 28 126 0 l 126 958 q 153 986 126 986 l 200 986 q 226 958 226 986 l 226 28 q 200 0 226 0 l 153 0 z "},"Í":{"ha":353,"x_min":14,"x_max":340,"o":"m 75 1061 q 42 1064 51 1053 l 29 1079 q 32 1107 14 1099 l 256 1247 q 303 1244 288 1263 l 324 1219 q 319 1190 340 1199 l 75 1061 m 153 0 q 126 28 126 0 l 126 958 q 153 986 126 986 l 200 986 q 226 958 226 986 l 226 28 q 200 0 226 0 l 153 0 z "},"Î":{"ha":353,"x_min":-67,"x_max":410,"o":"m -35 1060 q -47 1079 -67 1060 l 124 1229 q 147 1248 139 1244 q 172 1251 154 1251 l 183 1251 q 208 1248 200 1251 q 231 1229 215 1244 l 401 1079 q 407 1066 410 1072 q 389 1060 404 1060 l 350 1060 q 310 1074 322 1060 l 176 1189 l 40 1074 q 1 1060 26 1060 l -35 1060 m 153 0 q 126 28 126 0 l 126 958 q 153 986 126 986 l 200 986 q 226 958 226 986 l 226 28 q 200 0 226 0 l 153 0 z "},"Ï":{"ha":353,"x_min":-7,"x_max":361,"o":"m 38 1100 q 2 1110 11 1100 q -7 1144 -7 1119 l -7 1156 q 2 1190 -7 1181 q 38 1200 11 1200 l 46 1200 q 82 1190 72 1200 q 92 1156 92 1181 l 92 1144 q 82 1110 92 1119 q 46 1100 72 1100 l 38 1100 m 307 1100 q 271 1110 281 1100 q 261 1144 261 1119 l 261 1156 q 271 1190 261 1181 q 307 1200 281 1200 l 315 1200 q 351 1190 342 1200 q 361 1156 361 1181 l 361 1144 q 351 1110 361 1119 q 315 1100 342 1100 l 307 1100 m 153 0 q 126 28 126 0 l 126 958 q 153 986 126 986 l 200 986 q 226 958 226 986 l 226 28 q 200 0 226 0 l 153 0 z "},"Ð":{"ha":958,"x_min":21,"x_max":865,"o":"m 169 0 q 148 6 154 0 q 142 28 142 13 l 142 467 l 40 467 q 21 486 21 467 l 21 515 q 40 535 21 535 l 142 535 l 142 958 q 148 980 142 974 q 169 986 154 986 l 463 986 q 760 888 654 986 q 865 619 865 790 l 865 367 q 760 98 865 196 q 463 0 654 0 l 169 0 m 242 93 l 464 93 q 687 165 608 93 q 765 367 765 236 l 765 619 q 688 822 765 750 q 464 893 610 893 l 242 893 l 242 535 l 482 535 q 500 515 500 535 l 500 486 q 482 467 500 467 l 242 467 l 242 93 z "},"Ñ":{"ha":994,"x_min":126,"x_max":869,"o":"m 297 1069 q 281 1086 281 1069 q 389 1225 281 1225 q 467 1201 431 1225 q 533 1155 503 1178 q 594 1132 564 1132 q 650 1208 650 1132 q 665 1225 650 1225 l 693 1225 q 708 1208 708 1225 q 601 1069 708 1069 q 526 1093 561 1069 q 459 1140 490 1117 q 397 1163 428 1163 q 340 1086 340 1163 q 325 1069 340 1069 l 297 1069 m 153 0 q 126 28 126 0 l 126 958 q 153 986 126 986 l 199 986 q 226 972 217 986 l 660 349 q 733 226 692 301 q 783 138 774 151 l 788 138 q 780 243 788 153 q 772 397 772 333 l 772 960 q 778 981 772 975 q 799 986 783 986 l 842 986 q 863 980 857 986 q 869 958 869 974 l 869 28 q 863 6 869 13 q 842 0 857 0 l 797 0 q 768 15 776 0 l 325 651 q 260 765 297 693 q 213 850 222 838 l 208 850 q 216 751 208 839 q 224 606 224 664 l 224 28 q 217 6 224 13 q 196 0 211 0 l 153 0 z "},"Ò":{"ha":957,"x_min":97,"x_max":860,"o":"m 583 1081 l 335 1204 q 332 1233 314 1213 l 351 1258 q 399 1261 367 1276 l 626 1125 q 629 1097 644 1117 l 615 1082 q 583 1081 607 1071 m 479 -19 q 196 73 294 -19 q 97 329 97 165 l 97 657 q 196 913 97 821 q 479 1006 294 1006 q 761 913 663 1006 q 860 657 860 821 l 860 329 q 761 73 860 165 q 479 -19 663 -19 m 270 140 q 307 107 270 140 q 479 74 343 74 q 688 140 615 74 q 760 329 760 207 l 760 657 q 688 846 760 779 q 479 913 615 913 q 270 846 343 913 q 197 657 197 779 l 197 329 q 270 140 197 207 z "},"Ó":{"ha":957,"x_min":97,"x_max":860,"o":"m 378 1075 q 344 1078 354 1067 l 332 1093 q 335 1121 317 1113 l 558 1261 q 606 1258 590 1276 l 626 1233 q 622 1204 643 1213 l 378 1075 m 479 -19 q 196 73 294 -19 q 97 329 97 165 l 97 657 q 196 913 97 821 q 479 1006 294 1006 q 761 913 663 1006 q 860 657 860 821 l 860 329 q 761 73 860 165 q 479 -19 663 -19 m 270 140 q 307 107 270 140 q 479 74 343 74 q 688 140 615 74 q 760 329 760 207 l 760 657 q 688 846 760 779 q 479 913 615 913 q 270 846 343 913 q 197 657 197 779 l 197 329 q 270 140 197 207 z "},"Ô":{"ha":957,"x_min":97,"x_max":860,"o":"m 268 1074 q 256 1093 236 1074 l 426 1243 q 449 1262 442 1258 q 475 1265 457 1265 l 486 1265 q 510 1262 503 1265 q 533 1243 518 1258 l 704 1093 q 710 1080 713 1086 q 692 1074 707 1074 l 653 1074 q 613 1088 625 1074 l 479 1203 l 343 1088 q 304 1074 329 1074 l 268 1074 m 479 -19 q 196 73 294 -19 q 97 329 97 165 l 97 657 q 196 913 97 821 q 479 1006 294 1006 q 761 913 663 1006 q 860 657 860 821 l 860 329 q 761 73 860 165 q 479 -19 663 -19 m 270 140 q 307 107 270 140 q 479 74 343 74 q 688 140 615 74 q 760 329 760 207 l 760 657 q 688 846 760 779 q 479 913 615 913 q 270 846 343 913 q 197 657 197 779 l 197 329 q 270 140 197 207 z "},"Õ":{"ha":957,"x_min":97,"x_max":860,"o":"m 278 1083 q 261 1100 261 1083 q 369 1239 261 1239 q 447 1215 411 1239 q 514 1169 483 1192 q 575 1146 544 1146 q 631 1222 631 1146 q 646 1239 631 1239 l 674 1239 q 689 1222 689 1239 q 582 1083 689 1083 q 506 1107 542 1083 q 440 1153 471 1131 q 378 1176 408 1176 q 321 1100 321 1176 q 306 1083 321 1083 l 278 1083 m 479 -19 q 196 73 294 -19 q 97 329 97 165 l 97 657 q 196 913 97 821 q 479 1006 294 1006 q 761 913 663 1006 q 860 657 860 821 l 860 329 q 761 73 860 165 q 479 -19 663 -19 m 270 140 q 307 107 270 140 q 479 74 343 74 q 688 140 615 74 q 760 329 760 207 l 760 657 q 688 846 760 779 q 479 913 615 913 q 270 846 343 913 q 197 657 197 779 l 197 329 q 270 140 197 207 z "},"Ö":{"ha":957,"x_min":97,"x_max":860,"o":"m 340 1114 q 305 1124 314 1114 q 296 1158 296 1133 l 296 1169 q 305 1204 296 1194 q 340 1214 314 1214 l 349 1214 q 385 1204 375 1214 q 394 1169 394 1194 l 394 1158 q 385 1124 394 1133 q 349 1114 375 1114 l 340 1114 m 610 1114 q 574 1124 583 1114 q 564 1158 564 1133 l 564 1169 q 574 1204 564 1194 q 610 1214 583 1214 l 618 1214 q 654 1204 644 1214 q 664 1169 664 1194 l 664 1158 q 654 1124 664 1133 q 618 1114 644 1114 l 610 1114 m 479 -19 q 196 73 294 -19 q 97 329 97 165 l 97 657 q 196 913 97 821 q 479 1006 294 1006 q 761 913 663 1006 q 860 657 860 821 l 860 329 q 761 73 860 165 q 479 -19 663 -19 m 270 140 q 307 107 270 140 q 479 74 343 74 q 688 140 615 74 q 760 329 760 207 l 760 657 q 688 846 760 779 q 479 913 615 913 q 270 846 343 913 q 197 657 197 779 l 197 329 q 270 140 197 207 z "},"×":{"ha":740,"x_min":89,"x_max":651,"o":"m 571 189 l 369 390 l 168 190 q 131 190 150 172 l 108 213 q 108 250 89 229 l 310 450 l 108 653 q 108 690 89 672 l 131 713 q 168 713 150 731 l 369 510 l 571 713 q 610 713 590 731 l 631 690 q 631 653 651 672 l 429 450 l 631 250 q 631 211 651 229 l 610 189 q 571 189 590 171 z "},"Ø":{"ha":957,"x_min":93,"x_max":876,"o":"m 106 -58 q 100 -49 93 -58 l 183 85 q 97 329 97 174 l 97 657 q 196 913 97 821 q 479 1006 294 1006 q 728 936 635 1006 l 790 1033 q 810 1043 799 1043 l 865 1043 q 869 1033 876 1043 l 781 893 q 860 657 860 806 l 860 329 q 761 74 860 165 q 479 -19 663 -18 q 238 42 331 -21 l 179 -49 q 158 -58 174 -58 l 106 -58 m 247 181 l 676 853 q 479 913 604 913 q 270 846 343 913 q 197 657 197 779 l 197 329 q 247 181 197 236 m 479 74 q 688 140 615 74 q 760 329 760 207 l 760 657 q 718 794 760 742 l 290 125 q 479 74 363 74 z "},"Ù":{"ha":983,"x_min":118,"x_max":865,"o":"m 596 1067 l 347 1190 q 344 1219 326 1199 l 364 1244 q 411 1247 379 1263 l 639 1111 q 642 1083 657 1103 l 628 1068 q 596 1067 619 1057 m 769 74 q 722 27 769 74 q 492 -21 674 -21 q 214 74 310 -21 q 118 336 118 169 l 118 958 q 124 980 118 974 q 146 986 131 986 l 192 986 q 213 980 207 986 q 219 958 219 974 l 219 335 q 288 142 219 211 q 492 72 357 72 q 695 142 626 72 q 764 335 764 211 l 764 958 q 770 980 764 974 q 792 986 776 986 l 838 986 q 859 980 853 986 q 865 958 865 974 l 865 336 q 769 74 865 169 z "},"Ú":{"ha":983,"x_min":118,"x_max":865,"o":"m 390 1061 q 357 1064 367 1053 l 344 1079 q 347 1107 329 1099 l 571 1247 q 618 1244 603 1263 l 639 1219 q 635 1190 656 1199 l 390 1061 m 769 74 q 722 27 769 74 q 492 -21 674 -21 q 214 74 310 -21 q 118 336 118 169 l 118 958 q 124 980 118 974 q 146 986 131 986 l 192 986 q 213 980 207 986 q 219 958 219 974 l 219 335 q 288 142 219 211 q 492 72 357 72 q 695 142 626 72 q 764 335 764 211 l 764 958 q 770 980 764 974 q 792 986 776 986 l 838 986 q 859 980 853 986 q 865 958 865 974 l 865 336 q 769 74 865 169 z "},"Û":{"ha":983,"x_min":118,"x_max":865,"o":"m 281 1060 q 268 1079 249 1060 l 439 1229 q 462 1248 454 1244 q 488 1251 469 1251 l 499 1251 q 523 1248 515 1251 q 546 1229 531 1244 l 717 1079 q 722 1066 725 1072 q 704 1060 719 1060 l 665 1060 q 625 1074 638 1060 l 492 1189 l 356 1074 q 317 1060 342 1060 l 281 1060 m 769 74 q 722 27 769 74 q 492 -21 674 -21 q 214 74 310 -21 q 118 336 118 169 l 118 958 q 124 980 118 974 q 146 986 131 986 l 192 986 q 213 980 207 986 q 219 958 219 974 l 219 335 q 288 142 219 211 q 492 72 357 72 q 695 142 626 72 q 764 335 764 211 l 764 958 q 770 980 764 974 q 792 986 776 986 l 838 986 q 859 980 853 986 q 865 958 865 974 l 865 336 q 769 74 865 169 z "},"Ü":{"ha":983,"x_min":118,"x_max":865,"o":"m 353 1100 q 317 1110 326 1100 q 308 1144 308 1119 l 308 1156 q 317 1190 308 1181 q 353 1200 326 1200 l 361 1200 q 397 1190 388 1200 q 407 1156 407 1181 l 407 1144 q 397 1110 407 1119 q 361 1100 388 1100 l 353 1100 m 622 1100 q 586 1110 596 1100 q 576 1144 576 1119 l 576 1156 q 586 1190 576 1181 q 622 1200 596 1200 l 631 1200 q 667 1190 657 1200 q 676 1156 676 1181 l 676 1144 q 667 1110 676 1119 q 631 1100 657 1100 l 622 1100 m 769 74 q 722 27 769 74 q 492 -21 674 -21 q 214 74 310 -21 q 118 336 118 169 l 118 958 q 124 980 118 974 q 146 986 131 986 l 192 986 q 213 980 207 986 q 219 958 219 974 l 219 335 q 288 142 219 211 q 492 72 357 72 q 695 142 626 72 q 764 335 764 211 l 764 958 q 770 980 764 974 q 792 986 776 986 l 838 986 q 859 980 853 986 q 865 958 865 974 l 865 336 q 769 74 865 169 z "},"Ý":{"ha":907,"x_min":32,"x_max":882,"o":"m 354 1061 q 321 1064 331 1053 l 308 1079 q 311 1107 293 1099 l 535 1247 q 582 1244 567 1263 l 603 1219 q 599 1190 619 1199 l 354 1061 m 431 0 q 409 6 415 0 q 403 28 403 13 l 403 401 l 40 958 q 36 978 32 969 q 54 986 40 986 l 111 986 q 146 982 136 986 q 164 963 156 978 l 454 504 l 747 963 q 765 983 756 979 q 800 986 775 986 l 853 986 q 867 958 882 986 l 503 400 l 503 28 q 476 0 503 0 l 431 0 z "},"Þ":{"ha":897,"x_min":126,"x_max":839,"o":"m 153 0 q 126 28 126 0 l 126 958 q 153 986 126 986 l 200 986 q 226 958 226 986 l 226 821 l 511 821 q 750 735 661 821 q 839 499 839 649 q 751 264 839 350 q 511 178 663 178 l 226 178 l 226 28 q 200 0 226 0 l 153 0 m 226 272 l 503 272 q 672 333 610 272 q 735 499 735 394 q 672 665 735 603 q 503 728 608 728 l 226 728 l 226 272 z "},"ß":{"ha":799,"x_min":111,"x_max":724,"o":"m 138 0 q 111 28 111 0 l 111 733 q 185 958 111 874 q 396 1042 260 1042 q 614 969 540 1042 q 688 763 688 897 q 657 631 688 692 q 561 542 626 569 l 561 538 q 724 285 724 488 q 649 73 724 146 q 438 0 575 0 l 324 0 q 297 28 297 0 l 297 65 q 324 93 297 93 l 428 93 q 572 144 522 93 q 622 294 622 196 q 573 435 622 383 q 436 486 524 486 l 328 486 q 307 492 313 486 q 301 514 301 499 l 301 550 q 307 571 301 565 q 328 576 313 576 l 429 576 q 549 630 508 576 q 589 754 589 683 q 394 949 589 949 q 253 891 303 949 q 204 733 204 833 l 204 28 q 198 6 204 13 q 176 0 192 0 l 138 0 z "},"à":{"ha":747,"x_min":69,"x_max":650,"o":"m 472 838 l 226 967 q 224 996 206 975 l 243 1021 q 290 1024 258 1039 l 515 883 q 518 856 533 875 l 504 840 q 472 838 496 829 m 369 -19 q 133 33 197 -19 q 69 196 69 85 q 140 362 69 314 q 375 410 210 410 q 557 396 474 410 l 557 461 q 516 601 557 551 q 369 651 475 651 q 174 551 232 651 q 140 539 161 531 l 107 553 q 93 589 81 563 q 372 735 171 735 q 588 660 526 735 q 650 460 650 586 l 650 96 q 640 44 650 60 q 600 17 629 29 q 369 -19 517 -19 m 363 58 q 531 81 474 58 q 552 94 547 88 q 557 121 557 101 l 557 322 q 365 335 432 335 q 209 303 254 335 q 164 197 164 271 q 206 92 164 126 q 363 58 247 58 z "},"á":{"ha":747,"x_min":69,"x_max":650,"o":"m 268 838 q 235 840 244 829 l 222 856 q 225 883 207 875 l 449 1024 q 496 1021 481 1039 l 517 996 q 513 967 535 976 l 268 838 m 369 -19 q 133 33 197 -19 q 69 196 69 85 q 140 362 69 314 q 375 410 210 410 q 557 396 474 410 l 557 461 q 516 601 557 551 q 369 651 475 651 q 174 551 232 651 q 140 539 161 531 l 107 553 q 93 589 81 563 q 372 735 171 735 q 588 660 526 735 q 650 460 650 586 l 650 96 q 640 44 650 60 q 600 17 629 29 q 369 -19 517 -19 m 363 58 q 531 81 474 58 q 552 94 547 88 q 557 121 557 101 l 557 322 q 365 335 432 335 q 209 303 254 335 q 164 197 164 271 q 206 92 164 126 q 363 58 247 58 z "},"â":{"ha":747,"x_min":69,"x_max":650,"o":"m 158 829 q 146 850 128 829 l 317 999 q 340 1019 332 1015 q 365 1022 347 1022 l 376 1022 q 399 1019 392 1022 q 424 999 407 1015 l 594 850 q 582 829 613 829 l 543 829 q 503 843 515 829 l 369 958 l 233 843 q 194 829 219 829 l 158 829 m 369 -19 q 133 33 197 -19 q 69 196 69 85 q 140 362 69 314 q 375 410 210 410 q 557 396 474 410 l 557 461 q 516 601 557 551 q 369 651 475 651 q 174 551 232 651 q 140 539 161 531 l 107 553 q 93 589 81 563 q 372 735 171 735 q 588 660 526 735 q 650 460 650 586 l 650 96 q 640 44 650 60 q 600 17 629 29 q 369 -19 517 -19 m 363 58 q 531 81 474 58 q 552 94 547 88 q 557 121 557 101 l 557 322 q 365 335 432 335 q 209 303 254 335 q 164 197 164 271 q 206 92 164 126 q 363 58 247 58 z "},"ã":{"ha":747,"x_min":69,"x_max":650,"o":"m 167 849 q 150 865 150 849 q 258 1004 150 1004 q 336 981 300 1004 q 403 933 372 957 q 464 910 433 910 q 519 988 519 910 q 535 1004 519 1004 l 563 1004 q 578 988 578 1004 q 471 849 578 849 q 395 872 431 849 q 328 918 360 894 q 267 942 297 942 q 210 865 210 942 q 194 849 210 849 l 167 849 m 369 -19 q 133 33 197 -19 q 69 196 69 85 q 140 362 69 314 q 375 410 210 410 q 557 396 474 410 l 557 461 q 516 601 557 551 q 369 651 475 651 q 174 551 232 651 q 140 539 161 531 l 107 553 q 93 589 81 563 q 372 735 171 735 q 588 660 526 735 q 650 460 650 586 l 650 96 q 640 44 650 60 q 600 17 629 29 q 369 -19 517 -19 m 363 58 q 531 81 474 58 q 552 94 547 88 q 557 121 557 101 l 557 322 q 365 335 432 335 q 209 303 254 335 q 164 197 164 271 q 206 92 164 126 q 363 58 247 58 z "},"ä":{"ha":747,"x_min":69,"x_max":650,"o":"m 229 874 q 192 884 203 874 q 182 921 182 894 l 182 931 q 192 968 182 958 q 229 978 203 978 l 238 978 q 274 968 264 978 q 285 931 285 958 l 285 921 q 274 884 285 894 q 238 874 264 874 l 229 874 m 499 874 q 462 884 472 874 q 451 921 451 894 l 451 931 q 462 968 451 958 q 499 978 472 978 l 507 978 q 544 968 533 978 q 554 931 554 958 l 554 921 q 544 884 554 894 q 507 874 533 874 l 499 874 m 369 -19 q 133 33 197 -19 q 69 196 69 85 q 140 362 69 314 q 375 410 210 410 q 557 396 474 410 l 557 461 q 516 601 557 551 q 369 651 475 651 q 174 551 232 651 q 140 539 161 531 l 107 553 q 93 589 81 563 q 372 735 171 735 q 588 660 526 735 q 650 460 650 586 l 650 96 q 640 44 650 60 q 600 17 629 29 q 369 -19 517 -19 m 363 58 q 531 81 474 58 q 552 94 547 88 q 557 121 557 101 l 557 322 q 365 335 432 335 q 209 303 254 335 q 164 197 164 271 q 206 92 164 126 q 363 58 247 58 z "},"å":{"ha":747,"x_min":69,"x_max":650,"o":"m 369 800 q 267 838 306 800 q 228 936 228 875 q 267 1035 228 997 q 369 1072 306 1072 q 470 1035 432 1072 q 508 936 508 997 q 470 838 508 875 q 369 800 432 800 m 369 849 q 434 872 410 849 q 458 936 458 896 q 434 1000 458 976 q 369 1024 410 1024 q 303 1000 328 1024 q 278 936 278 976 q 303 872 278 896 q 369 849 328 849 m 369 -19 q 133 33 197 -19 q 69 196 69 85 q 140 362 69 314 q 375 410 210 410 q 557 396 474 410 l 557 461 q 516 601 557 551 q 369 651 475 651 q 174 551 232 651 q 140 539 161 531 l 107 553 q 93 589 81 563 q 372 735 171 735 q 588 660 526 735 q 650 460 650 586 l 650 96 q 640 44 650 60 q 600 17 629 29 q 369 -19 517 -19 m 363 58 q 531 81 474 58 q 552 94 547 88 q 557 121 557 101 l 557 322 q 365 335 432 335 q 209 303 254 335 q 164 197 164 271 q 206 92 164 126 q 363 58 247 58 z "},"æ":{"ha":1131,"x_min":71,"x_max":1057,"o":"m 344 -19 q 129 31 188 -19 q 71 193 71 82 q 134 360 71 313 q 350 408 197 408 q 504 396 429 408 l 504 472 q 472 605 504 558 q 344 651 439 651 q 176 551 233 651 q 142 539 163 531 l 108 553 q 94 589 82 565 q 347 735 172 735 q 557 614 507 735 q 781 735 617 735 q 988 658 921 735 q 1056 449 1056 581 l 1056 371 q 1014 332 1056 332 l 599 332 l 599 250 q 776 61 599 61 q 888 88 849 61 q 961 174 926 115 q 1001 185 976 197 l 1029 168 q 1039 129 1057 156 q 940 18 999 56 q 776 -19 881 -19 q 575 64 636 -19 q 344 -19 500 -19 m 599 404 l 963 404 l 963 454 q 781 654 963 654 q 599 454 599 654 l 599 404 m 338 58 q 422 67 386 58 q 476 90 457 76 q 502 115 494 104 q 514 135 510 125 q 504 226 504 174 l 504 319 q 340 332 379 332 q 203 300 242 332 q 165 194 165 268 q 201 91 165 124 q 338 58 238 58 z "},"ç":{"ha":750,"x_min":86,"x_max":692,"o":"m 375 -342 q 264 -315 308 -342 q 247 -287 247 -307 l 247 -261 q 261 -251 247 -243 q 364 -283 307 -283 q 435 -262 410 -283 q 460 -206 460 -242 q 376 -147 460 -147 q 331 -153 347 -147 q 313 -149 317 -154 q 315 -129 310 -143 l 358 -19 q 155 58 224 -14 q 86 254 86 131 l 86 461 q 163 663 86 590 q 389 735 239 735 q 679 547 622 735 q 663 511 688 521 l 626 499 q 592 515 601 490 q 522 619 569 586 q 386 651 474 651 q 231 602 283 651 q 179 464 179 553 l 179 251 q 233 113 179 163 q 386 63 286 63 q 593 206 551 63 q 629 222 603 229 l 665 211 q 682 175 692 201 q 418 -18 622 -7 l 386 -103 q 422 -99 401 -99 q 510 -129 478 -99 q 540 -210 543 -160 q 491 -309 536 -276 q 375 -342 446 -342 z "},"è":{"ha":772,"x_min":83,"x_max":699,"o":"m 494 839 l 249 968 q 246 997 228 976 l 265 1022 q 313 1025 281 1040 l 538 885 q 540 857 556 876 l 526 842 q 494 839 518 831 m 383 -19 q 158 56 233 -19 q 83 261 83 131 l 83 442 q 162 658 83 581 q 390 735 240 735 q 620 656 542 735 q 699 447 699 578 l 699 371 q 657 332 699 332 l 176 332 l 176 251 q 230 111 176 161 q 385 61 283 61 q 603 176 539 61 q 643 186 619 199 l 672 171 q 682 131 699 157 q 383 -19 599 -19 m 176 404 l 606 404 l 606 453 q 551 601 606 547 q 390 654 496 654 q 231 601 286 654 q 176 453 176 547 l 176 404 z "},"é":{"ha":772,"x_min":83,"x_max":699,"o":"m 290 839 q 257 842 267 831 l 244 857 q 247 885 229 876 l 471 1025 q 518 1022 503 1040 l 539 997 q 535 968 557 978 l 290 839 m 383 -19 q 158 56 233 -19 q 83 261 83 131 l 83 442 q 162 658 83 581 q 390 735 240 735 q 620 656 542 735 q 699 447 699 578 l 699 371 q 657 332 699 332 l 176 332 l 176 251 q 230 111 176 161 q 385 61 283 61 q 603 176 539 61 q 643 186 619 199 l 672 171 q 682 131 699 157 q 383 -19 599 -19 m 176 404 l 606 404 l 606 453 q 551 601 606 547 q 390 654 496 654 q 231 601 286 654 q 176 453 176 547 l 176 404 z "},"ê":{"ha":772,"x_min":83,"x_max":699,"o":"m 181 831 q 168 851 150 831 l 339 1000 q 362 1020 354 1017 q 388 1024 369 1024 l 399 1024 q 422 1020 414 1024 q 446 1000 429 1017 l 617 851 q 604 831 635 831 l 565 831 q 525 844 538 831 l 392 960 l 256 844 q 217 831 242 831 l 181 831 m 383 -19 q 158 56 233 -19 q 83 261 83 131 l 83 442 q 162 658 83 581 q 390 735 240 735 q 620 656 542 735 q 699 447 699 578 l 699 371 q 657 332 699 332 l 176 332 l 176 251 q 230 111 176 161 q 385 61 283 61 q 603 176 539 61 q 643 186 619 199 l 672 171 q 682 131 699 157 q 383 -19 599 -19 m 176 404 l 606 404 l 606 453 q 551 601 606 547 q 390 654 496 654 q 231 601 286 654 q 176 453 176 547 l 176 404 z "},"ë":{"ha":772,"x_min":83,"x_max":699,"o":"m 251 875 q 215 885 225 875 q 204 922 204 894 l 204 932 q 215 969 204 958 q 251 979 225 979 l 260 979 q 297 969 286 979 q 307 932 307 958 l 307 922 q 297 885 307 896 q 260 875 286 875 l 251 875 m 521 875 q 484 885 494 875 q 474 922 474 894 l 474 932 q 484 969 474 958 q 521 979 494 979 l 529 979 q 566 969 556 979 q 576 932 576 958 l 576 922 q 566 885 576 896 q 529 875 556 875 l 521 875 m 383 -19 q 158 56 233 -19 q 83 261 83 131 l 83 442 q 162 658 83 581 q 390 735 240 735 q 620 656 542 735 q 699 447 699 578 l 699 371 q 657 332 699 332 l 176 332 l 176 251 q 230 111 176 161 q 385 61 283 61 q 603 176 539 61 q 643 186 619 199 l 672 171 q 682 131 699 157 q 383 -19 599 -19 m 176 404 l 606 404 l 606 453 q 551 601 606 547 q 390 654 496 654 q 231 601 286 654 q 176 453 176 547 l 176 404 z "},"ì":{"ha":314,"x_min":-7,"x_max":321,"o":"m 260 838 l 14 967 q 11 996 -7 975 l 31 1021 q 78 1024 46 1039 l 303 883 q 306 856 321 875 l 292 840 q 260 838 283 829 m 135 0 q 110 25 110 0 l 110 689 q 135 714 110 714 l 178 714 q 197 708 192 714 q 203 689 203 703 l 203 25 q 197 6 203 11 q 178 0 192 0 l 135 0 z "},"í":{"ha":314,"x_min":-6,"x_max":322,"o":"m 56 831 q 24 832 32 821 l 10 847 q 13 875 -6 867 l 238 1015 q 285 1013 268 1033 l 304 989 q 301 958 322 967 l 56 831 m 135 0 q 110 25 110 0 l 110 689 q 135 714 110 714 l 178 714 q 197 708 192 714 q 203 689 203 703 l 203 25 q 197 6 203 11 q 178 0 192 0 l 135 0 z "},"î":{"ha":314,"x_min":-39,"x_max":350,"o":"m -12 813 q -25 832 -39 813 l 104 972 q 125 991 117 988 q 151 994 133 994 l 163 994 q 208 972 189 994 l 336 832 q 324 813 350 813 l 290 813 q 249 826 258 813 l 156 933 l 60 826 q 21 813 51 813 l -12 813 m 135 0 q 110 25 110 0 l 110 689 q 135 714 110 714 l 178 714 q 197 708 192 714 q 203 689 203 703 l 203 25 q 197 6 203 11 q 178 0 192 0 l 135 0 z "},"ï":{"ha":314,"x_min":1,"x_max":311,"o":"m 47 854 q 11 863 21 854 q 1 899 1 872 l 1 910 q 11 944 1 935 q 47 954 21 954 l 56 954 q 92 944 82 954 q 101 910 101 935 l 101 899 q 92 863 101 872 q 56 854 82 854 l 47 854 m 258 854 q 221 863 231 854 q 211 899 211 872 l 211 910 q 222 944 211 935 q 258 954 232 954 l 265 954 q 301 944 292 954 q 311 910 311 935 l 311 899 q 301 863 311 872 q 265 854 292 854 l 258 854 m 135 0 q 110 25 110 0 l 110 689 q 135 714 110 714 l 178 714 q 197 708 192 714 q 203 689 203 703 l 203 25 q 197 6 203 11 q 178 0 192 0 l 135 0 z "},"ð":{"ha":801,"x_min":85,"x_max":699,"o":"m 393 -19 q 163 51 242 -19 q 85 249 85 121 l 85 431 q 161 629 85 557 q 375 701 238 701 q 610 592 553 701 q 515 860 606 779 l 424 763 q 401 761 414 753 l 379 779 q 378 800 368 789 l 465 892 q 221 944 376 944 q 200 949 206 944 q 193 969 194 954 l 193 1004 q 218 1031 193 1031 q 525 963 413 1031 l 596 1038 q 617 1038 604 1047 l 642 1019 q 643 999 653 1010 l 576 928 q 699 554 699 818 l 699 249 q 620 51 699 121 q 393 -19 542 -19 m 393 64 q 551 113 496 64 q 606 250 606 161 l 606 432 q 551 569 606 521 q 393 617 496 617 q 233 568 288 617 q 179 431 179 519 l 179 250 q 233 113 179 161 q 393 64 288 64 z "},"ñ":{"ha":799,"x_min":107,"x_max":694,"o":"m 197 850 q 181 867 181 850 q 289 1006 181 1006 q 367 982 331 1006 q 433 935 403 958 q 494 911 464 911 q 550 989 550 911 q 565 1006 550 1006 l 593 1006 q 608 989 608 1006 q 501 850 608 850 q 426 874 461 850 q 359 920 390 897 q 297 943 328 943 q 240 867 240 943 q 225 850 240 850 l 197 850 m 132 0 q 107 25 107 0 l 107 611 q 117 658 107 643 q 160 688 128 674 q 418 735 275 735 q 694 463 694 735 l 694 25 q 669 0 694 0 l 626 0 q 606 6 611 0 q 601 25 601 11 l 601 460 q 407 650 601 650 q 222 618 310 650 q 200 583 200 608 l 200 25 q 194 6 200 11 q 175 0 189 0 l 132 0 z "},"ò":{"ha":785,"x_min":88,"x_max":697,"o":"m 496 838 l 250 967 q 247 996 229 975 l 267 1021 q 314 1024 282 1039 l 539 883 q 542 856 557 875 l 528 840 q 496 838 519 829 m 392 -19 q 169 49 250 -19 q 88 235 88 117 l 88 479 q 169 667 88 599 q 392 735 250 735 q 616 667 535 735 q 697 479 697 599 l 697 235 q 616 48 697 115 q 392 -19 535 -19 m 392 64 q 547 110 490 64 q 604 235 604 156 l 604 481 q 547 605 604 560 q 392 650 490 650 q 238 605 294 650 q 181 481 181 560 l 181 235 q 238 110 181 156 q 392 64 294 64 z "},"ó":{"ha":785,"x_min":88,"x_max":697,"o":"m 292 838 q 258 840 268 829 l 246 856 q 249 883 231 875 l 472 1024 q 519 1021 504 1039 l 540 996 q 536 967 558 976 l 292 838 m 392 -19 q 169 49 250 -19 q 88 235 88 117 l 88 479 q 169 667 88 599 q 392 735 250 735 q 616 667 535 735 q 697 479 697 599 l 697 235 q 616 48 697 115 q 392 -19 535 -19 m 392 64 q 547 110 490 64 q 604 235 604 156 l 604 481 q 547 605 604 560 q 392 650 490 650 q 238 605 294 650 q 181 481 181 560 l 181 235 q 238 110 181 156 q 392 64 294 64 z "},"ô":{"ha":785,"x_min":88,"x_max":697,"o":"m 181 829 q 168 850 150 829 l 339 999 q 362 1019 354 1015 q 388 1022 369 1022 l 399 1022 q 422 1019 414 1022 q 446 999 429 1015 l 617 850 q 604 829 635 829 l 565 829 q 525 843 538 829 l 392 958 l 256 843 q 217 829 242 829 l 181 829 m 392 -19 q 169 49 250 -19 q 88 235 88 117 l 88 479 q 169 667 88 599 q 392 735 250 735 q 616 667 535 735 q 697 479 697 599 l 697 235 q 616 48 697 115 q 392 -19 535 -19 m 392 64 q 547 110 490 64 q 604 235 604 156 l 604 481 q 547 605 604 560 q 392 650 490 650 q 238 605 294 650 q 181 481 181 560 l 181 235 q 238 110 181 156 q 392 64 294 64 z "},"õ":{"ha":785,"x_min":88,"x_max":697,"o":"m 190 849 q 174 865 174 849 q 282 1004 174 1004 q 360 981 324 1004 q 426 933 396 957 q 488 910 457 910 q 543 988 543 910 q 558 1004 543 1004 l 586 1004 q 601 988 601 1004 q 494 849 601 849 q 385 895 444 849 q 290 942 325 942 q 233 865 233 942 q 218 849 233 849 l 190 849 m 392 -19 q 169 49 250 -19 q 88 235 88 117 l 88 479 q 169 667 88 599 q 392 735 250 735 q 616 667 535 735 q 697 479 697 599 l 697 235 q 616 48 697 115 q 392 -19 535 -19 m 392 64 q 547 110 490 64 q 604 235 604 156 l 604 481 q 547 605 604 560 q 392 650 490 650 q 238 605 294 650 q 181 481 181 560 l 181 235 q 238 110 181 156 q 392 64 294 64 z "},"ö":{"ha":785,"x_min":88,"x_max":697,"o":"m 253 874 q 215 884 225 874 q 206 921 206 894 l 206 931 q 215 968 206 958 q 253 978 225 978 l 261 978 q 299 968 289 978 q 308 931 308 958 l 308 921 q 298 884 308 894 q 261 874 288 874 l 253 874 m 522 874 q 485 884 494 874 q 475 921 475 894 l 475 931 q 485 968 475 958 q 522 978 494 978 l 531 978 q 568 968 558 978 q 578 931 578 958 l 578 921 q 567 884 578 894 q 531 874 557 874 l 522 874 m 392 -19 q 169 49 250 -19 q 88 235 88 117 l 88 479 q 169 667 88 599 q 392 735 250 735 q 616 667 535 735 q 697 479 697 599 l 697 235 q 616 48 697 115 q 392 -19 535 -19 m 392 64 q 547 110 490 64 q 604 235 604 156 l 604 481 q 547 605 604 560 q 392 650 490 650 q 238 605 294 650 q 181 481 181 560 l 181 235 q 238 110 181 156 q 392 64 294 64 z "},"÷":{"ha":839,"x_min":93,"x_max":746,"o":"m 415 664 q 372 675 383 664 q 361 718 361 686 l 361 728 q 373 772 361 760 q 415 783 385 783 l 424 783 q 466 772 454 783 q 478 728 478 760 l 478 718 q 467 675 478 686 q 424 664 456 664 l 415 664 m 119 406 q 99 412 104 406 q 93 433 93 418 l 93 468 q 99 490 93 483 q 119 496 104 496 l 719 496 q 740 490 735 496 q 746 468 746 483 l 746 433 q 740 412 746 418 q 719 406 735 406 l 119 406 m 415 121 q 372 133 383 121 q 361 176 361 144 l 361 186 q 372 228 361 217 q 415 240 383 240 l 424 240 q 467 228 456 240 q 478 186 478 217 l 478 176 q 466 133 478 144 q 424 121 454 121 l 415 121 z "},"ø":{"ha":785,"x_min":88,"x_max":697,"o":"m 115 -49 q 109 -45 110 -49 q 111 -39 108 -42 l 167 50 q 88 235 88 118 l 88 479 q 169 667 88 599 q 392 735 250 735 q 574 693 499 735 l 615 758 q 633 767 622 767 l 674 767 q 678 757 683 767 l 619 664 q 697 479 697 597 l 697 235 q 616 48 697 115 q 392 -19 535 -19 q 211 21 285 -19 l 174 -40 q 154 -49 167 -49 l 115 -49 m 222 138 l 526 618 q 392 650 469 650 q 238 605 294 650 q 181 481 181 560 l 181 235 q 222 138 181 175 m 392 64 q 547 110 490 64 q 604 235 604 156 l 604 481 q 564 576 604 539 l 258 97 q 392 64 313 64 z "},"ù":{"ha":799,"x_min":104,"x_max":690,"o":"m 501 838 l 256 967 q 253 996 235 975 l 272 1021 q 319 1024 288 1039 l 544 883 q 547 856 563 875 l 533 840 q 501 838 525 829 m 379 -19 q 104 251 104 -19 l 104 689 q 109 708 104 703 q 129 714 114 714 l 172 714 q 197 689 197 714 l 197 256 q 392 65 197 65 q 572 94 493 65 q 597 135 597 106 l 597 689 q 622 714 597 714 l 665 714 q 690 689 690 714 l 690 103 q 680 56 690 71 q 639 26 669 40 q 379 -19 528 -19 z "},"ú":{"ha":799,"x_min":104,"x_max":690,"o":"m 297 838 q 264 840 274 829 l 251 856 q 254 883 236 875 l 478 1024 q 525 1021 510 1039 l 546 996 q 542 967 564 976 l 297 838 m 379 -19 q 104 251 104 -19 l 104 689 q 109 708 104 703 q 129 714 114 714 l 172 714 q 197 689 197 714 l 197 256 q 392 65 197 65 q 572 94 493 65 q 597 135 597 106 l 597 689 q 622 714 597 714 l 665 714 q 690 689 690 714 l 690 103 q 680 56 690 71 q 639 26 669 40 q 379 -19 528 -19 z "},"û":{"ha":799,"x_min":104,"x_max":690,"o":"m 186 829 q 174 850 156 829 l 344 999 q 367 1019 360 1015 q 393 1022 375 1022 l 404 1022 q 427 1019 419 1022 q 451 999 435 1015 l 622 850 q 610 829 640 829 l 571 829 q 531 843 543 829 l 397 958 l 261 843 q 222 829 247 829 l 186 829 m 379 -19 q 104 251 104 -19 l 104 689 q 109 708 104 703 q 129 714 114 714 l 172 714 q 197 689 197 714 l 197 256 q 392 65 197 65 q 572 94 493 65 q 597 135 597 106 l 597 689 q 622 714 597 714 l 665 714 q 690 689 690 714 l 690 103 q 680 56 690 71 q 639 26 669 40 q 379 -19 528 -19 z "},"ü":{"ha":799,"x_min":104,"x_max":690,"o":"m 258 874 q 221 884 231 874 q 211 921 211 894 l 211 931 q 221 968 211 958 q 258 978 231 978 l 267 978 q 304 968 294 978 q 314 931 314 958 l 314 921 q 303 884 314 894 q 267 874 293 874 l 258 874 m 528 874 q 490 884 500 874 q 481 921 481 894 l 481 931 q 490 968 481 958 q 528 978 500 978 l 536 978 q 574 968 564 978 q 583 931 583 958 l 583 921 q 573 884 583 894 q 536 874 563 874 l 528 874 m 379 -19 q 104 251 104 -19 l 104 689 q 109 708 104 703 q 129 714 114 714 l 172 714 q 197 689 197 714 l 197 256 q 392 65 197 65 q 572 94 493 65 q 597 135 597 106 l 597 689 q 622 714 597 714 l 665 714 q 690 689 690 714 l 690 103 q 680 56 690 71 q 639 26 669 40 q 379 -19 528 -19 z "},"ý":{"ha":801,"x_min":100,"x_max":690,"o":"m 297 838 q 264 840 274 829 l 251 856 q 254 883 236 875 l 478 1024 q 525 1021 510 1039 l 546 996 q 542 967 564 976 l 297 838 m 396 -343 q 119 -194 200 -343 q 129 -154 100 -167 l 160 -137 q 200 -147 185 -124 q 394 -260 261 -260 q 597 -47 597 -260 l 597 35 q 379 -1 475 -1 q 104 269 104 -1 l 104 689 q 109 708 104 703 q 129 714 114 714 l 172 714 q 197 689 197 714 l 197 274 q 392 83 197 83 q 597 121 492 83 l 597 689 q 622 714 597 714 l 665 714 q 685 708 681 714 q 690 689 690 703 l 690 -43 q 396 -343 690 -343 z "},"þ":{"ha":785,"x_min":111,"x_max":697,"o":"m 136 -306 q 117 -300 122 -306 q 111 -281 111 -294 l 111 1003 q 117 1022 111 1017 q 136 1028 122 1028 l 179 1028 q 204 1003 204 1028 l 204 689 q 410 728 313 728 q 697 450 697 728 l 697 256 q 413 -21 697 -21 q 204 28 315 -21 l 204 -281 q 179 -306 204 -306 l 136 -306 m 407 64 q 604 258 604 64 l 604 447 q 397 642 604 642 q 204 600 300 642 l 204 113 q 407 64 317 64 z "},"ÿ":{"ha":801,"x_min":100,"x_max":690,"o":"m 258 874 q 221 884 231 874 q 211 921 211 894 l 211 931 q 221 968 211 958 q 258 978 231 978 l 267 978 q 304 968 294 978 q 314 931 314 958 l 314 921 q 303 884 314 894 q 267 874 293 874 l 258 874 m 528 874 q 490 884 500 874 q 481 921 481 894 l 481 931 q 490 968 481 958 q 528 978 500 978 l 536 978 q 574 968 564 978 q 583 931 583 958 l 583 921 q 573 884 583 894 q 536 874 563 874 l 528 874 m 396 -343 q 119 -194 200 -343 q 129 -154 100 -167 l 160 -137 q 200 -147 185 -124 q 394 -260 261 -260 q 597 -47 597 -260 l 597 35 q 379 -1 475 -1 q 104 269 104 -1 l 104 689 q 109 708 104 703 q 129 714 114 714 l 172 714 q 197 689 197 714 l 197 274 q 392 83 197 83 q 597 121 492 83 l 597 689 q 622 714 597 714 l 665 714 q 685 708 681 714 q 690 689 690 703 l 690 -43 q 396 -343 690 -343 z "},"Ā":{"ha":926,"x_min":24,"x_max":901,"o":"m 299 1111 q 280 1116 285 1111 q 275 1135 275 1121 l 275 1157 q 299 1181 275 1181 l 626 1181 q 645 1176 640 1181 q 650 1157 650 1171 l 650 1135 q 645 1116 650 1121 q 626 1111 640 1111 l 299 1111 m 53 0 q 35 26 24 0 l 407 967 q 442 990 415 990 l 483 990 q 518 968 511 990 l 890 26 q 872 0 901 0 l 832 0 q 782 24 789 0 l 678 289 l 243 289 l 139 24 q 124 5 133 10 q 89 0 114 0 l 53 0 m 272 372 l 650 372 l 482 799 q 471 842 475 819 q 464 881 467 865 l 463 896 l 457 896 l 456 881 q 450 843 454 865 q 439 800 446 821 l 272 372 z "},"ā":{"ha":747,"x_min":69,"x_max":650,"o":"m 204 886 q 185 891 190 886 q 181 910 181 896 l 181 931 q 186 949 181 944 q 204 954 192 954 l 532 954 q 551 949 546 954 q 556 931 556 944 l 556 910 q 551 891 556 896 q 532 886 546 886 l 204 886 m 369 -19 q 133 33 197 -19 q 69 196 69 85 q 140 362 69 314 q 375 410 210 410 q 557 396 474 410 l 557 461 q 516 601 557 551 q 369 651 475 651 q 174 551 232 651 q 140 539 161 531 l 107 553 q 93 589 81 563 q 372 735 171 735 q 588 660 526 735 q 650 460 650 586 l 650 96 q 640 44 650 60 q 600 17 629 29 q 369 -19 517 -19 m 363 58 q 531 81 474 58 q 552 94 547 88 q 557 121 557 101 l 557 322 q 365 335 432 335 q 209 303 254 335 q 164 197 164 271 q 206 92 164 126 q 363 58 247 58 z "},"Ă":{"ha":926,"x_min":24,"x_max":901,"o":"m 674 1210 q 463 1060 628 1060 q 253 1210 297 1060 q 264 1235 247 1228 l 297 1247 q 322 1238 317 1253 q 463 1129 353 1129 q 603 1238 572 1129 q 625 1247 610 1253 l 663 1235 q 674 1210 679 1228 m 53 0 q 35 26 24 0 l 407 967 q 442 990 415 990 l 483 990 q 518 968 511 990 l 890 26 q 872 0 901 0 l 832 0 q 782 24 789 0 l 678 289 l 243 289 l 139 24 q 124 5 133 10 q 89 0 114 0 l 53 0 m 272 372 l 650 372 l 482 799 q 471 842 475 819 q 464 881 467 865 l 463 896 l 457 896 l 456 881 q 450 843 454 865 q 439 800 446 821 l 272 372 z "},"ă":{"ha":747,"x_min":69,"x_max":650,"o":"m 579 985 q 368 833 526 833 q 158 985 210 833 q 169 1008 153 1001 l 203 1021 q 228 1011 222 1026 q 368 903 265 903 q 508 1011 471 903 q 531 1021 515 1026 l 568 1008 q 579 985 585 1001 m 369 -19 q 133 33 197 -19 q 69 196 69 85 q 140 362 69 314 q 375 410 210 410 q 557 396 474 410 l 557 461 q 516 601 557 551 q 369 651 475 651 q 174 551 232 651 q 140 539 161 531 l 107 553 q 93 589 81 563 q 372 735 171 735 q 588 660 526 735 q 650 460 650 586 l 650 96 q 640 44 650 60 q 600 17 629 29 q 369 -19 517 -19 m 363 58 q 531 81 474 58 q 552 94 547 88 q 557 121 557 101 l 557 322 q 365 335 432 335 q 209 303 254 335 q 164 197 164 271 q 206 92 164 126 q 363 58 247 58 z "},"Ą":{"ha":925,"x_min":24,"x_max":917,"o":"m 783 -343 q 678 -271 696 -343 q 697 -140 661 -214 q 817 4 733 -65 q 792 10 799 6 q 781 29 785 15 l 679 289 l 244 289 l 140 24 q 125 5 135 10 q 90 0 115 0 l 54 0 q 35 26 24 0 l 407 967 q 442 990 415 990 l 485 990 q 519 968 511 990 l 890 28 q 888 1 897 10 q 781 -127 817 -60 q 758 -233 744 -194 q 810 -272 772 -272 q 883 -242 853 -272 q 900 -246 894 -233 l 911 -274 q 908 -293 917 -286 q 783 -343 856 -343 m 272 372 l 650 372 l 542 656 q 500 785 525 703 q 464 893 475 868 l 458 893 q 425 789 449 871 q 382 657 401 707 l 272 372 z "},"ą":{"ha":751,"x_min":69,"x_max":657,"o":"m 525 -343 q 418 -271 438 -343 q 434 -143 403 -218 q 533 -3 465 -68 q 369 -19 467 -19 q 133 33 197 -19 q 69 196 69 85 q 140 362 69 314 q 375 410 210 410 q 557 397 444 410 l 557 461 q 516 601 557 551 q 369 651 475 651 q 174 550 232 651 q 140 539 161 531 l 107 553 q 93 589 81 563 q 372 735 171 735 q 588 660 526 735 q 650 460 650 586 l 650 96 q 633 35 650 53 q 522 -117 557 -40 q 500 -233 486 -193 q 554 -271 513 -271 q 625 -240 594 -271 q 642 -244 636 -233 l 653 -274 q 650 -293 657 -286 q 525 -343 597 -343 m 363 58 q 531 81 474 58 q 552 94 547 88 q 557 121 557 101 l 557 321 q 365 333 432 333 q 209 302 254 333 q 164 197 164 271 q 206 92 164 126 q 363 58 247 58 z "},"Ć":{"ha":919,"x_min":97,"x_max":858,"o":"m 381 1061 q 347 1064 357 1053 l 335 1079 q 338 1107 319 1099 l 561 1247 q 608 1244 593 1263 l 629 1219 q 625 1190 646 1199 l 381 1061 m 478 -19 q 196 73 294 -19 q 97 329 97 165 l 97 657 q 195 913 97 821 q 478 1006 293 1006 q 722 947 633 1006 q 847 768 810 888 q 849 745 853 753 q 831 732 846 738 l 788 718 q 766 717 774 714 q 753 735 758 719 q 658 869 722 826 q 478 913 594 913 q 270 846 342 913 q 199 658 199 779 l 199 328 q 271 141 199 208 q 478 74 343 74 q 661 118 597 74 q 754 257 725 163 q 790 274 765 282 l 832 258 q 850 224 858 249 q 724 42 813 103 q 478 -19 635 -19 z "},"ć":{"ha":750,"x_min":86,"x_max":692,"o":"m 289 838 q 256 840 265 829 l 243 856 q 246 883 228 875 l 469 1024 q 517 1021 501 1039 l 538 996 q 533 967 556 976 l 289 838 m 383 -19 q 161 53 236 -19 q 86 254 86 125 l 86 461 q 163 663 86 590 q 389 735 239 735 q 679 547 622 735 q 663 511 689 519 l 626 499 q 592 515 601 490 q 522 619 569 586 q 386 651 474 651 q 231 602 283 651 q 179 464 179 553 l 179 251 q 233 113 179 163 q 386 63 286 63 q 593 206 551 63 q 629 222 603 229 l 665 211 q 682 175 692 201 q 383 -19 618 -19 z "},"Ĉ":{"ha":919,"x_min":97,"x_max":858,"o":"m 271 1060 q 258 1079 239 1060 l 429 1229 q 452 1248 444 1244 q 478 1251 460 1251 l 489 1251 q 513 1248 506 1251 q 536 1229 521 1244 l 707 1079 q 713 1066 715 1072 q 694 1060 710 1060 l 656 1060 q 615 1074 628 1060 l 482 1189 l 346 1074 q 307 1060 332 1060 l 271 1060 m 478 -19 q 196 73 294 -19 q 97 329 97 165 l 97 657 q 195 913 97 821 q 478 1006 293 1006 q 722 947 633 1006 q 847 768 810 888 q 849 745 853 753 q 831 732 846 738 l 788 718 q 766 717 774 714 q 753 735 758 719 q 658 869 722 826 q 478 913 594 913 q 270 846 342 913 q 199 658 199 779 l 199 328 q 271 141 199 208 q 478 74 343 74 q 661 118 597 74 q 754 257 725 163 q 790 274 765 282 l 832 258 q 850 224 858 249 q 724 42 813 103 q 478 -19 635 -19 z "},"ĉ":{"ha":750,"x_min":86,"x_max":692,"o":"m 179 829 q 167 850 149 829 l 338 999 q 360 1019 353 1015 q 386 1022 368 1022 l 397 1022 q 420 1019 413 1022 q 444 999 428 1015 l 615 850 q 603 829 633 829 l 564 829 q 524 843 536 829 l 390 958 l 254 843 q 215 829 240 829 l 179 829 m 383 -19 q 161 53 236 -19 q 86 254 86 125 l 86 461 q 163 663 86 590 q 389 735 239 735 q 679 547 622 735 q 663 511 689 519 l 626 499 q 592 515 601 490 q 522 619 569 586 q 386 651 474 651 q 231 602 283 651 q 179 464 179 553 l 179 251 q 233 113 179 163 q 386 63 286 63 q 593 206 551 63 q 629 222 603 229 l 665 211 q 682 175 692 201 q 383 -19 618 -19 z "},"Ċ":{"ha":919,"x_min":97,"x_max":858,"o":"m 478 1096 q 442 1106 451 1096 q 432 1142 432 1115 l 432 1150 q 442 1187 432 1176 q 478 1197 451 1197 l 485 1197 q 522 1188 511 1197 q 532 1150 532 1178 l 532 1142 q 522 1106 532 1115 q 485 1096 513 1096 l 478 1096 m 478 -19 q 196 73 294 -19 q 97 329 97 165 l 97 657 q 195 913 97 821 q 478 1006 293 1006 q 722 947 633 1006 q 847 768 810 888 q 849 745 853 753 q 831 732 846 738 l 788 718 q 766 717 774 714 q 753 735 758 719 q 658 869 722 826 q 478 913 594 913 q 270 846 342 913 q 199 658 199 779 l 199 328 q 271 141 199 208 q 478 74 343 74 q 661 118 597 74 q 754 257 725 163 q 790 274 765 282 l 832 258 q 850 224 858 249 q 724 42 813 103 q 478 -19 635 -19 z "},"ċ":{"ha":750,"x_min":86,"x_max":692,"o":"m 386 879 q 344 890 354 879 q 333 931 333 900 l 333 939 q 344 980 333 969 q 386 990 354 990 l 393 990 q 435 980 425 990 q 446 939 446 969 l 446 931 q 435 890 446 900 q 393 879 424 879 l 386 879 m 383 -19 q 161 53 236 -19 q 86 254 86 125 l 86 461 q 163 663 86 590 q 389 735 239 735 q 679 547 622 735 q 663 511 689 519 l 626 499 q 592 515 601 490 q 522 619 569 586 q 386 651 474 651 q 231 602 283 651 q 179 464 179 553 l 179 251 q 233 113 179 163 q 386 63 286 63 q 593 206 551 63 q 629 222 603 229 l 665 211 q 682 175 692 201 q 383 -19 618 -19 z "},"Č":{"ha":919,"x_min":97,"x_max":858,"o":"m 476 1058 q 451 1062 458 1058 q 428 1082 443 1065 l 257 1231 q 251 1244 249 1238 q 269 1251 254 1251 l 306 1251 q 344 1238 331 1251 l 481 1122 l 613 1238 q 654 1251 626 1251 l 692 1251 q 710 1244 707 1251 q 704 1231 713 1238 l 535 1082 q 510 1062 518 1065 q 488 1058 503 1058 l 476 1058 m 478 -19 q 196 73 294 -19 q 97 329 97 165 l 97 657 q 195 913 97 821 q 478 1006 293 1006 q 722 947 633 1006 q 847 768 810 888 q 849 745 853 753 q 831 732 846 738 l 788 718 q 766 717 774 714 q 753 735 758 719 q 658 869 722 826 q 478 913 594 913 q 270 846 342 913 q 199 658 199 779 l 199 328 q 271 141 199 208 q 478 74 343 74 q 661 118 597 74 q 754 257 725 163 q 790 274 765 282 l 832 258 q 850 224 858 249 q 724 42 813 103 q 478 -19 635 -19 z "},"č":{"ha":750,"x_min":86,"x_max":692,"o":"m 383 828 q 358 831 365 828 q 335 850 350 835 l 164 1000 q 175 1021 143 1021 l 213 1021 q 251 1006 238 1021 l 388 892 l 519 1006 q 561 1021 535 1021 l 599 1021 q 611 999 631 1021 l 442 850 q 394 828 418 828 l 383 828 m 383 -19 q 161 53 236 -19 q 86 254 86 125 l 86 461 q 163 663 86 590 q 389 735 239 735 q 679 547 622 735 q 663 511 689 519 l 626 499 q 592 515 601 490 q 522 619 569 586 q 386 651 474 651 q 231 602 283 651 q 179 464 179 553 l 179 251 q 233 113 179 163 q 386 63 286 63 q 593 206 551 63 q 629 222 603 229 l 665 211 q 682 175 692 201 q 383 -19 618 -19 z "},"Ď":{"ha":943,"x_min":126,"x_max":850,"o":"m 443 1058 q 417 1062 425 1058 q 394 1082 410 1065 l 224 1231 q 218 1244 215 1238 q 236 1251 221 1251 l 272 1251 q 311 1238 297 1251 l 447 1122 l 579 1238 q 621 1251 593 1251 l 658 1251 q 676 1244 674 1251 q 671 1231 679 1238 l 501 1082 q 477 1062 485 1065 q 454 1058 469 1058 l 443 1058 m 153 0 q 126 28 126 0 l 126 958 q 153 986 126 986 l 447 986 q 744 888 639 986 q 850 619 850 790 l 850 367 q 744 98 850 196 q 447 0 639 0 l 153 0 m 226 93 l 447 93 q 671 165 593 93 q 749 367 749 236 l 749 619 q 671 822 749 750 q 447 893 593 893 l 226 893 l 226 93 z "},"ď":{"ha":858,"x_min":124,"x_max":940,"o":"m 415 -19 q 124 258 124 -19 l 124 457 q 192 663 124 590 q 397 735 260 735 q 617 694 500 735 l 617 1003 q 642 1028 617 1028 l 685 1028 q 705 1022 700 1028 q 710 1003 710 1017 l 710 97 q 699 50 710 64 q 656 22 689 36 q 415 -19 554 -19 m 808 707 q 794 710 797 707 q 792 725 790 714 l 844 1003 q 874 1028 847 1028 l 910 1028 q 932 1003 940 1028 l 860 731 q 851 712 857 717 q 833 707 846 707 l 808 707 m 424 65 q 590 92 517 65 q 613 105 608 99 q 617 128 617 111 l 617 607 q 414 650 507 650 q 217 454 217 650 l 217 260 q 424 65 217 65 z "},"Đ":{"ha":958,"x_min":21,"x_max":865,"o":"m 169 0 q 148 6 154 0 q 142 28 142 13 l 142 467 l 40 467 q 21 486 21 467 l 21 515 q 40 535 21 535 l 142 535 l 142 958 q 148 980 142 974 q 169 986 154 986 l 463 986 q 760 888 654 986 q 865 619 865 790 l 865 367 q 760 98 865 196 q 463 0 654 0 l 169 0 m 242 93 l 464 93 q 687 165 608 93 q 765 367 765 236 l 765 619 q 688 822 765 750 q 464 893 610 893 l 242 893 l 242 535 l 482 535 q 500 515 500 535 l 500 486 q 482 467 500 467 l 242 467 l 242 93 z "},"đ":{"ha":783,"x_min":89,"x_max":786,"o":"m 381 -19 q 89 258 89 -19 l 89 457 q 158 662 89 590 q 364 733 226 733 q 582 694 474 733 l 582 847 l 371 847 q 353 867 353 847 l 353 889 q 371 908 353 908 l 582 908 l 582 1003 q 607 1028 582 1028 l 650 1028 q 669 1022 664 1028 q 675 1003 675 1017 l 675 908 l 769 908 q 783 904 779 908 q 786 889 786 900 l 786 867 q 783 851 786 856 q 769 847 779 847 l 675 847 l 675 97 q 665 50 675 64 q 621 22 654 36 q 381 -19 522 -19 m 389 65 q 557 92 483 65 q 578 105 574 99 q 582 128 582 111 l 582 607 q 379 649 475 649 q 182 454 182 649 l 182 260 q 389 65 182 65 z "},"Ē":{"ha":832,"x_min":126,"x_max":761,"o":"m 271 1111 q 252 1116 257 1111 q 247 1135 247 1121 l 247 1157 q 271 1181 247 1181 l 599 1181 q 617 1176 613 1181 q 622 1157 622 1171 l 622 1135 q 617 1116 622 1121 q 599 1111 613 1111 l 271 1111 m 153 0 q 126 28 126 0 l 126 958 q 153 986 126 986 l 717 986 q 743 958 743 986 l 743 919 q 738 899 743 904 q 717 893 732 893 l 226 893 l 226 547 l 654 547 q 681 519 681 547 l 681 481 q 654 453 681 453 l 226 453 l 226 93 l 733 93 q 755 88 749 93 q 761 67 761 82 l 761 28 q 755 6 761 13 q 733 0 749 0 l 153 0 z "},"ē":{"ha":772,"x_min":83,"x_max":699,"o":"m 226 888 q 208 892 213 888 q 203 911 203 897 l 203 932 q 208 951 203 946 q 226 956 214 956 l 554 956 q 573 951 568 956 q 578 932 578 946 l 578 911 q 573 892 578 897 q 554 888 568 888 l 226 888 m 383 -19 q 158 56 233 -19 q 83 261 83 131 l 83 442 q 162 658 83 581 q 390 735 240 735 q 620 656 542 735 q 699 447 699 578 l 699 371 q 657 332 699 332 l 176 332 l 176 251 q 230 111 176 161 q 385 61 283 61 q 603 176 539 61 q 643 186 619 199 l 672 171 q 682 131 699 157 q 383 -19 599 -19 m 176 404 l 606 404 l 606 453 q 551 601 606 547 q 390 654 496 654 q 231 601 286 654 q 176 453 176 547 l 176 404 z "},"Ĕ":{"ha":832,"x_min":126,"x_max":761,"o":"m 436 1060 q 226 1210 269 1060 q 238 1235 221 1228 l 271 1247 q 296 1238 290 1253 q 436 1129 326 1129 q 576 1238 546 1129 q 599 1247 583 1253 l 636 1235 q 647 1210 653 1228 q 436 1060 601 1060 m 153 0 q 126 28 126 0 l 126 958 q 153 986 126 986 l 717 986 q 743 958 743 986 l 743 919 q 738 899 743 904 q 717 893 732 893 l 226 893 l 226 547 l 654 547 q 681 519 681 547 l 681 481 q 654 453 681 453 l 226 453 l 226 93 l 733 93 q 755 88 749 93 q 761 67 761 82 l 761 28 q 755 6 761 13 q 733 0 749 0 l 153 0 z "},"ĕ":{"ha":772,"x_min":83,"x_max":699,"o":"m 601 986 q 390 835 549 835 q 181 986 232 835 q 192 1010 175 1003 l 225 1022 q 250 1013 244 1028 q 390 904 288 904 q 531 1013 493 904 q 553 1022 538 1028 l 590 1010 q 601 986 607 1003 m 383 -19 q 158 56 233 -19 q 83 261 83 131 l 83 442 q 162 658 83 581 q 390 735 240 735 q 620 656 542 735 q 699 447 699 578 l 699 371 q 657 332 699 332 l 176 332 l 176 251 q 230 111 176 161 q 385 61 283 61 q 603 176 539 61 q 643 186 619 199 l 672 171 q 682 131 699 157 q 383 -19 599 -19 m 176 404 l 606 404 l 606 453 q 551 601 606 547 q 390 654 496 654 q 231 601 286 654 q 176 453 176 547 l 176 404 z "},"Ė":{"ha":832,"x_min":126,"x_max":761,"o":"m 432 1096 q 396 1106 406 1096 q 386 1142 386 1115 l 386 1150 q 396 1187 386 1176 q 432 1197 406 1197 l 439 1197 q 476 1188 467 1197 q 486 1150 486 1178 l 486 1142 q 476 1106 486 1115 q 439 1096 467 1096 l 432 1096 m 153 0 q 126 28 126 0 l 126 958 q 153 986 126 986 l 717 986 q 743 958 743 986 l 743 919 q 738 899 743 904 q 717 893 732 893 l 226 893 l 226 547 l 654 547 q 681 519 681 547 l 681 481 q 654 453 681 453 l 226 453 l 226 93 l 733 93 q 755 88 749 93 q 761 67 761 82 l 761 28 q 755 6 761 13 q 733 0 749 0 l 153 0 z "},"ė":{"ha":772,"x_min":83,"x_max":699,"o":"m 388 881 q 345 891 356 881 q 335 932 335 901 l 335 940 q 345 981 335 971 q 388 992 356 992 l 394 992 q 437 981 426 992 q 447 940 447 971 l 447 932 q 436 891 447 901 q 394 881 425 881 l 388 881 m 383 -19 q 158 56 233 -19 q 83 261 83 131 l 83 442 q 162 658 83 581 q 390 735 240 735 q 620 656 542 735 q 699 447 699 578 l 699 371 q 657 332 699 332 l 176 332 l 176 251 q 230 111 176 161 q 385 61 283 61 q 603 176 539 61 q 643 186 619 199 l 672 171 q 682 131 699 157 q 383 -19 599 -19 m 176 404 l 606 404 l 606 453 q 551 601 606 547 q 390 654 496 654 q 231 601 286 654 q 176 453 176 547 l 176 404 z "},"Ę":{"ha":832,"x_min":126,"x_max":768,"o":"m 638 -343 q 531 -269 551 -343 q 551 -140 513 -214 q 676 0 590 -67 l 153 0 q 126 28 126 0 l 126 958 q 153 986 126 986 l 717 986 q 743 958 743 986 l 743 919 q 738 899 743 904 q 717 893 732 893 l 226 893 l 226 546 l 654 546 q 681 518 681 546 l 681 479 q 675 458 681 464 q 654 453 669 453 l 226 453 l 226 93 l 733 93 q 755 88 749 93 q 761 67 761 82 l 761 28 q 751 4 761 13 q 636 -125 674 -60 q 613 -233 599 -190 q 667 -271 625 -271 q 735 -240 707 -271 q 751 -244 747 -233 l 763 -274 q 761 -293 768 -285 q 638 -343 707 -343 z "},"ę":{"ha":772,"x_min":83,"x_max":699,"o":"m 517 -343 q 410 -271 429 -343 q 425 -145 394 -219 q 522 3 456 -71 q 383 -19 463 -19 q 158 56 233 -19 q 83 261 83 131 l 83 442 q 162 658 83 581 q 390 735 240 735 q 620 656 542 735 q 699 447 699 578 l 699 371 q 657 332 699 332 l 176 332 l 176 251 q 230 111 176 161 q 385 61 283 61 q 603 176 539 61 q 643 186 619 199 l 672 171 q 682 131 699 157 q 628 60 661 92 q 515 -107 553 -21 q 490 -233 476 -193 q 546 -272 503 -272 q 615 -240 586 -272 q 632 -244 628 -233 l 643 -274 q 642 -293 649 -286 q 517 -343 588 -343 m 176 404 l 606 404 l 606 453 q 551 601 606 547 q 390 654 496 654 q 231 601 286 654 q 176 453 176 547 l 176 404 z "},"Ě":{"ha":832,"x_min":126,"x_max":761,"o":"m 429 1058 q 403 1062 411 1058 q 381 1082 396 1065 l 210 1231 q 204 1244 201 1238 q 222 1251 207 1251 l 258 1251 q 297 1238 283 1251 l 433 1122 l 565 1238 q 607 1251 579 1251 l 644 1251 q 663 1244 660 1251 q 657 1231 665 1238 l 488 1082 q 463 1062 471 1065 q 440 1058 456 1058 l 429 1058 m 153 0 q 126 28 126 0 l 126 958 q 153 986 126 986 l 717 986 q 743 958 743 986 l 743 919 q 738 899 743 904 q 717 893 732 893 l 226 893 l 226 547 l 654 547 q 681 519 681 547 l 681 481 q 654 453 681 453 l 226 453 l 226 93 l 733 93 q 755 88 749 93 q 761 67 761 82 l 761 28 q 755 6 761 13 q 733 0 749 0 l 153 0 z "},"ě":{"ha":772,"x_min":83,"x_max":699,"o":"m 385 829 q 359 833 367 829 q 336 851 351 836 l 165 1001 q 176 1022 144 1022 l 214 1022 q 253 1007 239 1022 l 389 893 l 521 1007 q 563 1022 536 1022 l 600 1022 q 613 1000 632 1022 l 443 851 q 396 829 419 829 l 385 829 m 383 -19 q 158 56 233 -19 q 83 261 83 131 l 83 442 q 162 658 83 581 q 390 735 240 735 q 620 656 542 735 q 699 447 699 578 l 699 371 q 657 332 699 332 l 176 332 l 176 251 q 230 111 176 161 q 385 61 283 61 q 603 176 539 61 q 643 186 619 199 l 672 171 q 682 131 699 157 q 383 -19 599 -19 m 176 404 l 606 404 l 606 453 q 551 601 606 547 q 390 654 496 654 q 231 601 286 654 q 176 453 176 547 l 176 404 z "},"Ĝ":{"ha":946,"x_min":97,"x_max":860,"o":"m 268 1074 q 256 1093 236 1074 l 426 1243 q 449 1262 442 1258 q 475 1265 457 1265 l 486 1265 q 510 1262 503 1265 q 533 1243 518 1258 l 704 1093 q 710 1080 713 1086 q 692 1074 707 1074 l 653 1074 q 613 1088 625 1074 l 479 1203 l 343 1088 q 304 1074 329 1074 l 268 1074 m 479 -19 q 196 74 294 -19 q 97 331 97 167 l 97 657 q 195 913 97 821 q 478 1006 293 1006 q 722 947 633 1006 q 847 768 810 888 q 849 745 853 753 q 831 732 846 738 l 788 718 q 753 735 761 708 q 658 869 722 826 q 478 913 594 913 q 269 846 340 913 q 197 658 197 779 l 197 331 q 270 141 197 208 q 479 74 343 74 q 688 138 614 74 q 761 313 761 203 l 761 418 l 493 418 q 465 444 465 418 l 465 483 q 472 505 465 499 q 493 511 478 511 l 832 511 q 853 505 847 511 q 860 483 860 499 l 860 313 q 760 71 860 161 q 479 -19 660 -19 z "},"ĝ":{"ha":781,"x_min":86,"x_max":674,"o":"m 189 829 q 176 850 158 829 l 347 999 q 370 1019 363 1015 q 396 1022 378 1022 l 407 1022 q 430 1019 422 1022 q 454 999 438 1015 l 625 850 q 613 829 643 829 l 574 829 q 533 843 546 829 l 400 958 l 264 843 q 225 829 250 829 l 189 829 m 381 -343 q 101 -194 183 -343 q 113 -154 86 -167 l 142 -137 q 182 -147 167 -124 q 257 -231 213 -203 q 378 -258 301 -258 q 581 -47 581 -258 l 581 39 q 361 -3 468 -3 q 86 268 86 -3 l 86 450 q 386 735 86 735 q 621 693 521 735 q 664 665 654 678 q 674 617 674 651 l 674 -43 q 381 -343 674 -343 m 372 82 q 581 124 469 82 l 581 586 q 576 609 581 603 q 554 622 572 615 q 392 650 479 650 q 179 449 179 650 l 179 271 q 372 82 179 82 z "},"Ğ":{"ha":946,"x_min":97,"x_max":860,"o":"m 478 1074 q 268 1224 311 1074 q 279 1249 263 1242 l 313 1261 q 338 1251 332 1267 q 478 1143 368 1143 q 618 1251 588 1143 q 640 1261 625 1267 l 678 1249 q 689 1224 694 1242 q 478 1074 643 1074 m 479 -19 q 196 74 294 -19 q 97 331 97 167 l 97 657 q 195 913 97 821 q 478 1006 293 1006 q 722 947 633 1006 q 847 768 810 888 q 849 745 853 753 q 831 732 846 738 l 788 718 q 753 735 761 708 q 658 869 722 826 q 478 913 594 913 q 269 846 340 913 q 197 658 197 779 l 197 331 q 270 141 197 208 q 479 74 343 74 q 688 138 614 74 q 761 313 761 203 l 761 418 l 493 418 q 465 444 465 418 l 465 483 q 472 505 465 499 q 493 511 478 511 l 832 511 q 853 505 847 511 q 860 483 860 499 l 860 313 q 760 71 860 161 q 479 -19 660 -19 z "},"ğ":{"ha":781,"x_min":86,"x_max":674,"o":"m 611 985 q 400 833 558 833 q 190 985 242 833 q 201 1008 185 1001 l 235 1021 q 260 1011 254 1026 q 400 903 297 903 q 540 1011 503 903 q 563 1021 547 1026 l 600 1008 q 611 985 617 1001 m 381 -343 q 101 -194 183 -343 q 113 -154 86 -167 l 142 -137 q 182 -147 167 -124 q 257 -231 213 -203 q 378 -258 301 -258 q 581 -47 581 -258 l 581 39 q 361 -3 468 -3 q 86 268 86 -3 l 86 450 q 386 735 86 735 q 621 693 521 735 q 664 665 654 678 q 674 617 674 651 l 674 -43 q 381 -343 674 -343 m 372 82 q 581 124 469 82 l 581 586 q 576 609 581 603 q 554 622 572 615 q 392 650 479 650 q 179 449 179 650 l 179 271 q 372 82 179 82 z "},"Ġ":{"ha":946,"x_min":97,"x_max":860,"o":"m 474 1110 q 438 1119 447 1110 q 428 1156 428 1129 l 428 1164 q 438 1201 428 1190 q 474 1211 447 1211 l 481 1211 q 518 1201 508 1211 q 528 1164 528 1192 l 528 1156 q 518 1119 528 1129 q 481 1110 508 1110 l 474 1110 m 479 -19 q 196 74 294 -19 q 97 331 97 167 l 97 657 q 195 913 97 821 q 478 1006 293 1006 q 722 947 633 1006 q 847 768 810 888 q 849 745 853 753 q 831 732 846 738 l 788 718 q 753 735 761 708 q 658 869 722 826 q 478 913 594 913 q 269 846 340 913 q 197 658 197 779 l 197 331 q 270 141 197 208 q 479 74 343 74 q 688 138 614 74 q 761 313 761 203 l 761 418 l 493 418 q 465 444 465 418 l 465 483 q 472 505 465 499 q 493 511 478 511 l 832 511 q 853 505 847 511 q 860 483 860 499 l 860 313 q 760 71 860 161 q 479 -19 660 -19 z "},"ġ":{"ha":781,"x_min":86,"x_max":674,"o":"m 397 879 q 355 890 365 879 q 344 931 344 900 l 344 939 q 355 980 344 969 q 397 990 365 990 l 404 990 q 447 980 436 990 q 457 939 457 969 l 457 931 q 446 890 457 900 q 404 879 435 879 l 397 879 m 381 -343 q 101 -194 183 -343 q 113 -154 86 -167 l 142 -137 q 182 -147 167 -124 q 257 -231 213 -203 q 378 -258 301 -258 q 581 -47 581 -258 l 581 39 q 361 -3 468 -3 q 86 268 86 -3 l 86 450 q 386 735 86 735 q 621 693 521 735 q 664 665 654 678 q 674 617 674 651 l 674 -43 q 381 -343 674 -343 m 372 82 q 581 124 469 82 l 581 586 q 576 609 581 603 q 554 622 572 615 q 392 650 479 650 q 179 449 179 650 l 179 271 q 372 82 179 82 z "},"Ģ":{"ha":946,"x_min":97,"x_max":860,"o":"m 479 -19 q 196 74 294 -19 q 97 331 97 167 l 97 657 q 195 913 97 821 q 478 1006 293 1006 q 722 947 633 1006 q 847 768 810 888 q 849 745 853 753 q 831 732 846 738 l 788 718 q 753 735 761 708 q 658 869 722 826 q 478 913 594 913 q 269 846 340 913 q 197 658 197 779 l 197 331 q 270 141 197 208 q 479 74 343 74 q 688 138 614 74 q 761 313 761 203 l 761 418 l 493 418 q 465 444 465 418 l 465 483 q 472 505 465 499 q 493 511 478 511 l 832 511 q 853 505 847 511 q 860 483 860 499 l 860 313 q 760 71 860 161 q 479 -19 660 -19 m 428 -346 q 411 -328 407 -346 l 457 -126 q 465 -106 458 -111 q 488 -100 472 -100 l 529 -100 q 553 -128 561 -100 l 488 -322 q 457 -346 481 -346 l 428 -346 z "},"ģ":{"ha":781,"x_min":86,"x_max":674,"o":"m 358 801 q 338 831 326 801 l 404 1000 q 416 1019 410 1015 q 436 1024 422 1024 l 461 1024 q 479 1004 483 1024 l 426 829 q 417 806 424 811 q 393 801 411 801 l 358 801 m 381 -343 q 101 -194 183 -343 q 113 -154 86 -167 l 142 -137 q 182 -147 167 -124 q 257 -231 213 -203 q 378 -258 301 -258 q 581 -47 581 -258 l 581 39 q 361 -3 468 -3 q 86 268 86 -3 l 86 450 q 386 735 86 735 q 621 693 521 735 q 664 665 654 678 q 674 617 674 651 l 674 -43 q 381 -343 674 -343 m 372 82 q 581 124 469 82 l 581 586 q 576 609 581 603 q 554 622 572 615 q 392 650 479 650 q 179 449 179 650 l 179 271 q 372 82 179 82 z "},"Ĥ":{"ha":982,"x_min":126,"x_max":856,"o":"m 281 1060 q 268 1079 249 1060 l 439 1229 q 462 1248 454 1244 q 488 1251 469 1251 l 499 1251 q 523 1248 515 1251 q 546 1229 531 1244 l 717 1079 q 722 1066 725 1072 q 704 1060 719 1060 l 665 1060 q 625 1074 638 1060 l 492 1189 l 356 1074 q 317 1060 342 1060 l 281 1060 m 153 0 q 126 28 126 0 l 126 958 q 153 986 126 986 l 200 986 q 226 958 226 986 l 226 547 l 756 547 l 756 958 q 762 980 756 974 q 783 986 768 986 l 829 986 q 856 958 856 986 l 856 28 q 829 0 856 0 l 783 0 q 762 6 768 0 q 756 28 756 13 l 756 453 l 226 453 l 226 28 q 200 0 226 0 l 153 0 z "},"ĥ":{"ha":801,"x_min":-86,"x_max":697,"o":"m -54 1081 q -67 1100 -86 1081 l 104 1250 q 127 1269 119 1265 q 153 1272 135 1272 l 164 1272 q 188 1269 181 1272 q 211 1250 196 1265 l 382 1100 q 388 1087 390 1093 q 369 1081 385 1081 l 331 1081 q 290 1094 303 1081 l 157 1210 l 21 1094 q -18 1081 7 1081 l -54 1081 m 136 0 q 117 6 122 0 q 111 25 111 11 l 111 1003 q 117 1022 111 1017 q 136 1028 122 1028 l 179 1028 q 204 1003 204 1028 l 204 696 q 422 735 288 735 q 697 463 697 735 l 697 25 q 692 6 697 11 q 672 0 686 0 l 629 0 q 604 25 604 0 l 604 460 q 410 650 604 650 q 204 608 288 650 l 204 25 q 179 0 204 0 l 136 0 z "},"Ħ":{"ha":993,"x_min":31,"x_max":964,"o":"m 160 0 q 138 6 144 0 q 132 28 132 13 l 132 760 l 49 760 q 31 781 31 760 l 31 803 q 49 822 31 822 l 132 822 l 132 958 q 138 980 132 974 q 160 986 144 986 l 206 986 q 232 958 232 986 l 232 822 l 761 822 l 761 958 q 767 980 761 974 q 789 986 774 986 l 835 986 q 856 980 850 986 q 861 958 861 974 l 861 822 l 946 822 q 964 803 964 822 l 964 781 q 946 760 964 760 l 861 760 l 861 28 q 856 6 861 13 q 835 0 850 0 l 789 0 q 767 6 774 0 q 761 28 761 13 l 761 453 l 232 453 l 232 28 q 206 0 232 0 l 160 0 m 232 547 l 761 547 l 761 760 l 232 760 l 232 547 z "},"ħ":{"ha":801,"x_min":19,"x_max":697,"o":"m 135 0 q 110 25 110 0 l 110 854 l 38 854 q 23 858 26 854 q 19 874 19 861 l 19 893 q 38 913 19 913 l 110 913 l 110 1003 q 135 1028 110 1028 l 178 1028 q 197 1022 192 1028 q 203 1003 203 1017 l 203 913 l 421 913 q 439 893 439 913 l 439 874 q 435 858 439 861 q 421 854 432 854 l 203 854 l 203 696 q 421 735 289 735 q 697 463 697 735 l 697 25 q 672 0 697 0 l 629 0 q 609 6 614 0 q 604 25 604 11 l 604 460 q 410 650 604 650 q 203 608 286 650 l 203 25 q 197 6 203 11 q 178 0 192 0 l 135 0 z "},"Ĩ":{"ha":353,"x_min":-42,"x_max":386,"o":"m -25 1069 q -42 1086 -42 1069 q 67 1225 -42 1225 q 144 1201 108 1225 q 211 1155 181 1178 q 272 1132 242 1132 q 328 1208 328 1132 q 343 1225 328 1225 l 371 1225 q 386 1208 386 1225 q 279 1069 386 1069 q 203 1093 239 1069 q 137 1140 168 1117 q 75 1163 106 1163 q 18 1086 18 1163 q 3 1069 18 1069 l -25 1069 m 153 0 q 126 28 126 0 l 126 958 q 153 986 126 986 l 200 986 q 226 958 226 986 l 226 28 q 200 0 226 0 l 153 0 z "},"ĩ":{"ha":314,"x_min":-11,"x_max":315,"o":"m 4 835 q -11 853 -11 835 q 78 989 -11 989 q 158 944 121 989 q 224 899 196 899 q 264 972 264 899 q 278 989 264 989 l 301 989 q 315 972 315 989 q 294 867 315 899 q 231 835 274 835 q 175 857 199 835 q 131 901 151 879 q 86 924 111 924 q 42 853 42 924 q 28 835 42 835 l 4 835 m 135 0 q 110 25 110 0 l 110 689 q 135 714 110 714 l 178 714 q 197 708 192 714 q 203 689 203 703 l 203 25 q 197 6 203 11 q 178 0 192 0 l 135 0 z "},"Ī":{"ha":353,"x_min":-11,"x_max":364,"o":"m 13 1111 q -6 1116 -1 1111 q -11 1135 -11 1121 l -11 1157 q 13 1181 -11 1181 l 340 1181 q 359 1176 354 1181 q 364 1157 364 1171 l 364 1135 q 359 1116 364 1121 q 340 1111 354 1111 l 13 1111 m 153 0 q 126 28 126 0 l 126 958 q 153 986 126 986 l 200 986 q 226 958 226 986 l 226 28 q 200 0 226 0 l 153 0 z "},"ī":{"ha":314,"x_min":33,"x_max":278,"o":"m 57 863 q 38 867 43 863 q 33 886 33 872 l 33 907 q 57 932 33 932 l 254 932 q 273 926 268 932 q 278 907 278 921 l 278 886 q 273 867 278 872 q 254 863 268 863 l 57 863 m 135 0 q 110 25 110 0 l 110 689 q 135 714 110 714 l 178 714 q 197 708 192 714 q 203 689 203 703 l 203 25 q 197 6 203 11 q 178 0 192 0 l 135 0 z "},"Ĭ":{"ha":353,"x_min":-39,"x_max":393,"o":"m 388 1210 q 176 1060 342 1060 q -33 1210 11 1060 q -22 1235 -39 1228 l 11 1247 q 36 1238 31 1253 q 176 1129 67 1129 q 317 1238 286 1129 q 339 1247 324 1253 l 376 1235 q 388 1210 393 1228 m 153 0 q 126 28 126 0 l 126 958 q 153 986 126 986 l 200 986 q 226 958 226 986 l 226 28 q 200 0 226 0 l 153 0 z "},"ĭ":{"ha":314,"x_min":-28,"x_max":340,"o":"m 156 814 q 40 852 86 814 q -22 960 -7 890 q -11 983 -28 978 l 21 994 q 47 985 42 1000 q 156 885 65 885 q 265 985 247 885 q 288 996 271 1000 l 324 983 q 336 960 340 976 q 156 814 301 814 m 135 0 q 110 25 110 0 l 110 689 q 135 714 110 714 l 178 714 q 197 708 192 714 q 203 689 203 703 l 203 25 q 197 6 203 11 q 178 0 192 0 l 135 0 z "},"Į":{"ha":353,"x_min":26,"x_max":297,"o":"m 165 -343 q 58 -271 78 -343 q 154 1 26 -162 q 132 8 138 1 q 126 28 126 14 l 126 958 q 153 986 126 986 l 200 986 q 226 958 226 986 l 226 28 q 219 4 226 11 q 139 -233 110 -144 q 193 -271 153 -271 q 264 -240 233 -271 q 281 -244 276 -233 l 292 -274 q 290 -293 297 -285 q 165 -343 236 -343 z "},"į":{"ha":314,"x_min":43,"x_max":265,"o":"m 153 875 q 111 886 122 875 q 100 928 100 897 l 100 938 q 111 979 100 968 q 153 990 122 990 l 161 990 q 203 979 192 990 q 214 938 214 968 l 214 928 q 203 886 214 897 q 161 875 192 875 l 153 875 m 153 -342 q 83 -320 111 -342 q 50 -258 56 -299 q 70 -121 43 -196 q 131 1 97 -46 q 110 25 110 3 l 110 689 q 135 714 110 714 l 178 714 q 197 708 192 714 q 203 689 203 703 l 203 25 q 199 6 203 11 q 149 -108 171 -40 q 131 -226 126 -175 q 147 -260 132 -247 q 179 -272 161 -272 q 231 -242 213 -272 q 249 -246 242 -235 l 260 -271 q 258 -289 265 -282 q 153 -342 221 -342 z "},"İ":{"ha":353,"x_min":126,"x_max":226,"o":"m 172 1096 q 136 1106 146 1096 q 126 1142 126 1115 l 126 1150 q 136 1187 126 1176 q 172 1197 146 1197 l 179 1197 q 216 1188 206 1197 q 226 1150 226 1178 l 226 1142 q 217 1106 226 1115 q 179 1096 207 1096 l 172 1096 m 153 0 q 126 28 126 0 l 126 958 q 153 986 126 986 l 200 986 q 226 958 226 986 l 226 28 q 200 0 226 0 l 153 0 z "},"ı":{"ha":314,"x_min":110,"x_max":203,"o":"m 135 0 q 110 25 110 0 l 110 689 q 135 714 110 714 l 178 714 q 197 708 192 714 q 203 689 203 703 l 203 25 q 197 6 203 11 q 178 0 192 0 l 135 0 z "},"Ĳ":{"ha":1181,"x_min":126,"x_max":1061,"o":"m 153 0 q 126 28 126 0 l 126 958 q 153 986 126 986 l 200 986 q 226 958 226 986 l 226 28 q 200 0 226 0 l 153 0 m 726 -21 q 399 239 461 -21 q 415 275 389 265 l 458 290 q 494 272 485 300 q 572 124 517 174 q 726 74 626 74 q 901 135 840 74 q 961 308 961 197 l 961 960 q 988 986 961 986 l 1035 986 q 1056 981 1050 986 q 1061 960 1061 975 l 1061 310 q 974 67 1061 154 q 726 -21 888 -21 z "},"ĳ":{"ha":628,"x_min":101,"x_max":528,"o":"m 153 879 q 112 890 122 879 q 101 931 101 900 l 101 939 q 112 980 101 969 q 153 990 122 990 l 161 990 q 202 980 192 990 q 213 939 213 969 l 213 931 q 202 890 213 900 q 161 879 192 879 l 153 879 m 468 879 q 427 890 438 879 q 417 931 417 900 l 417 939 q 427 980 417 969 q 468 990 438 990 l 476 990 q 517 980 507 990 q 528 939 528 969 l 528 931 q 517 890 528 900 q 476 879 507 879 l 468 879 m 135 0 q 110 25 110 0 l 110 689 q 135 714 110 714 l 178 714 q 197 708 192 714 q 203 689 203 703 l 203 25 q 197 6 203 11 q 178 0 192 0 l 135 0 m 229 -321 q 204 -294 204 -321 l 204 -258 q 229 -232 204 -232 q 381 -177 338 -232 q 425 -11 425 -122 l 425 689 q 431 708 425 703 q 450 714 436 714 l 492 714 q 518 689 518 714 l 518 -12 q 450 -242 518 -164 q 229 -321 382 -321 z "},"Ĵ":{"ha":828,"x_min":36,"x_max":892,"o":"m 447 1060 q 435 1079 415 1060 l 606 1229 q 628 1248 621 1244 q 654 1251 636 1251 l 665 1251 q 690 1248 682 1251 q 713 1229 697 1244 l 883 1079 q 889 1066 892 1072 q 871 1060 886 1060 l 832 1060 q 792 1074 804 1060 l 658 1189 l 522 1074 q 483 1060 508 1060 l 447 1060 m 374 -21 q 46 239 108 -21 q 63 275 36 265 l 106 290 q 142 272 132 300 q 219 124 164 174 q 374 74 274 74 q 548 135 488 74 q 608 308 608 197 l 608 960 q 635 986 608 986 l 682 986 q 703 981 697 986 q 708 960 708 975 l 708 310 q 622 67 708 154 q 374 -21 535 -21 z "},"ĵ":{"ha":315,"x_min":-110,"x_max":371,"o":"m -26 803 q -39 824 -57 803 l 104 969 q 127 988 119 985 q 153 992 135 992 l 164 992 q 210 969 189 992 l 353 824 q 339 803 371 803 l 304 803 q 263 817 276 803 l 157 931 l 47 817 q 8 803 33 803 l -26 803 m -85 -321 q -110 -294 -110 -321 l -110 -258 q -85 -232 -110 -232 q 67 -177 24 -232 q 111 -11 111 -122 l 111 689 q 117 708 111 703 q 136 714 122 714 l 178 714 q 204 689 204 714 l 204 -12 q 136 -242 204 -164 q -85 -321 68 -321 z "},"Ķ":{"ha":882,"x_min":126,"x_max":851,"o":"m 153 0 q 126 28 126 0 l 126 958 q 153 986 126 986 l 200 986 q 226 958 226 986 l 226 546 l 360 546 l 390 546 l 701 963 q 757 986 719 986 l 807 986 q 825 978 821 986 q 821 960 829 969 l 492 526 q 660 371 596 497 l 836 28 q 821 0 851 0 l 776 0 q 722 24 733 0 l 567 333 q 491 427 533 400 q 368 454 449 454 l 226 454 l 226 28 q 200 0 226 0 l 153 0 m 399 -346 q 382 -328 378 -346 l 428 -126 q 436 -106 429 -111 q 458 -100 443 -100 l 500 -100 q 524 -128 532 -100 l 458 -322 q 428 -346 451 -346 l 399 -346 z "},"ķ":{"ha":740,"x_min":111,"x_max":699,"o":"m 138 0 q 117 6 122 0 q 111 26 111 11 l 111 1003 q 117 1023 111 1018 q 138 1028 122 1028 l 178 1028 q 204 1003 204 1028 l 204 410 l 338 410 l 350 410 l 574 694 q 592 711 583 708 q 622 714 600 714 l 661 714 q 678 685 699 714 l 443 392 q 564 279 518 372 l 689 29 q 694 7 697 14 q 674 0 690 0 l 632 0 q 603 4 611 0 q 589 22 596 8 l 483 239 q 431 303 463 283 q 349 324 400 324 l 204 324 l 204 26 q 199 6 204 11 q 178 0 193 0 l 138 0 m 294 -346 q 278 -328 274 -346 l 324 -126 q 332 -106 325 -111 q 354 -100 339 -100 l 396 -100 q 419 -128 428 -100 l 354 -322 q 324 -346 347 -346 l 294 -346 z "},"ĸ":{"ha":694,"x_min":110,"x_max":669,"o":"m 136 0 q 115 6 121 0 q 110 26 110 11 l 110 689 q 136 714 110 714 l 178 714 q 197 708 192 714 q 203 689 203 703 l 203 336 l 531 694 q 550 710 542 707 q 581 714 558 714 l 621 714 q 636 685 658 714 l 381 403 l 647 31 q 632 0 669 0 l 592 0 q 539 21 554 0 l 318 332 l 203 207 l 203 26 q 198 6 203 11 q 178 0 193 0 l 136 0 z "},"Ĺ":{"ha":760,"x_min":15,"x_max":724,"o":"m 76 1061 q 43 1064 53 1053 l 31 1079 q 33 1107 15 1099 l 257 1247 q 304 1244 289 1263 l 325 1219 q 321 1190 342 1199 l 76 1061 m 153 0 q 126 28 126 0 l 126 958 q 153 986 126 986 l 200 986 q 226 958 226 986 l 226 93 l 697 93 q 718 88 713 93 q 724 67 724 82 l 724 28 q 697 0 724 0 l 153 0 z "},"ĺ":{"ha":324,"x_min":1,"x_max":326,"o":"m 61 1060 q 28 1061 39 1050 l 15 1078 q 17 1106 1 1096 l 242 1244 q 289 1243 272 1261 l 310 1218 q 306 1189 326 1197 l 61 1060 m 140 0 q 120 6 125 0 q 115 25 115 11 l 115 1003 q 120 1022 115 1017 q 140 1028 125 1028 l 183 1028 q 208 1003 208 1028 l 208 25 q 183 0 208 0 l 140 0 z "},"Ļ":{"ha":760,"x_min":126,"x_max":724,"o":"m 153 0 q 126 28 126 0 l 126 958 q 153 986 126 986 l 200 986 q 226 958 226 986 l 226 93 l 697 93 q 718 88 713 93 q 724 67 724 82 l 724 28 q 697 0 724 0 l 153 0 m 350 -346 q 333 -328 329 -346 l 379 -126 q 388 -106 381 -111 q 410 -100 394 -100 l 451 -100 q 475 -128 483 -100 l 410 -322 q 379 -346 403 -346 l 350 -346 z "},"ļ":{"ha":324,"x_min":65,"x_max":219,"o":"m 140 0 q 120 6 125 0 q 115 25 115 11 l 115 1003 q 120 1022 115 1017 q 140 1028 125 1028 l 183 1028 q 208 1003 208 1028 l 208 25 q 183 0 208 0 l 140 0 m 86 -346 q 69 -328 65 -346 l 115 -126 q 124 -106 117 -111 q 146 -100 131 -100 l 188 -100 q 211 -128 219 -100 l 146 -322 q 115 -346 139 -346 l 86 -346 z "},"Ľ":{"ha":761,"x_min":163,"x_max":760,"o":"m 189 0 q 163 28 163 0 l 163 958 q 189 986 163 986 l 235 986 q 256 980 250 986 q 263 958 263 974 l 263 93 l 732 93 q 753 88 747 93 q 760 67 760 82 l 760 28 q 753 6 760 13 q 732 0 747 0 l 189 0 m 481 675 q 465 693 461 675 l 514 961 q 521 981 515 976 q 543 986 526 986 l 582 986 q 604 960 614 986 l 533 699 q 504 675 526 675 l 481 675 z "},"ľ":{"ha":333,"x_min":115,"x_max":463,"o":"m 140 0 q 120 6 125 0 q 115 25 115 11 l 115 1003 q 120 1022 115 1017 q 140 1028 125 1028 l 183 1028 q 208 1003 208 1028 l 208 25 q 183 0 208 0 l 140 0 m 339 746 q 322 765 318 746 l 363 1003 q 370 1023 364 1018 q 393 1028 376 1028 l 431 1028 q 453 1001 463 1028 l 390 769 q 361 746 381 746 l 339 746 z "},"Ŀ":{"ha":761,"x_min":126,"x_max":724,"o":"m 153 0 q 126 28 126 0 l 126 958 q 153 986 126 986 l 200 986 q 226 958 226 986 l 226 93 l 697 93 q 718 88 713 93 q 724 67 724 82 l 724 28 q 697 0 724 0 l 153 0 m 533 443 q 489 455 501 443 q 476 500 476 467 l 476 508 q 489 553 476 540 q 533 565 501 565 l 542 565 q 585 553 574 565 q 597 508 597 540 l 597 500 q 585 455 597 467 q 542 443 574 443 l 533 443 z "},"ŀ":{"ha":490,"x_min":115,"x_max":486,"o":"m 140 0 q 120 6 125 0 q 115 25 115 11 l 115 1003 q 120 1022 115 1017 q 140 1028 125 1028 l 183 1028 q 208 1003 208 1028 l 208 25 q 183 0 208 0 l 140 0 m 422 460 q 378 472 390 460 q 365 515 365 483 l 365 525 q 378 569 365 557 q 422 582 390 582 l 431 582 q 474 569 463 582 q 486 525 486 557 l 486 515 q 474 472 486 483 q 431 460 463 460 l 422 460 z "},"Ł":{"ha":800,"x_min":3,"x_max":763,"o":"m 192 0 q 171 6 176 0 q 165 28 165 13 l 165 396 l 56 344 q 29 353 38 333 l 14 383 q 21 408 3 401 l 165 476 l 165 958 q 171 980 165 974 q 192 986 176 986 l 238 986 q 259 980 253 986 q 265 958 265 974 l 265 522 l 554 661 q 583 651 575 669 l 599 622 q 589 597 607 606 l 265 442 l 265 93 l 735 93 q 756 88 750 93 q 763 67 763 82 l 763 28 q 756 6 763 13 q 735 0 750 0 l 192 0 z "},"ł":{"ha":432,"x_min":24,"x_max":408,"o":"m 190 0 q 165 25 165 0 l 165 453 l 76 400 q 49 407 58 390 l 32 435 q 39 460 24 451 l 165 533 l 165 1003 q 190 1028 165 1028 l 233 1028 q 253 1022 247 1028 q 258 1003 258 1017 l 258 583 l 356 640 q 385 635 374 650 l 400 607 q 392 582 408 589 l 258 504 l 258 25 q 253 6 258 11 q 233 0 247 0 l 190 0 z "},"Ń":{"ha":994,"x_min":126,"x_max":869,"o":"m 397 1061 q 364 1064 374 1053 l 351 1079 q 354 1107 336 1099 l 578 1247 q 625 1244 610 1263 l 646 1219 q 642 1190 663 1199 l 397 1061 m 153 0 q 126 28 126 0 l 126 958 q 153 986 126 986 l 199 986 q 226 972 217 986 l 660 349 q 733 226 692 301 q 783 138 774 151 l 788 138 q 780 243 788 153 q 772 397 772 333 l 772 960 q 778 981 772 975 q 799 986 783 986 l 842 986 q 863 980 857 986 q 869 958 869 974 l 869 28 q 863 6 869 13 q 842 0 857 0 l 797 0 q 768 15 776 0 l 325 651 q 260 765 297 693 q 213 850 222 838 l 208 850 q 216 751 208 839 q 224 606 224 664 l 224 28 q 217 6 224 13 q 196 0 211 0 l 153 0 z "},"ń":{"ha":799,"x_min":107,"x_max":694,"o":"m 297 839 q 264 842 274 831 l 251 857 q 254 885 236 876 l 478 1025 q 525 1022 510 1040 l 546 997 q 542 968 564 978 l 297 839 m 132 0 q 107 25 107 0 l 107 611 q 117 658 107 643 q 160 688 128 674 q 418 735 275 735 q 694 463 694 735 l 694 25 q 669 0 694 0 l 626 0 q 606 6 611 0 q 601 25 601 11 l 601 460 q 407 650 601 650 q 222 618 310 650 q 200 583 200 608 l 200 25 q 194 6 200 11 q 175 0 189 0 l 132 0 z "},"Ņ":{"ha":994,"x_min":126,"x_max":869,"o":"m 153 0 q 126 28 126 0 l 126 958 q 153 986 126 986 l 199 986 q 226 972 217 986 l 660 349 q 733 226 692 301 q 783 138 774 151 l 788 138 q 780 243 788 153 q 772 397 772 333 l 772 960 q 778 981 772 975 q 799 986 783 986 l 842 986 q 863 980 857 986 q 869 958 869 974 l 869 28 q 863 6 869 13 q 842 0 857 0 l 797 0 q 768 15 776 0 l 325 651 q 260 765 297 693 q 213 850 222 838 l 208 850 q 216 751 208 839 q 224 606 224 664 l 224 28 q 217 6 224 13 q 196 0 211 0 l 153 0 m 431 -346 q 414 -328 410 -346 l 460 -126 q 468 -106 461 -111 q 490 -100 475 -100 l 532 -100 q 556 -128 564 -100 l 490 -322 q 460 -346 483 -346 l 431 -346 z "},"ņ":{"ha":799,"x_min":107,"x_max":694,"o":"m 132 0 q 107 25 107 0 l 107 611 q 117 658 107 643 q 160 688 128 674 q 418 735 275 735 q 694 463 694 735 l 694 25 q 669 0 694 0 l 626 0 q 606 6 611 0 q 601 25 601 11 l 601 460 q 407 650 601 650 q 222 618 310 650 q 200 583 200 608 l 200 25 q 194 6 200 11 q 175 0 189 0 l 132 0 m 324 -346 q 307 -328 303 -346 l 353 -126 q 361 -106 354 -111 q 383 -100 368 -100 l 425 -100 q 449 -128 457 -100 l 383 -322 q 353 -346 376 -346 l 324 -346 z "},"Ň":{"ha":994,"x_min":126,"x_max":869,"o":"m 492 1058 q 466 1062 474 1058 q 443 1082 458 1065 l 272 1231 q 267 1244 264 1238 q 285 1251 269 1251 l 321 1251 q 360 1238 346 1251 l 496 1122 l 628 1238 q 669 1251 642 1251 l 707 1251 q 725 1244 722 1251 q 719 1231 728 1238 l 550 1082 q 526 1062 533 1065 q 503 1058 518 1058 l 492 1058 m 153 0 q 126 28 126 0 l 126 958 q 153 986 126 986 l 199 986 q 226 972 217 986 l 660 349 q 733 226 692 301 q 783 138 774 151 l 788 138 q 780 243 788 153 q 772 397 772 333 l 772 960 q 778 981 772 975 q 799 986 783 986 l 842 986 q 863 980 857 986 q 869 958 869 974 l 869 28 q 863 6 869 13 q 842 0 857 0 l 797 0 q 768 15 776 0 l 325 651 q 260 765 297 693 q 213 850 222 838 l 208 850 q 216 751 208 839 q 224 606 224 664 l 224 28 q 217 6 224 13 q 196 0 211 0 l 153 0 z "},"ň":{"ha":799,"x_min":107,"x_max":694,"o":"m 392 829 q 366 833 374 829 q 343 851 358 836 l 172 1001 q 183 1022 151 1022 l 221 1022 q 260 1007 246 1022 l 396 893 l 528 1007 q 569 1022 543 1022 l 607 1022 q 619 1000 639 1022 l 450 851 q 403 829 426 829 l 392 829 m 132 0 q 107 25 107 0 l 107 611 q 117 658 107 643 q 160 688 128 674 q 418 735 275 735 q 694 463 694 735 l 694 25 q 669 0 694 0 l 626 0 q 606 6 611 0 q 601 25 601 11 l 601 460 q 407 650 601 650 q 222 618 310 650 q 200 583 200 608 l 200 25 q 194 6 200 11 q 175 0 189 0 l 132 0 z "},"ŉ":{"ha":799,"x_min":69,"x_max":694,"o":"m 88 749 q 75 768 69 749 l 175 1006 q 185 1024 181 1019 q 206 1028 190 1028 l 249 1028 q 267 1001 282 1028 l 142 767 q 111 749 132 749 l 88 749 m 132 0 q 107 25 107 0 l 107 611 q 117 658 107 643 q 160 688 128 674 q 418 735 275 735 q 694 463 694 735 l 694 25 q 669 0 694 0 l 626 0 q 606 6 611 0 q 601 25 601 11 l 601 460 q 407 650 601 650 q 222 618 310 650 q 200 583 200 608 l 200 25 q 194 6 200 11 q 175 0 189 0 l 132 0 z "},"Ŋ":{"ha":994,"x_min":126,"x_max":869,"o":"m 556 -319 q 536 -314 542 -319 q 531 -294 531 -308 l 531 -258 q 535 -237 531 -243 q 556 -232 540 -232 q 717 -174 663 -232 q 772 -12 772 -117 l 772 10 l 325 651 q 260 765 297 693 q 213 850 222 838 l 208 850 q 216 760 208 842 q 224 624 224 679 l 224 28 q 217 6 224 13 q 196 0 211 0 l 153 0 q 126 28 126 0 l 126 958 q 153 986 126 986 l 199 986 q 226 972 217 986 l 660 349 q 733 226 692 301 q 783 138 774 151 l 788 138 q 780 243 788 153 q 772 397 772 333 l 772 960 q 778 981 772 975 q 799 986 783 986 l 842 986 q 863 980 857 986 q 869 958 869 974 l 869 -17 q 788 -240 869 -160 q 556 -319 707 -319 z "},"ŋ":{"ha":799,"x_min":107,"x_max":694,"o":"m 388 -319 q 369 -315 374 -319 q 364 -296 364 -310 l 364 -260 q 369 -241 364 -246 q 388 -236 374 -236 q 547 -179 493 -236 q 601 -19 601 -122 l 601 460 q 407 650 601 650 q 222 618 310 650 q 200 583 200 608 l 200 25 q 194 6 200 11 q 175 0 189 0 l 132 0 q 107 25 107 0 l 107 611 q 117 658 107 643 q 160 688 128 674 q 418 735 275 735 q 694 463 694 735 l 694 -22 q 615 -242 694 -164 q 388 -319 536 -319 z "},"Ō":{"ha":957,"x_min":97,"x_max":860,"o":"m 315 1125 q 297 1130 301 1125 q 292 1149 292 1135 l 292 1171 q 315 1194 292 1194 l 643 1194 q 662 1190 657 1194 q 667 1171 667 1185 l 667 1149 q 662 1130 667 1135 q 643 1125 657 1125 l 315 1125 m 479 -19 q 196 73 294 -19 q 97 329 97 165 l 97 657 q 196 913 97 821 q 479 1006 294 1006 q 761 913 663 1006 q 860 657 860 821 l 860 329 q 761 73 860 165 q 479 -19 663 -19 m 270 140 q 307 107 270 140 q 479 74 343 74 q 688 140 615 74 q 760 329 760 207 l 760 657 q 688 846 760 779 q 479 913 615 913 q 270 846 343 913 q 197 657 197 779 l 197 329 q 270 140 197 207 z "},"ō":{"ha":785,"x_min":88,"x_max":697,"o":"m 228 886 q 209 891 214 886 q 204 910 204 896 l 204 931 q 210 949 204 944 q 228 954 215 954 l 556 954 q 574 949 569 954 q 579 931 579 944 l 579 910 q 574 891 579 896 q 556 886 569 886 l 228 886 m 392 -19 q 169 49 250 -19 q 88 235 88 117 l 88 479 q 169 667 88 599 q 392 735 250 735 q 616 667 535 735 q 697 479 697 599 l 697 235 q 616 48 697 115 q 392 -19 535 -19 m 392 64 q 547 110 490 64 q 604 235 604 156 l 604 481 q 547 605 604 560 q 392 650 490 650 q 238 605 294 650 q 181 481 181 560 l 181 235 q 238 110 181 156 q 392 64 294 64 z "},"Ŏ":{"ha":957,"x_min":97,"x_max":860,"o":"m 690 1224 q 479 1074 644 1074 q 269 1224 314 1074 q 281 1249 264 1242 l 314 1261 q 339 1251 333 1267 q 479 1143 369 1143 q 619 1251 589 1143 q 642 1261 626 1267 l 679 1249 q 690 1224 696 1242 m 479 -19 q 196 73 294 -19 q 97 329 97 165 l 97 657 q 196 913 97 821 q 479 1006 294 1006 q 761 913 663 1006 q 860 657 860 821 l 860 329 q 761 73 860 165 q 479 -19 663 -19 m 270 140 q 307 107 270 140 q 479 74 343 74 q 688 140 615 74 q 760 329 760 207 l 760 657 q 688 846 760 779 q 479 913 615 913 q 270 846 343 913 q 197 657 197 779 l 197 329 q 270 140 197 207 z "},"ŏ":{"ha":785,"x_min":88,"x_max":697,"o":"m 603 985 q 392 833 550 833 q 182 985 233 833 q 193 1008 176 1001 l 226 1021 q 251 1011 246 1026 q 392 903 289 903 q 532 1011 494 903 q 554 1021 539 1026 l 592 1008 q 603 985 608 1001 m 392 -19 q 169 49 250 -19 q 88 235 88 117 l 88 479 q 169 667 88 599 q 392 735 250 735 q 616 667 535 735 q 697 479 697 599 l 697 235 q 616 48 697 115 q 392 -19 535 -19 m 392 64 q 547 110 490 64 q 604 235 604 156 l 604 481 q 547 605 604 560 q 392 650 490 650 q 238 605 294 650 q 181 481 181 560 l 181 235 q 238 110 181 156 q 392 64 294 64 z "},"Ő":{"ha":957,"x_min":97,"x_max":860,"o":"m 311 1074 l 294 1078 q 286 1104 275 1085 l 413 1251 q 454 1268 429 1276 l 485 1260 q 493 1232 511 1250 l 342 1083 q 311 1074 324 1067 m 546 1069 l 531 1075 q 522 1101 508 1082 l 653 1251 q 696 1268 671 1275 l 728 1260 q 736 1232 756 1249 l 578 1081 q 546 1069 560 1065 m 479 -19 q 196 73 294 -19 q 97 329 97 165 l 97 657 q 196 913 97 821 q 479 1006 294 1006 q 761 913 663 1006 q 860 657 860 821 l 860 329 q 761 73 860 165 q 479 -19 663 -19 m 270 140 q 307 107 270 140 q 479 74 343 74 q 688 140 615 74 q 760 329 760 207 l 760 657 q 688 846 760 779 q 479 913 615 913 q 270 846 343 913 q 197 657 197 779 l 197 329 q 270 140 197 207 z "},"ő":{"ha":785,"x_min":88,"x_max":697,"o":"m 224 826 l 207 832 q 199 857 188 839 l 325 1006 q 367 1022 342 1029 l 397 1013 q 406 985 425 1004 l 254 838 q 224 826 236 822 m 457 825 l 442 831 q 433 856 419 838 l 567 1004 q 610 1021 586 1028 l 642 1011 q 650 983 672 1003 l 489 836 q 457 825 469 821 m 392 -19 q 169 49 250 -19 q 88 235 88 117 l 88 479 q 169 667 88 599 q 392 735 250 735 q 616 667 535 735 q 697 479 697 599 l 697 235 q 616 48 697 115 q 392 -19 535 -19 m 392 64 q 547 110 490 64 q 604 235 604 156 l 604 481 q 547 605 604 560 q 392 650 490 650 q 238 605 294 650 q 181 481 181 560 l 181 235 q 238 110 181 156 q 392 64 294 64 z "},"Œ":{"ha":1208,"x_min":97,"x_max":1139,"o":"m 479 -21 q 196 72 294 -21 q 97 329 97 165 l 97 657 q 196 914 97 821 q 479 1007 294 1007 q 633 986 560 1007 l 1093 986 q 1115 980 1108 986 q 1121 958 1121 974 l 1121 919 q 1115 899 1121 904 q 1093 893 1108 893 l 706 893 l 706 546 l 1031 546 q 1052 540 1046 546 q 1058 518 1058 533 l 1058 479 q 1052 458 1058 464 q 1031 453 1046 453 l 706 453 l 706 93 l 1111 93 q 1133 88 1126 93 q 1139 67 1139 82 l 1139 28 q 1133 6 1139 13 q 1111 0 1126 0 l 633 0 q 479 -21 557 -21 m 479 72 q 604 92 553 72 l 604 894 q 479 914 546 914 q 270 847 343 914 q 197 657 197 779 l 197 329 q 270 140 197 207 q 479 72 343 72 z "},"œ":{"ha":1171,"x_min":89,"x_max":1097,"o":"m 364 -19 q 163 48 236 -19 q 89 233 89 115 l 89 481 q 163 667 89 599 q 364 735 236 735 q 506 702 446 735 q 594 611 567 669 q 819 735 654 735 q 1028 658 961 735 q 1096 449 1096 581 l 1096 371 q 1054 332 1096 332 l 639 332 l 639 250 q 817 61 639 61 q 928 88 889 61 q 1000 174 967 115 q 1040 185 1017 197 l 1069 168 q 1079 129 1097 156 q 980 18 1039 56 q 817 -19 921 -19 q 593 99 650 -19 q 364 -19 533 -19 m 639 404 l 1003 404 l 1003 454 q 819 654 1003 654 q 639 454 639 654 l 639 404 m 231 108 q 256 85 231 108 q 364 63 281 63 q 497 108 447 63 q 546 233 546 154 l 546 481 q 497 606 546 560 q 364 651 447 651 q 231 606 281 651 q 182 481 182 560 l 182 233 q 231 108 182 154 z "},"Ŕ":{"ha":931,"x_min":126,"x_max":879,"o":"m 357 1061 q 324 1064 333 1053 l 311 1079 q 314 1107 296 1099 l 538 1247 q 585 1244 569 1263 l 606 1219 q 601 1190 622 1199 l 357 1061 m 153 0 q 126 28 126 0 l 126 958 q 153 986 126 986 l 547 986 q 762 910 685 986 q 839 699 839 835 q 780 514 839 585 q 615 426 721 443 q 706 331 669 401 l 861 28 q 847 0 879 0 l 801 0 q 747 24 758 0 l 613 293 q 537 387 579 360 q 414 414 494 414 l 226 414 l 226 28 q 200 0 226 0 l 153 0 m 226 507 l 538 507 q 683 557 632 507 q 735 699 735 607 q 683 842 735 792 q 538 893 632 893 l 226 893 l 226 507 z "},"ŕ":{"ha":511,"x_min":107,"x_max":479,"o":"m 200 838 q 167 840 176 829 l 154 856 q 157 883 139 875 l 381 1024 q 428 1021 413 1039 l 449 996 q 444 967 467 976 l 200 838 m 132 0 q 107 25 107 0 l 107 594 q 118 642 107 626 q 160 671 129 658 q 411 714 265 714 l 454 714 q 479 689 479 714 l 479 654 q 454 629 479 629 l 408 629 q 225 600 304 629 q 200 563 200 589 l 200 25 q 194 6 200 11 q 175 0 189 0 l 132 0 z "},"Ŗ":{"ha":931,"x_min":126,"x_max":879,"o":"m 153 0 q 126 28 126 0 l 126 958 q 153 986 126 986 l 547 986 q 762 910 685 986 q 839 699 839 835 q 780 514 839 585 q 615 426 721 443 q 706 331 669 401 l 861 28 q 847 0 879 0 l 801 0 q 747 24 758 0 l 613 293 q 537 387 579 360 q 414 414 494 414 l 226 414 l 226 28 q 200 0 226 0 l 153 0 m 226 507 l 538 507 q 683 557 632 507 q 735 699 735 607 q 683 842 735 792 q 538 893 632 893 l 226 893 l 226 507 m 418 -346 q 401 -328 397 -346 l 447 -126 q 456 -106 449 -111 q 478 -100 463 -100 l 519 -100 q 543 -128 551 -100 l 478 -322 q 447 -346 471 -346 l 418 -346 z "},"ŗ":{"ha":511,"x_min":63,"x_max":479,"o":"m 132 0 q 107 25 107 0 l 107 594 q 118 642 107 626 q 160 671 129 658 q 411 714 265 714 l 454 714 q 479 689 479 714 l 479 654 q 454 629 479 629 l 408 629 q 225 600 304 629 q 200 563 200 589 l 200 25 q 194 6 200 11 q 175 0 189 0 l 132 0 m 83 -346 q 67 -328 63 -346 l 113 -126 q 121 -106 114 -111 q 143 -100 128 -100 l 185 -100 q 208 -128 217 -100 l 143 -322 q 113 -346 136 -346 l 83 -346 z "},"Ř":{"ha":931,"x_min":126,"x_max":879,"o":"m 451 1058 q 426 1062 433 1058 q 403 1082 418 1065 l 232 1231 q 226 1244 224 1238 q 244 1251 229 1251 l 281 1251 q 319 1238 306 1251 l 456 1122 l 588 1238 q 629 1251 601 1251 l 667 1251 q 685 1244 682 1251 q 679 1231 688 1238 l 510 1082 q 485 1062 493 1065 q 463 1058 478 1058 l 451 1058 m 153 0 q 126 28 126 0 l 126 958 q 153 986 126 986 l 547 986 q 762 910 685 986 q 839 699 839 835 q 780 514 839 585 q 615 426 721 443 q 706 331 669 401 l 861 28 q 847 0 879 0 l 801 0 q 747 24 758 0 l 613 293 q 537 387 579 360 q 414 414 494 414 l 226 414 l 226 28 q 200 0 226 0 l 153 0 m 226 507 l 538 507 q 683 557 632 507 q 735 699 735 607 q 683 842 735 792 q 538 893 632 893 l 226 893 l 226 507 z "},"ř":{"ha":511,"x_min":54,"x_max":542,"o":"m 294 828 q 269 831 276 828 q 246 850 261 835 l 75 1000 q 86 1021 54 1021 l 124 1021 q 163 1006 149 1021 l 299 892 l 431 1006 q 472 1021 446 1021 l 510 1021 q 522 999 542 1021 l 353 850 q 306 828 329 828 l 294 828 m 132 0 q 107 25 107 0 l 107 594 q 118 642 107 626 q 160 671 129 658 q 411 714 265 714 l 454 714 q 479 689 479 714 l 479 654 q 454 629 479 629 l 408 629 q 225 600 304 629 q 200 563 200 589 l 200 25 q 194 6 200 11 q 175 0 189 0 l 132 0 z "},"Ś":{"ha":906,"x_min":67,"x_max":828,"o":"m 356 1074 q 322 1076 332 1065 l 310 1092 q 313 1119 294 1111 l 536 1260 q 583 1257 568 1275 l 604 1232 q 600 1203 621 1211 l 356 1074 m 451 -19 q 213 39 303 -19 q 75 219 124 97 q 92 257 67 246 l 135 272 q 156 274 150 278 q 169 256 163 271 q 451 75 249 75 q 728 269 728 75 q 712 341 728 311 q 674 389 696 371 q 612 419 651 407 q 540 437 572 432 q 457 447 508 442 q 369 460 401 454 q 287 477 336 465 q 208 508 238 489 q 148 554 178 526 q 104 624 118 582 q 90 721 90 667 q 185 928 90 851 q 449 1006 279 1006 q 674 954 589 1006 q 814 792 760 903 q 799 756 826 768 l 756 736 q 735 733 742 731 q 719 750 728 736 q 615 871 678 832 q 449 910 551 910 q 259 863 325 910 q 193 726 193 815 q 210 654 193 685 q 251 606 226 624 q 317 574 275 588 q 393 556 360 561 q 481 544 426 550 q 582 530 542 538 q 674 503 622 522 q 755 458 725 485 q 806 383 785 431 q 828 272 828 336 q 731 57 828 133 q 451 -19 635 -19 z "},"ś":{"ha":725,"x_min":60,"x_max":654,"o":"m 263 839 q 229 842 239 831 l 217 857 q 219 885 201 876 l 443 1025 q 490 1022 475 1040 l 511 997 q 507 968 529 978 l 263 839 m 369 -19 q 71 153 138 -19 q 86 186 60 178 l 122 199 q 156 183 144 206 q 368 63 200 63 q 564 189 564 63 q 516 281 564 257 q 363 317 468 306 q 278 327 310 322 q 205 346 247 332 q 139 381 163 360 q 99 438 115 401 q 82 526 82 475 q 152 679 82 624 q 356 735 222 735 q 639 583 572 735 q 626 547 653 558 l 592 532 q 557 544 569 524 q 488 624 533 597 q 357 651 442 651 q 175 529 175 651 q 186 474 175 497 q 213 439 197 451 q 259 418 228 426 q 315 406 290 410 q 385 399 339 403 q 492 383 449 393 q 575 351 535 372 q 635 290 615 329 q 654 193 654 251 q 583 37 654 93 q 369 -19 511 -19 z "},"Ŝ":{"ha":906,"x_min":67,"x_max":828,"o":"m 246 1072 q 233 1092 214 1072 l 404 1242 q 427 1260 419 1257 q 453 1264 435 1264 l 464 1264 q 488 1260 481 1264 q 511 1242 496 1257 l 682 1092 q 688 1078 690 1085 q 669 1072 685 1072 l 631 1072 q 590 1086 603 1072 l 457 1201 l 321 1086 q 282 1072 307 1072 l 246 1072 m 451 -19 q 213 39 303 -19 q 75 219 124 97 q 92 257 67 246 l 135 272 q 156 274 150 278 q 169 256 163 271 q 451 75 249 75 q 728 269 728 75 q 712 341 728 311 q 674 389 696 371 q 612 419 651 407 q 540 437 572 432 q 457 447 508 442 q 369 460 401 454 q 287 477 336 465 q 208 508 238 489 q 148 554 178 526 q 104 624 118 582 q 90 721 90 667 q 185 928 90 851 q 449 1006 279 1006 q 674 954 589 1006 q 814 792 760 903 q 799 756 826 768 l 756 736 q 735 733 742 731 q 719 750 728 736 q 615 871 678 832 q 449 910 551 910 q 259 863 325 910 q 193 726 193 815 q 210 654 193 685 q 251 606 226 624 q 317 574 275 588 q 393 556 360 561 q 481 544 426 550 q 582 530 542 538 q 674 503 622 522 q 755 458 725 485 q 806 383 785 431 q 828 272 828 336 q 731 57 828 133 q 451 -19 635 -19 z "},"ŝ":{"ha":725,"x_min":60,"x_max":654,"o":"m 153 831 q 140 851 122 831 l 311 1000 q 334 1020 326 1017 q 360 1024 342 1024 l 371 1024 q 394 1020 386 1024 q 418 1000 401 1017 l 589 851 q 576 831 607 831 l 538 831 q 497 844 510 831 l 364 960 l 228 844 q 189 831 214 831 l 153 831 m 369 -19 q 71 153 138 -19 q 86 186 60 178 l 122 199 q 156 183 144 206 q 368 63 200 63 q 564 189 564 63 q 516 281 564 257 q 363 317 468 306 q 278 327 310 322 q 205 346 247 332 q 139 381 163 360 q 99 438 115 401 q 82 526 82 475 q 152 679 82 624 q 356 735 222 735 q 639 583 572 735 q 626 547 653 558 l 592 532 q 557 544 569 524 q 488 624 533 597 q 357 651 442 651 q 175 529 175 651 q 186 474 175 497 q 213 439 197 451 q 259 418 228 426 q 315 406 290 410 q 385 399 339 403 q 492 383 449 393 q 575 351 535 372 q 635 290 615 329 q 654 193 654 251 q 583 37 654 93 q 369 -19 511 -19 z "},"Ş":{"ha":904,"x_min":64,"x_max":828,"o":"m 450 -343 q 339 -317 383 -343 q 322 -290 322 -310 l 322 -264 q 336 -254 322 -246 q 439 -286 382 -286 q 510 -265 485 -286 q 535 -208 535 -244 q 451 -150 535 -150 q 406 -154 426 -150 q 388 -150 392 -156 q 390 -132 385 -144 l 435 -19 q 208 42 293 -17 q 75 219 122 100 q 92 257 64 246 l 135 272 q 169 256 158 282 q 451 75 249 75 q 726 269 726 75 q 710 341 726 311 q 672 389 694 371 q 610 419 650 407 q 540 437 571 432 q 457 447 508 442 q 351 463 390 456 q 255 488 311 469 q 167 533 199 507 q 113 608 136 560 q 89 721 89 656 q 183 928 89 851 q 449 1006 278 1006 q 674 954 589 1006 q 813 792 760 903 q 799 756 825 768 l 756 736 q 719 750 731 726 q 615 871 678 832 q 449 910 551 910 q 258 863 325 910 q 192 726 192 815 q 209 654 192 685 q 250 606 226 624 q 317 574 274 588 q 393 556 360 561 q 481 544 426 550 q 582 530 542 538 q 674 503 622 522 q 755 458 725 485 q 806 383 785 431 q 828 272 828 336 q 742 67 828 142 q 493 -18 657 -8 l 461 -104 q 497 -100 490 -100 q 585 -131 553 -100 q 615 -212 618 -162 q 566 -310 611 -278 q 450 -343 521 -343 z "},"ş":{"ha":725,"x_min":60,"x_max":654,"o":"m 353 -336 q 243 -311 286 -336 q 228 -286 228 -304 l 226 -261 q 240 -251 226 -243 q 342 -282 288 -282 q 410 -262 386 -282 q 435 -207 435 -242 q 354 -150 435 -153 q 308 -156 325 -150 q 292 -151 296 -157 q 294 -133 289 -146 l 340 -19 q 71 153 131 -8 q 86 186 60 178 l 122 199 q 156 183 144 206 q 368 63 200 63 q 564 189 564 63 q 516 281 564 257 q 363 317 468 306 q 278 327 310 322 q 205 346 247 332 q 139 381 163 360 q 99 438 115 401 q 82 526 82 475 q 152 679 82 624 q 356 735 222 735 q 639 583 572 735 q 626 547 653 558 l 592 532 q 557 544 569 524 q 488 624 533 597 q 357 650 443 650 q 175 529 175 650 q 186 474 175 497 q 213 439 197 451 q 259 418 228 426 q 315 406 290 410 q 385 399 339 403 q 492 383 449 393 q 575 351 535 372 q 635 290 615 329 q 654 193 654 251 q 590 43 654 99 q 397 -19 525 -12 l 364 -107 q 399 -104 381 -104 q 485 -134 453 -104 q 514 -211 517 -164 q 466 -306 510 -275 q 353 -336 422 -336 z "},"Š":{"ha":906,"x_min":67,"x_max":828,"o":"m 450 1071 q 424 1074 432 1071 q 401 1094 417 1078 l 231 1243 q 225 1257 222 1250 q 243 1264 228 1264 l 279 1264 q 318 1250 304 1264 l 454 1135 l 586 1250 q 628 1264 600 1264 l 665 1264 q 683 1257 681 1264 q 678 1243 686 1250 l 508 1094 q 484 1074 492 1078 q 461 1071 476 1071 l 450 1071 m 451 -19 q 213 39 303 -19 q 75 219 124 97 q 92 257 67 246 l 135 272 q 156 274 150 278 q 169 256 163 271 q 451 75 249 75 q 728 269 728 75 q 712 341 728 311 q 674 389 696 371 q 612 419 651 407 q 540 437 572 432 q 457 447 508 442 q 369 460 401 454 q 287 477 336 465 q 208 508 238 489 q 148 554 178 526 q 104 624 118 582 q 90 721 90 667 q 185 928 90 851 q 449 1006 279 1006 q 674 954 589 1006 q 814 792 760 903 q 799 756 826 768 l 756 736 q 735 733 742 731 q 719 750 728 736 q 615 871 678 832 q 449 910 551 910 q 259 863 325 910 q 193 726 193 815 q 210 654 193 685 q 251 606 226 624 q 317 574 275 588 q 393 556 360 561 q 481 544 426 550 q 582 530 542 538 q 674 503 622 522 q 755 458 725 485 q 806 383 785 431 q 828 272 828 336 q 731 57 828 133 q 451 -19 635 -19 z "},"š":{"ha":725,"x_min":60,"x_max":654,"o":"m 357 829 q 331 833 339 829 q 308 851 324 836 l 138 1001 q 149 1022 117 1022 l 186 1022 q 225 1007 211 1022 l 361 893 l 493 1007 q 535 1022 508 1022 l 572 1022 q 585 1000 604 1022 l 415 851 q 368 829 392 829 l 357 829 m 369 -19 q 71 153 138 -19 q 86 186 60 178 l 122 199 q 156 183 144 206 q 368 63 200 63 q 564 189 564 63 q 516 281 564 257 q 363 317 468 306 q 278 327 310 322 q 205 346 247 332 q 139 381 163 360 q 99 438 115 401 q 82 526 82 475 q 152 679 82 624 q 356 735 222 735 q 639 583 572 735 q 626 547 653 558 l 592 532 q 557 544 569 524 q 488 624 533 597 q 357 651 442 651 q 175 529 175 651 q 186 474 175 497 q 213 439 197 451 q 259 418 228 426 q 315 406 290 410 q 385 399 339 403 q 492 383 449 393 q 575 351 535 372 q 635 290 615 329 q 654 193 654 251 q 583 37 654 93 q 369 -19 511 -19 z "},"Ţ":{"ha":804,"x_min":36,"x_max":768,"o":"m 379 0 q 358 6 364 0 q 353 28 353 13 l 353 893 l 64 893 q 42 899 49 893 q 36 919 36 904 l 36 958 q 42 980 36 974 q 64 986 49 986 l 740 986 q 762 980 756 986 q 768 958 768 974 l 768 919 q 762 899 768 904 q 740 893 756 893 l 453 893 l 453 28 q 447 6 453 13 q 425 0 440 0 l 379 0 m 324 -346 q 307 -328 303 -346 l 353 -126 q 361 -106 354 -111 q 383 -100 368 -100 l 425 -100 q 449 -128 457 -100 l 383 -322 q 353 -346 376 -346 l 324 -346 z "},"ţ":{"ha":533,"x_min":25,"x_max":507,"o":"m 386 -99 q 474 -129 442 -99 q 504 -210 507 -160 q 456 -309 501 -276 q 339 -342 410 -342 q 228 -315 272 -342 q 213 -287 213 -307 l 211 -261 q 225 -251 211 -243 q 329 -283 271 -283 q 399 -262 375 -283 q 424 -206 424 -242 q 342 -147 424 -147 q 294 -153 313 -147 q 278 -149 282 -154 q 281 -129 275 -143 l 335 14 q 217 96 251 33 q 182 285 182 158 l 182 628 l 50 628 q 25 653 25 628 l 25 689 q 50 714 25 714 l 182 714 l 182 856 q 207 881 182 881 l 250 881 q 269 875 264 881 q 275 856 275 869 l 275 714 l 475 714 q 494 708 489 714 q 500 689 500 703 l 500 653 q 475 628 500 628 l 275 628 l 275 288 q 316 128 275 167 q 474 89 357 89 q 499 64 499 89 l 499 26 q 474 0 499 0 q 390 4 428 0 l 351 -103 q 386 -99 367 -99 z "},"Ť":{"ha":804,"x_min":36,"x_max":768,"o":"m 397 1058 q 372 1062 379 1058 q 349 1082 364 1065 l 178 1231 q 172 1244 169 1238 q 190 1251 175 1251 l 226 1251 q 265 1238 251 1251 l 401 1122 l 533 1238 q 575 1251 547 1251 l 613 1251 q 631 1244 628 1251 q 625 1231 633 1238 l 456 1082 q 431 1062 439 1065 q 408 1058 424 1058 l 397 1058 m 379 0 q 358 6 364 0 q 353 28 353 13 l 353 893 l 64 893 q 42 899 49 893 q 36 919 36 904 l 36 958 q 42 980 36 974 q 64 986 49 986 l 740 986 q 762 980 756 986 q 768 958 768 974 l 768 919 q 762 899 768 904 q 740 893 756 893 l 453 893 l 453 28 q 447 6 453 13 q 425 0 440 0 l 379 0 z "},"ť":{"ha":533,"x_min":61,"x_max":536,"o":"m 414 771 q 400 774 403 771 q 399 789 397 778 l 436 1003 q 465 1028 439 1028 l 504 1028 q 526 1003 536 1028 l 465 794 q 438 771 458 771 l 414 771 m 510 0 q 281 59 344 0 q 218 285 218 118 l 218 628 l 86 628 q 61 653 61 628 l 61 689 q 86 714 61 714 l 218 714 l 218 856 q 223 875 218 869 q 243 881 228 881 l 286 881 q 311 856 311 881 l 311 714 l 511 714 q 531 708 525 714 q 536 689 536 703 l 536 653 q 511 628 536 628 l 311 628 l 311 288 q 352 128 311 167 q 510 89 393 89 q 535 64 535 89 l 535 26 q 510 0 535 0 z "},"Ŧ":{"ha":814,"x_min":42,"x_max":772,"o":"m 385 0 q 363 6 369 0 q 357 28 357 13 l 357 421 l 161 421 q 148 425 151 421 q 144 440 144 429 l 144 475 q 161 494 144 494 l 357 494 l 357 893 l 68 893 q 47 899 53 893 q 42 919 42 904 l 42 958 q 68 986 42 986 l 746 986 q 767 980 761 986 q 772 958 772 974 l 772 919 q 767 899 772 904 q 746 893 761 893 l 457 893 l 457 494 l 653 494 q 671 475 671 494 l 671 440 q 653 421 671 421 l 457 421 l 457 28 q 431 0 457 0 l 385 0 z "},"ŧ":{"ha":544,"x_min":35,"x_max":510,"o":"m 483 0 q 256 57 319 -3 q 192 279 192 117 l 192 344 l 72 344 q 54 364 54 344 l 54 393 q 72 413 54 413 l 192 413 l 192 629 l 60 629 q 35 654 35 629 l 35 690 q 60 715 35 715 l 192 715 l 192 857 q 217 882 192 882 l 260 882 q 285 857 285 882 l 285 715 l 485 715 q 510 690 510 715 l 510 654 q 505 634 510 639 q 485 629 500 629 l 285 629 l 285 413 l 446 413 q 464 393 464 413 l 464 364 q 446 344 464 344 l 285 344 l 285 281 q 326 126 285 164 q 483 89 367 89 q 508 64 508 89 l 508 26 q 483 0 508 0 z "},"Ũ":{"ha":983,"x_min":118,"x_max":865,"o":"m 290 1069 q 274 1086 274 1069 q 382 1225 274 1225 q 460 1201 424 1225 q 526 1155 496 1178 q 588 1132 557 1132 q 643 1208 643 1132 q 658 1225 643 1225 l 686 1225 q 701 1208 701 1225 q 594 1069 701 1069 q 485 1116 544 1069 q 390 1163 425 1163 q 333 1086 333 1163 q 318 1069 333 1069 l 290 1069 m 769 74 q 722 27 769 74 q 492 -21 674 -21 q 214 74 310 -21 q 118 336 118 169 l 118 958 q 124 980 118 974 q 146 986 131 986 l 192 986 q 213 980 207 986 q 219 958 219 974 l 219 335 q 288 142 219 211 q 492 72 357 72 q 695 142 626 72 q 764 335 764 211 l 764 958 q 770 980 764 974 q 792 986 776 986 l 838 986 q 859 980 853 986 q 865 958 865 974 l 865 336 q 769 74 865 169 z "},"ũ":{"ha":799,"x_min":104,"x_max":690,"o":"m 196 849 q 179 865 179 849 q 288 1004 179 1004 q 365 981 329 1004 q 432 933 401 957 q 493 910 463 910 q 549 988 549 910 q 564 1004 549 1004 l 592 1004 q 607 988 607 1004 q 500 849 607 849 q 390 895 450 849 q 296 942 331 942 q 239 865 239 942 q 224 849 239 849 l 196 849 m 379 -19 q 104 251 104 -19 l 104 689 q 109 708 104 703 q 129 714 114 714 l 172 714 q 197 689 197 714 l 197 256 q 392 65 197 65 q 572 94 493 65 q 597 135 597 106 l 597 689 q 622 714 597 714 l 665 714 q 690 689 690 714 l 690 103 q 680 56 690 71 q 639 26 669 40 q 379 -19 528 -19 z "},"Ū":{"ha":983,"x_min":118,"x_max":865,"o":"m 328 1111 q 309 1116 314 1111 q 304 1135 304 1121 l 304 1157 q 328 1181 304 1181 l 656 1181 q 674 1176 669 1181 q 679 1157 679 1171 l 679 1135 q 674 1116 679 1121 q 656 1111 669 1111 l 328 1111 m 769 74 q 722 27 769 74 q 492 -21 674 -21 q 214 74 310 -21 q 118 336 118 169 l 118 958 q 124 980 118 974 q 146 986 131 986 l 192 986 q 213 980 207 986 q 219 958 219 974 l 219 335 q 288 142 219 211 q 492 72 357 72 q 695 142 626 72 q 764 335 764 211 l 764 958 q 770 980 764 974 q 792 986 776 986 l 838 986 q 859 980 853 986 q 865 958 865 974 l 865 336 q 769 74 865 169 z "},"ū":{"ha":799,"x_min":104,"x_max":690,"o":"m 233 886 q 215 891 219 886 q 210 910 210 896 l 210 931 q 215 949 210 944 q 233 954 221 954 l 561 954 q 580 949 575 954 q 585 931 585 944 l 585 910 q 580 891 585 896 q 561 886 575 886 l 233 886 m 379 -19 q 104 251 104 -19 l 104 689 q 109 708 104 703 q 129 714 114 714 l 172 714 q 197 689 197 714 l 197 256 q 392 65 197 65 q 572 94 493 65 q 597 135 597 106 l 597 689 q 622 714 597 714 l 665 714 q 690 689 690 714 l 690 103 q 680 56 690 71 q 639 26 669 40 q 379 -19 528 -19 z "},"Ŭ":{"ha":983,"x_min":118,"x_max":865,"o":"m 492 1060 q 282 1210 325 1060 q 293 1235 276 1228 l 326 1247 q 351 1238 346 1253 q 492 1129 382 1129 q 632 1238 601 1129 q 654 1247 639 1253 l 692 1235 q 703 1210 708 1228 q 492 1060 657 1060 m 769 74 q 722 27 769 74 q 492 -21 674 -21 q 214 74 310 -21 q 118 336 118 169 l 118 958 q 124 980 118 974 q 146 986 131 986 l 192 986 q 213 980 207 986 q 219 958 219 974 l 219 335 q 288 142 219 211 q 492 72 357 72 q 695 142 626 72 q 764 335 764 211 l 764 958 q 770 980 764 974 q 792 986 776 986 l 838 986 q 859 980 853 986 q 865 958 865 974 l 865 336 q 769 74 865 169 z "},"ŭ":{"ha":799,"x_min":104,"x_max":690,"o":"m 608 985 q 397 833 556 833 q 188 985 239 833 q 199 1008 182 1001 l 232 1021 q 257 1011 251 1026 q 397 903 294 903 q 538 1011 500 903 q 560 1021 544 1026 l 597 1008 q 608 985 614 1001 m 379 -19 q 104 251 104 -19 l 104 689 q 109 708 104 703 q 129 714 114 714 l 172 714 q 197 689 197 714 l 197 256 q 392 65 197 65 q 572 94 493 65 q 597 135 597 106 l 597 689 q 622 714 597 714 l 665 714 q 690 689 690 714 l 690 103 q 680 56 690 71 q 639 26 669 40 q 379 -19 528 -19 z "},"Ů":{"ha":983,"x_min":118,"x_max":865,"o":"m 493 1044 q 390 1082 429 1044 q 351 1181 351 1119 q 390 1279 351 1242 q 493 1317 429 1317 q 593 1279 556 1317 q 631 1181 631 1242 q 593 1082 631 1119 q 493 1044 556 1044 m 493 1093 q 557 1117 533 1093 q 581 1181 581 1142 q 557 1244 581 1219 q 493 1268 533 1268 q 426 1244 450 1268 q 401 1181 401 1221 q 426 1117 401 1140 q 493 1093 450 1093 m 769 74 q 722 27 769 74 q 492 -21 674 -21 q 214 74 310 -21 q 118 336 118 169 l 118 958 q 124 980 118 974 q 146 986 131 986 l 192 986 q 213 980 207 986 q 219 958 219 974 l 219 335 q 288 142 219 211 q 492 72 357 72 q 695 142 626 72 q 764 335 764 211 l 764 958 q 770 980 764 974 q 792 986 776 986 l 838 986 q 859 980 853 986 q 865 958 865 974 l 865 336 q 769 74 865 169 z "},"ů":{"ha":799,"x_min":104,"x_max":690,"o":"m 399 793 q 296 831 335 793 q 257 929 257 868 q 296 1029 257 992 q 399 1067 335 1067 q 499 1029 461 1067 q 536 929 536 992 q 499 831 536 868 q 399 793 461 793 m 399 842 q 463 865 439 842 q 486 929 486 889 q 463 993 486 969 q 399 1017 439 1017 q 331 993 356 1017 q 307 929 307 969 q 331 865 307 889 q 399 842 356 842 m 379 -19 q 104 251 104 -19 l 104 689 q 109 708 104 703 q 129 714 114 714 l 172 714 q 197 689 197 714 l 197 256 q 392 65 197 65 q 572 94 493 65 q 597 135 597 106 l 597 689 q 622 714 597 714 l 665 714 q 690 689 690 714 l 690 103 q 680 56 690 71 q 639 26 669 40 q 379 -19 528 -19 z "},"Ű":{"ha":983,"x_min":118,"x_max":865,"o":"m 324 1060 l 307 1064 q 299 1090 288 1071 l 425 1238 q 467 1254 442 1263 l 497 1246 q 506 1218 524 1236 l 354 1069 q 324 1060 336 1053 m 558 1056 l 543 1061 q 535 1088 521 1068 l 665 1238 q 708 1254 683 1261 l 740 1246 q 749 1218 768 1235 l 590 1067 q 558 1056 572 1051 m 769 74 q 722 27 769 74 q 492 -21 674 -21 q 214 74 310 -21 q 118 336 118 169 l 118 958 q 124 980 118 974 q 146 986 131 986 l 192 986 q 213 980 207 986 q 219 958 219 974 l 219 335 q 288 142 219 211 q 492 72 357 72 q 695 142 626 72 q 764 335 764 211 l 764 958 q 770 980 764 974 q 792 986 776 986 l 838 986 q 859 980 853 986 q 865 958 865 974 l 865 336 q 769 74 865 169 z "},"ű":{"ha":799,"x_min":104,"x_max":690,"o":"m 229 826 l 213 832 q 204 857 193 839 l 331 1006 q 372 1022 347 1029 l 403 1013 q 411 985 431 1004 l 260 838 q 229 826 242 822 m 463 825 l 447 831 q 439 856 425 838 l 572 1004 q 615 1021 592 1028 l 647 1011 q 656 983 678 1003 l 494 836 q 463 825 475 821 m 379 -19 q 104 251 104 -19 l 104 689 q 109 708 104 703 q 129 714 114 714 l 172 714 q 197 689 197 714 l 197 256 q 392 65 197 65 q 572 94 493 65 q 597 135 597 106 l 597 689 q 622 714 597 714 l 665 714 q 690 689 690 714 l 690 103 q 680 56 690 71 q 639 26 669 40 q 379 -19 528 -19 z "},"Ų":{"ha":983,"x_min":118,"x_max":865,"o":"m 592 -343 q 485 -271 504 -343 q 507 -147 471 -219 q 614 -4 543 -75 q 492 -21 561 -21 q 214 74 310 -21 q 118 336 118 169 l 118 958 q 124 980 118 974 q 146 986 131 986 l 192 986 q 213 980 207 986 q 219 958 219 974 l 219 335 q 288 142 219 211 q 492 72 357 72 q 695 142 626 72 q 764 335 764 211 l 764 958 q 770 980 764 974 q 792 986 776 986 l 838 986 q 859 980 853 986 q 865 958 865 974 l 865 336 q 742 51 865 143 q 601 -108 650 -22 q 567 -233 551 -193 q 621 -271 579 -271 q 692 -240 661 -271 q 708 -244 703 -233 l 719 -274 q 717 -293 724 -286 q 592 -343 664 -343 z "},"ų":{"ha":799,"x_min":104,"x_max":694,"o":"m 563 -343 q 456 -271 472 -343 q 472 -140 439 -218 q 572 6 504 -61 q 379 -19 488 -19 q 104 251 104 -19 l 104 689 q 109 708 104 703 q 129 714 114 714 l 172 714 q 197 689 197 714 l 197 256 q 392 65 197 65 q 572 94 493 65 q 597 135 597 106 l 597 689 q 622 714 597 714 l 665 714 q 690 689 690 714 l 690 103 q 669 44 690 61 q 559 -110 596 -26 q 536 -233 522 -193 q 590 -271 549 -271 q 661 -240 631 -271 q 678 -244 674 -233 l 689 -274 q 686 -293 694 -285 q 563 -343 633 -343 z "},"Ŵ":{"ha":1258,"x_min":44,"x_max":1217,"o":"m 424 1060 q 411 1079 392 1060 l 582 1229 q 605 1248 597 1244 q 631 1251 613 1251 l 642 1251 q 666 1248 658 1251 q 689 1229 674 1244 l 860 1079 q 865 1066 868 1072 q 847 1060 863 1060 l 808 1060 q 768 1074 781 1060 l 635 1189 l 499 1074 q 460 1060 485 1060 l 424 1060 m 333 0 q 299 22 304 0 l 50 960 q 68 986 44 986 l 124 986 q 160 963 154 986 l 331 290 q 345 206 336 265 q 356 140 354 146 l 361 140 q 390 289 379 250 l 575 946 q 613 971 582 971 l 656 971 q 692 946 686 971 l 875 288 q 906 140 885 254 l 911 140 q 936 288 924 231 l 1106 963 q 1142 986 1111 986 l 1190 986 q 1208 960 1217 986 l 960 24 q 925 0 954 0 l 882 0 q 846 22 853 0 l 660 694 q 633 832 642 761 l 628 832 q 599 696 615 753 l 413 24 q 376 0 406 0 l 333 0 z "},"ŵ":{"ha":1051,"x_min":46,"x_max":1006,"o":"m 317 829 q 304 850 286 829 l 475 999 q 498 1019 490 1015 q 524 1022 506 1022 l 535 1022 q 558 1019 550 1022 q 582 999 565 1015 l 753 850 q 740 829 771 829 l 701 829 q 661 843 674 829 l 528 958 l 392 843 q 353 829 378 829 l 317 829 m 289 -4 q 256 18 263 -4 l 51 685 q 50 708 46 701 q 71 714 54 714 l 103 714 q 135 709 126 714 q 147 689 144 704 l 274 257 q 291 176 281 229 q 304 114 301 124 l 308 114 q 323 176 311 122 q 343 258 335 229 l 476 674 q 488 694 481 689 q 517 699 494 699 l 538 699 q 565 694 558 699 q 578 674 572 689 l 710 263 q 731 177 719 231 q 746 114 743 124 l 750 114 q 763 174 753 122 q 782 261 772 226 l 907 689 q 919 710 911 706 q 951 714 928 714 l 979 714 q 1001 708 997 714 q 1000 685 1006 701 l 794 18 q 761 -4 789 -4 l 732 -4 q 697 18 704 -4 l 554 472 q 537 543 546 501 q 526 590 528 585 l 522 590 q 511 542 519 583 q 494 472 503 500 l 351 18 q 318 -4 344 -4 l 289 -4 z "},"Ŷ":{"ha":907,"x_min":32,"x_max":882,"o":"m 244 1060 q 232 1079 213 1060 l 403 1229 q 426 1248 418 1244 q 451 1251 433 1251 l 463 1251 q 487 1248 479 1251 q 510 1229 494 1244 l 681 1079 q 686 1066 689 1072 q 668 1060 683 1060 l 629 1060 q 589 1074 601 1060 l 456 1189 l 319 1074 q 281 1060 306 1060 l 244 1060 m 431 0 q 409 6 415 0 q 403 28 403 13 l 403 401 l 40 958 q 36 978 32 969 q 54 986 40 986 l 111 986 q 146 982 136 986 q 164 963 156 978 l 454 504 l 747 963 q 765 983 756 979 q 800 986 775 986 l 853 986 q 867 958 882 986 l 503 400 l 503 28 q 476 0 503 0 l 431 0 z "},"ŷ":{"ha":801,"x_min":100,"x_max":690,"o":"m 186 829 q 174 850 156 829 l 344 999 q 367 1019 360 1015 q 393 1022 375 1022 l 404 1022 q 427 1019 419 1022 q 451 999 435 1015 l 622 850 q 610 829 640 829 l 571 829 q 531 843 543 829 l 397 958 l 261 843 q 222 829 247 829 l 186 829 m 396 -343 q 119 -194 200 -343 q 129 -154 100 -167 l 160 -137 q 200 -147 185 -124 q 394 -260 261 -260 q 597 -47 597 -260 l 597 35 q 379 -1 475 -1 q 104 269 104 -1 l 104 689 q 109 708 104 703 q 129 714 114 714 l 172 714 q 197 689 197 714 l 197 274 q 392 83 197 83 q 597 121 492 83 l 597 689 q 622 714 597 714 l 665 714 q 685 708 681 714 q 690 689 690 703 l 690 -43 q 396 -343 690 -343 z "},"Ÿ":{"ha":907,"x_min":32,"x_max":882,"o":"m 317 1100 q 281 1110 290 1100 q 272 1144 272 1119 l 272 1156 q 281 1190 272 1181 q 317 1200 290 1200 l 325 1200 q 361 1190 351 1200 q 371 1156 371 1181 l 371 1144 q 361 1110 371 1119 q 325 1100 351 1100 l 317 1100 m 586 1100 q 550 1110 560 1100 q 540 1144 540 1119 l 540 1156 q 550 1190 540 1181 q 586 1200 560 1200 l 594 1200 q 631 1190 621 1200 q 640 1156 640 1181 l 640 1144 q 631 1110 640 1119 q 594 1100 621 1100 l 586 1100 m 431 0 q 409 6 415 0 q 403 28 403 13 l 403 401 l 40 958 q 36 978 32 969 q 54 986 40 986 l 111 986 q 146 982 136 986 q 164 963 156 978 l 454 504 l 747 963 q 765 983 756 979 q 800 986 775 986 l 853 986 q 867 958 882 986 l 503 400 l 503 28 q 476 0 503 0 l 431 0 z "},"Ź":{"ha":822,"x_min":64,"x_max":763,"o":"m 317 1061 q 283 1064 293 1053 l 271 1079 q 274 1107 256 1099 l 497 1247 q 544 1244 529 1263 l 565 1219 q 561 1190 582 1199 l 317 1061 m 90 0 q 64 28 64 0 l 64 65 q 74 97 64 86 l 622 893 l 97 893 q 76 899 82 893 q 69 919 69 904 l 69 958 q 76 980 69 974 q 97 986 82 986 l 721 986 q 742 980 736 986 q 749 958 749 974 l 749 921 q 739 890 749 904 l 189 94 l 735 94 q 756 88 750 94 q 763 67 763 82 l 763 28 q 756 6 763 13 q 735 0 750 0 l 90 0 z "},"ź":{"ha":668,"x_min":60,"x_max":608,"o":"m 233 838 q 200 840 210 829 l 188 856 q 190 883 172 875 l 414 1024 q 461 1021 446 1039 l 482 996 q 478 967 500 976 l 233 838 m 85 0 q 60 25 60 0 l 60 60 q 69 86 60 75 l 482 631 l 90 631 q 72 635 76 631 q 67 654 67 640 l 67 689 q 72 708 67 703 q 90 714 76 714 l 576 714 q 597 708 592 714 q 601 689 601 703 l 601 654 q 592 625 601 640 l 179 85 l 583 85 q 608 60 608 85 l 608 25 q 583 0 608 0 l 85 0 z "},"Ż":{"ha":822,"x_min":64,"x_max":763,"o":"m 413 1096 q 376 1106 386 1096 q 367 1142 367 1115 l 367 1150 q 376 1187 367 1176 q 413 1197 386 1197 l 419 1197 q 457 1188 447 1197 q 467 1150 467 1178 l 467 1142 q 457 1106 467 1115 q 419 1096 447 1096 l 413 1096 m 90 0 q 64 28 64 0 l 64 65 q 74 97 64 86 l 622 893 l 97 893 q 76 899 82 893 q 69 919 69 904 l 69 958 q 76 980 69 974 q 97 986 82 986 l 721 986 q 742 980 736 986 q 749 958 749 974 l 749 921 q 739 890 749 904 l 189 94 l 735 94 q 756 88 750 94 q 763 67 763 82 l 763 28 q 756 6 763 13 q 735 0 750 0 l 90 0 z "},"ż":{"ha":668,"x_min":60,"x_max":608,"o":"m 332 879 q 290 890 300 879 q 279 931 279 900 l 279 939 q 290 980 279 969 q 332 990 300 990 l 339 990 q 381 980 371 990 q 392 939 392 969 l 392 931 q 381 890 392 900 q 339 879 369 879 l 332 879 m 85 0 q 60 25 60 0 l 60 60 q 69 86 60 75 l 482 631 l 90 631 q 72 635 76 631 q 67 654 67 640 l 67 689 q 72 708 67 703 q 90 714 76 714 l 576 714 q 597 708 592 714 q 601 689 601 703 l 601 654 q 592 625 601 640 l 179 85 l 583 85 q 608 60 608 85 l 608 25 q 583 0 608 0 l 85 0 z "},"Ž":{"ha":822,"x_min":64,"x_max":763,"o":"m 411 1058 q 385 1062 393 1058 q 363 1082 378 1065 l 192 1231 q 186 1244 183 1238 q 204 1251 189 1251 l 240 1251 q 279 1238 265 1251 l 415 1122 l 547 1238 q 589 1251 561 1251 l 626 1251 q 644 1244 642 1251 q 639 1231 647 1238 l 469 1082 q 445 1062 453 1065 q 422 1058 438 1058 l 411 1058 m 90 0 q 64 28 64 0 l 64 65 q 74 97 64 86 l 622 893 l 97 893 q 76 899 82 893 q 69 919 69 904 l 69 958 q 76 980 69 974 q 97 986 82 986 l 721 986 q 742 980 736 986 q 749 958 749 974 l 749 921 q 739 890 749 904 l 189 94 l 735 94 q 756 88 750 94 q 763 67 763 82 l 763 28 q 756 6 763 13 q 735 0 750 0 l 90 0 z "},"ž":{"ha":668,"x_min":60,"x_max":608,"o":"m 328 828 q 302 831 310 828 q 279 850 294 835 l 108 1000 q 119 1021 88 1021 l 157 1021 q 196 1006 182 1021 l 332 892 l 464 1006 q 506 1021 479 1021 l 543 1021 q 556 999 575 1021 l 386 850 q 339 828 363 828 l 328 828 m 85 0 q 60 25 60 0 l 60 60 q 69 86 60 75 l 482 631 l 90 631 q 72 635 76 631 q 67 654 67 640 l 67 689 q 72 708 67 703 q 90 714 76 714 l 576 714 q 597 708 592 714 q 601 689 601 703 l 601 654 q 592 625 601 640 l 179 85 l 583 85 q 608 60 608 85 l 608 25 q 583 0 608 0 l 85 0 z "},"ſ":{"ha":397,"x_min":32,"x_max":482,"o":"m 190 0 q 170 6 175 0 q 165 25 165 11 l 165 628 l 56 628 q 32 653 32 628 l 32 689 q 37 708 32 703 q 56 714 42 714 l 165 714 l 165 750 q 233 963 165 899 q 457 1028 301 1028 q 477 1022 472 1028 q 482 1003 482 1017 l 482 967 q 457 940 482 940 q 301 898 344 940 q 258 743 258 856 l 258 25 q 233 0 258 0 l 190 0 z "},"ƒ":{"ha":654,"x_min":-17,"x_max":621,"o":"m 8 -306 q -11 -300 -6 -306 q -17 -281 -17 -294 l -17 -244 q 8 -218 -17 -218 q 157 -167 110 -218 q 215 -17 204 -115 l 265 453 l 86 453 q 61 478 61 453 l 61 515 q 86 540 61 540 l 275 540 l 296 744 q 380 955 310 882 q 596 1028 450 1028 q 616 1022 611 1028 q 621 1003 621 1017 l 621 967 q 596 940 621 940 q 447 890 493 940 q 390 740 400 839 l 368 540 l 558 540 q 583 515 583 540 l 583 478 q 558 453 583 453 l 358 453 l 308 -21 q 8 -306 279 -306 z "},"Ǻ":{"ha":925,"x_min":22,"x_max":901,"o":"m 372 1197 q 342 1200 350 1192 l 331 1213 q 340 1236 317 1226 l 544 1332 q 589 1331 575 1344 l 608 1310 q 604 1289 622 1296 l 372 1197 m 53 0 q 33 26 22 0 l 400 942 q 321 1046 321 967 q 361 1143 321 1106 q 463 1181 401 1181 q 563 1143 524 1181 q 603 1046 603 1106 q 582 981 603 1008 q 525 942 561 953 l 890 26 q 871 0 901 0 l 831 0 q 796 5 806 0 q 781 24 786 10 l 678 289 l 243 289 l 139 24 q 124 5 133 10 q 89 0 114 0 l 53 0 m 463 972 q 524 994 500 972 q 549 1049 549 1015 q 524 1108 549 1085 q 463 1131 500 1131 q 399 1108 424 1131 q 375 1049 375 1085 q 399 994 375 1015 q 463 972 424 972 m 271 372 l 649 372 l 519 707 q 486 815 504 749 q 464 892 468 881 l 457 892 q 435 815 453 881 q 403 708 418 749 l 271 372 z "},"ǻ":{"ha":747,"x_min":69,"x_max":650,"o":"m 233 1096 q 201 1103 208 1090 l 192 1121 q 199 1147 181 1140 l 442 1243 q 486 1233 474 1256 l 503 1206 q 493 1178 515 1183 l 233 1096 m 369 804 q 267 842 306 804 q 228 940 228 879 q 267 1040 228 1003 q 369 1078 306 1078 q 470 1040 432 1078 q 508 940 508 1003 q 470 842 508 879 q 369 804 432 804 m 369 853 q 434 876 410 853 q 458 940 458 900 q 434 1004 458 981 q 369 1028 410 1028 q 303 1004 328 1028 q 278 940 278 981 q 303 876 278 900 q 369 853 328 853 m 369 -19 q 133 33 197 -19 q 69 196 69 85 q 140 362 69 314 q 375 410 210 410 q 557 396 474 410 l 557 461 q 516 601 557 551 q 369 651 475 651 q 174 551 232 651 q 140 539 161 531 l 107 553 q 93 589 81 563 q 372 735 171 735 q 588 660 526 735 q 650 460 650 586 l 650 96 q 640 44 650 60 q 600 17 629 29 q 369 -19 517 -19 m 363 58 q 531 81 474 58 q 552 94 547 88 q 557 121 557 101 l 557 322 q 365 335 432 335 q 209 303 254 335 q 164 197 164 271 q 206 92 164 126 q 363 58 247 58 z "},"Ǽ":{"ha":1189,"x_min":4,"x_max":1119,"o":"m 749 1061 q 715 1064 725 1053 l 703 1079 q 706 1107 688 1099 l 929 1247 q 976 1244 961 1263 l 997 1219 q 993 1190 1014 1199 l 749 1061 m 33 0 q 15 26 4 0 l 590 963 q 626 986 604 986 l 1075 986 q 1101 958 1101 986 l 1101 919 q 1096 899 1101 904 q 1075 893 1090 893 l 701 893 l 701 546 l 1013 546 q 1039 518 1039 546 l 1039 479 q 1033 458 1039 464 q 1013 453 1028 453 l 701 453 l 701 93 l 1092 93 q 1113 88 1107 93 q 1119 67 1119 82 l 1119 28 q 1113 6 1119 13 q 1092 0 1107 0 l 632 0 q 610 6 617 0 q 604 28 604 13 l 604 243 l 257 243 l 126 24 q 108 5 117 10 q 76 0 100 0 l 33 0 m 308 326 l 604 326 l 604 819 l 308 326 z "},"ǽ":{"ha":1131,"x_min":71,"x_max":1057,"o":"m 454 838 q 421 840 431 829 l 408 856 q 411 883 393 875 l 635 1024 q 682 1021 667 1039 l 703 996 q 699 967 721 976 l 454 838 m 344 -19 q 129 31 188 -19 q 71 193 71 82 q 134 360 71 313 q 350 408 197 408 q 504 396 429 408 l 504 472 q 472 605 504 558 q 344 651 439 651 q 176 551 233 651 q 142 539 163 531 l 108 553 q 94 589 82 565 q 347 735 172 735 q 557 614 507 735 q 781 735 617 735 q 988 658 921 735 q 1056 449 1056 581 l 1056 371 q 1014 332 1056 332 l 599 332 l 599 250 q 776 61 599 61 q 888 88 849 61 q 961 174 926 115 q 1001 185 976 197 l 1029 168 q 1039 129 1057 156 q 940 18 999 56 q 776 -19 881 -19 q 575 64 636 -19 q 344 -19 500 -19 m 599 404 l 963 404 l 963 454 q 781 654 963 654 q 599 454 599 654 l 599 404 m 338 58 q 422 67 386 58 q 476 90 457 76 q 502 115 494 104 q 514 135 510 125 q 504 226 504 174 l 504 319 q 340 332 379 332 q 203 300 242 332 q 165 194 165 268 q 201 91 165 124 q 338 58 238 58 z "},"Ǿ":{"ha":957,"x_min":93,"x_max":876,"o":"m 385 1075 q 351 1078 361 1067 l 339 1093 q 342 1121 324 1113 l 565 1261 q 613 1258 597 1276 l 633 1233 q 629 1204 650 1213 l 385 1075 m 106 -58 q 100 -49 93 -58 l 183 85 q 97 329 97 174 l 97 657 q 196 913 97 821 q 479 1006 294 1006 q 728 936 635 1006 l 790 1033 q 810 1043 799 1043 l 865 1043 q 869 1033 876 1043 l 781 893 q 860 657 860 806 l 860 329 q 761 74 860 165 q 479 -19 663 -18 q 238 42 331 -21 l 179 -49 q 158 -58 174 -58 l 106 -58 m 247 181 l 676 853 q 479 913 604 913 q 270 846 343 913 q 197 657 197 779 l 197 329 q 247 181 197 236 m 479 74 q 688 140 615 74 q 760 329 760 207 l 760 657 q 718 794 760 742 l 290 125 q 479 74 363 74 z "},"ǿ":{"ha":785,"x_min":88,"x_max":697,"o":"m 292 838 q 258 840 268 829 l 246 856 q 249 883 231 875 l 472 1024 q 519 1021 504 1039 l 540 996 q 536 967 558 976 l 292 838 m 115 -49 q 109 -45 110 -49 q 111 -39 108 -42 l 167 50 q 88 235 88 118 l 88 479 q 169 667 88 599 q 392 735 250 735 q 574 693 499 735 l 615 758 q 633 767 622 767 l 674 767 q 678 757 683 767 l 619 664 q 697 479 697 597 l 697 235 q 616 48 697 115 q 392 -19 535 -19 q 211 21 285 -19 l 174 -40 q 154 -49 167 -49 l 115 -49 m 222 138 l 526 618 q 392 650 469 650 q 238 605 294 650 q 181 481 181 560 l 181 235 q 222 138 181 175 m 392 64 q 547 110 490 64 q 604 235 604 156 l 604 481 q 564 576 604 539 l 258 97 q 392 64 313 64 z "},"Ș":{"ha":906,"x_min":67,"x_max":828,"o":"m 451 -19 q 213 39 303 -19 q 75 219 124 97 q 92 257 67 246 l 135 272 q 156 274 150 278 q 169 256 163 271 q 451 75 249 75 q 728 269 728 75 q 712 341 728 311 q 674 389 696 371 q 612 419 651 407 q 540 437 572 432 q 457 447 508 442 q 369 460 401 454 q 287 477 336 465 q 208 508 238 489 q 148 554 178 526 q 104 624 118 582 q 90 721 90 667 q 185 928 90 851 q 449 1006 279 1006 q 674 954 589 1006 q 814 792 760 903 q 799 756 826 768 l 756 736 q 735 733 742 731 q 719 750 728 736 q 615 871 678 832 q 449 910 551 910 q 259 863 325 910 q 193 726 193 815 q 210 654 193 685 q 251 606 226 624 q 317 574 275 588 q 393 556 360 561 q 481 544 426 550 q 582 530 542 538 q 674 503 622 522 q 755 458 725 485 q 806 383 785 431 q 828 272 828 336 q 731 57 828 133 q 451 -19 635 -19 m 401 -353 q 385 -335 381 -353 l 431 -133 q 439 -112 432 -118 q 461 -107 446 -107 l 503 -107 q 526 -135 535 -107 l 461 -329 q 431 -353 454 -353 l 401 -353 z "},"ș":{"ha":725,"x_min":60,"x_max":654,"o":"m 369 -19 q 71 153 138 -19 q 86 186 60 178 l 122 199 q 156 183 144 206 q 368 63 200 63 q 564 189 564 63 q 516 281 564 257 q 363 317 468 306 q 278 327 310 322 q 205 346 247 332 q 139 381 163 360 q 99 438 115 401 q 82 526 82 475 q 152 679 82 624 q 356 735 222 735 q 639 583 572 735 q 626 547 653 558 l 592 532 q 557 544 569 524 q 488 624 533 597 q 357 651 442 651 q 175 529 175 651 q 186 474 175 497 q 213 439 197 451 q 259 418 228 426 q 315 406 290 410 q 385 399 339 403 q 492 383 449 393 q 575 351 535 372 q 635 290 615 329 q 654 193 654 251 q 583 37 654 93 q 369 -19 511 -19 m 288 -346 q 271 -328 267 -346 l 317 -126 q 325 -106 318 -111 q 347 -100 332 -100 l 389 -100 q 413 -128 421 -100 l 347 -322 q 317 -346 340 -346 l 288 -346 z "},"ț":{"ha":533,"x_min":25,"x_max":500,"o":"m 474 0 q 245 59 308 0 q 182 285 182 118 l 182 628 l 50 628 q 25 653 25 628 l 25 689 q 50 714 25 714 l 182 714 l 182 856 q 207 881 182 881 l 250 881 q 269 875 264 881 q 275 856 275 869 l 275 714 l 475 714 q 494 708 489 714 q 500 689 500 703 l 500 653 q 475 628 500 628 l 275 628 l 275 288 q 316 128 275 167 q 474 89 357 89 q 499 64 499 89 l 499 26 q 474 0 499 0 m 282 -346 q 265 -328 261 -346 l 311 -126 q 319 -106 313 -111 q 342 -100 326 -100 l 383 -100 q 407 -128 415 -100 l 342 -322 q 311 -346 335 -346 l 282 -346 z "},"ȷ":{"ha":315,"x_min":-110,"x_max":204,"o":"m -85 -321 q -110 -294 -110 -321 l -110 -258 q -85 -232 -110 -232 q 67 -177 24 -232 q 111 -11 111 -122 l 111 689 q 117 708 111 703 q 136 714 122 714 l 178 714 q 204 689 204 714 l 204 -12 q 136 -242 204 -164 q -85 -321 68 -321 z "},"ˆ":{"ha":561,"x_min":36,"x_max":521,"o":"m 67 814 q 54 835 36 814 l 225 983 q 248 1002 240 999 q 274 1006 256 1006 l 285 1006 q 309 1002 301 1006 q 332 983 317 999 l 503 835 q 490 814 521 814 l 451 814 q 411 828 424 814 l 278 943 l 142 828 q 103 814 128 814 l 67 814 z "},"ˇ":{"ha":497,"x_min":14,"x_max":490,"o":"m 243 813 q 217 816 225 813 q 194 835 210 819 l 24 985 q 17 999 14 992 q 35 1006 19 1006 l 72 1006 q 111 990 97 1006 l 247 876 l 379 990 q 421 1006 394 1006 l 458 1006 q 471 983 490 1006 l 301 835 q 278 816 286 819 q 254 813 271 813 l 243 813 z "},"˘":{"ha":435,"x_min":-6,"x_max":426,"o":"m 210 818 q 0 969 43 818 q 11 993 -6 986 l 44 1006 q 69 996 64 1011 q 210 888 100 888 q 350 996 319 888 q 372 1006 357 1011 l 410 993 q 421 969 426 986 q 210 818 375 818 z "},"˙":{"ha":336,"x_min":118,"x_max":218,"o":"m 164 854 q 128 865 138 854 q 118 901 118 875 l 118 910 q 128 947 118 936 q 164 957 138 957 l 171 957 q 208 947 197 957 q 218 910 218 936 l 218 901 q 208 865 218 875 q 171 854 197 854 l 164 854 z "},"˚":{"ha":369,"x_min":46,"x_max":325,"o":"m 188 763 q 84 799 122 763 q 46 899 46 836 q 85 997 46 960 q 188 1035 124 1035 q 288 997 250 1035 q 325 899 325 960 q 288 799 325 836 q 188 763 250 763 m 188 811 q 251 835 228 811 q 275 899 275 858 q 251 963 275 939 q 188 986 228 986 q 120 963 144 986 q 96 899 96 939 q 120 835 96 858 q 188 811 144 811 z "},"˛":{"ha":386,"x_min":61,"x_max":317,"o":"m 185 -343 q 78 -271 97 -343 q 98 -140 61 -214 q 215 0 135 -67 l 282 0 q 178 -130 211 -65 q 160 -233 146 -194 q 214 -271 172 -271 q 285 -240 254 -271 q 301 -244 296 -233 l 313 -274 q 310 -293 317 -286 q 185 -343 257 -343 z "},"˜":{"ha":460,"x_min":15,"x_max":443,"o":"m 32 833 q 15 850 15 833 q 124 988 15 988 q 201 965 165 988 q 268 918 238 942 q 329 894 299 894 q 385 971 385 894 q 400 988 385 988 l 428 988 q 443 971 443 988 q 336 833 443 833 q 226 880 286 833 q 132 926 167 926 q 75 850 75 926 q 60 833 75 833 l 32 833 z "},"˝":{"ha":585,"x_min":85,"x_max":569,"o":"m 121 811 l 104 817 q 96 842 85 824 l 222 990 q 264 1007 239 1014 l 294 997 q 303 969 322 989 l 151 822 q 121 811 135 806 m 354 810 l 339 815 q 331 840 317 821 l 464 989 q 507 1006 483 1013 l 539 996 q 547 968 569 988 l 386 821 q 354 810 369 804 z "},"̀":{"ha":0,"x_min":-358,"x_max":-31,"o":"m -92 838 l -337 967 q -340 996 -358 975 l -321 1021 q -274 1024 -306 1039 l -49 883 q -46 856 -31 875 l -60 840 q -92 838 -68 829 z "},"́":{"ha":0,"x_min":-353,"x_max":-25,"o":"m -292 838 q -325 840 -315 829 l -337 856 q -335 883 -353 875 l -111 1024 q -64 1021 -79 1039 l -43 996 q -47 967 -25 976 l -292 838 z "},"̂":{"ha":0,"x_min":-525,"x_max":-40,"o":"m -494 829 q -507 850 -525 829 l -336 999 q -313 1019 -321 1015 q -287 1022 -306 1022 l -276 1022 q -253 1019 -261 1022 q -229 999 -246 1015 l -58 850 q -71 829 -40 829 l -110 829 q -150 843 -137 829 l -283 958 l -419 843 q -458 829 -433 829 l -494 829 z "},"̃":{"ha":0,"x_min":-444,"x_max":-17,"o":"m -428 849 q -444 865 -444 849 q -336 1004 -444 1004 q -258 981 -294 1004 q -192 933 -222 957 q -131 910 -161 910 q -75 988 -75 910 q -60 1004 -75 1004 l -32 1004 q -17 988 -17 1004 q -124 849 -17 849 q -233 895 -174 849 q -328 942 -293 942 q -385 865 -385 942 q -400 849 -385 849 l -428 849 z "},"̄":{"ha":0,"x_min":-451,"x_max":-76,"o":"m -428 886 q -447 891 -442 886 q -451 910 -451 896 l -451 931 q -446 949 -451 944 q -428 954 -440 954 l -100 954 q -81 949 -86 954 q -76 931 -76 944 l -76 910 q -81 891 -76 896 q -100 886 -86 886 l -428 886 z "},"̆":{"ha":0,"x_min":-440,"x_max":-8,"o":"m -14 985 q -225 833 -67 833 q -435 985 -383 833 q -424 1008 -440 1001 l -390 1021 q -365 1011 -371 1026 q -225 903 -328 903 q -85 1011 -122 903 q -62 1021 -78 1026 l -25 1008 q -14 985 -8 1001 z "},"̇":{"ha":0,"x_min":-224,"x_max":-111,"o":"m -171 879 q -213 890 -203 879 q -224 931 -224 900 l -224 939 q -213 980 -224 969 q -171 990 -203 990 l -164 990 q -122 980 -132 990 q -111 939 -111 969 l -111 931 q -122 890 -111 900 q -164 879 -133 879 l -171 879 z "},"̈":{"ha":0,"x_min":-514,"x_max":-142,"o":"m -467 874 q -504 884 -494 874 q -514 921 -514 894 l -514 931 q -504 968 -514 958 q -467 978 -494 978 l -458 978 q -421 968 -431 978 q -411 931 -411 958 l -411 921 q -422 884 -411 894 q -458 874 -432 874 l -467 874 m -197 874 q -235 884 -225 874 q -244 921 -244 894 l -244 931 q -235 968 -244 958 q -197 978 -225 978 l -189 978 q -151 968 -161 978 q -142 931 -142 958 l -142 921 q -152 884 -142 894 q -189 874 -162 874 l -197 874 z "},"̊":{"ha":0,"x_min":-324,"x_max":-44,"o":"m -182 793 q -285 831 -246 793 q -324 929 -324 868 q -285 1029 -324 992 q -182 1067 -246 1067 q -82 1029 -119 1067 q -44 929 -44 992 q -82 831 -44 868 q -182 793 -119 793 m -182 842 q -118 865 -142 842 q -94 929 -94 889 q -118 993 -94 969 q -182 1017 -142 1017 q -249 993 -225 1017 q -274 929 -274 969 q -249 865 -274 889 q -182 842 -225 842 z "},"̋":{"ha":0,"x_min":-500,"x_max":-15,"o":"m -464 826 l -481 832 q -489 857 -500 839 l -362 1006 q -321 1022 -346 1029 l -290 1013 q -282 985 -262 1004 l -433 838 q -464 826 -451 822 m -231 825 l -246 831 q -254 856 -268 838 l -121 1004 q -78 1021 -101 1028 l -46 1011 q -37 983 -15 1003 l -199 836 q -231 825 -218 821 z "},"̌":{"ha":0,"x_min":-494,"x_max":-7,"o":"m -254 828 q -280 831 -272 828 q -303 850 -287 835 l -474 1000 q -462 1021 -494 1021 l -425 1021 q -386 1006 -400 1021 l -250 892 l -118 1006 q -76 1021 -103 1021 l -39 1021 q -26 999 -7 1021 l -196 850 q -243 828 -219 828 l -254 828 z "},"̧":{"ha":0,"x_min":-331,"x_max":-35,"o":"m -203 -342 q -314 -315 -269 -342 q -331 -287 -331 -306 l -331 -261 q -317 -251 -331 -243 q -214 -283 -271 -283 q -143 -262 -168 -283 q -118 -206 -118 -242 q -201 -147 -118 -147 q -247 -153 -229 -147 q -264 -149 -260 -154 q -262 -129 -268 -143 l -212 0 l -154 0 l -192 -103 q -156 -99 -175 -99 q -67 -129 -100 -99 q -37 -210 -35 -160 q -87 -309 -42 -276 q -203 -342 -132 -342 z "},"̨":{"ha":0,"x_min":-325,"x_max":-69,"o":"m -201 -343 q -308 -271 -289 -343 q -288 -140 -325 -214 q -171 0 -251 -67 l -104 0 q -208 -130 -175 -65 q -226 -233 -240 -194 q -172 -271 -214 -271 q -101 -240 -132 -271 q -85 -244 -90 -233 l -74 -274 q -76 -293 -69 -286 q -201 -343 -129 -343 z "},"π":{"ha":893,"x_min":21,"x_max":847,"o":"m 729 0 q 694 13 706 -11 q 650 207 650 92 l 650 629 l 306 629 l 306 25 q 281 0 306 0 l 238 0 q 217 6 222 0 q 213 25 213 11 l 213 629 q 79 590 146 628 q 46 600 54 581 l 31 635 q 43 668 21 657 q 247 714 128 714 l 822 714 q 847 689 847 714 l 847 654 q 822 629 847 629 l 743 629 l 743 203 q 778 53 743 114 q 765 15 790 26 l 729 0 z "},"Ё":{"ha":832,"x_min":126,"x_max":761,"o":"m 296 1100 q 260 1110 269 1100 q 251 1144 251 1119 l 251 1156 q 260 1190 251 1181 q 296 1200 269 1200 l 304 1200 q 340 1190 331 1200 q 350 1156 350 1181 l 350 1144 q 340 1110 350 1119 q 304 1100 331 1100 l 296 1100 m 565 1100 q 529 1110 539 1100 q 519 1144 519 1119 l 519 1156 q 529 1190 519 1181 q 565 1200 539 1200 l 574 1200 q 610 1190 600 1200 q 619 1156 619 1181 l 619 1144 q 610 1110 619 1119 q 574 1100 600 1100 l 565 1100 m 153 0 q 126 28 126 0 l 126 958 q 153 986 126 986 l 717 986 q 743 958 743 986 l 743 919 q 738 899 743 904 q 717 893 732 893 l 226 893 l 226 547 l 654 547 q 681 519 681 547 l 681 481 q 654 453 681 453 l 226 453 l 226 93 l 733 93 q 755 88 749 93 q 761 67 761 82 l 761 28 q 755 6 761 13 q 733 0 749 0 l 153 0 z "},"А":{"ha":926,"x_min":24,"x_max":901,"o":"m 53 0 q 35 26 24 0 l 407 967 q 442 990 415 990 l 483 990 q 518 968 511 990 l 890 26 q 872 0 901 0 l 832 0 q 782 24 789 0 l 678 289 l 243 289 l 139 24 q 124 5 133 10 q 89 0 114 0 l 53 0 m 272 372 l 650 372 l 482 799 q 471 842 475 819 q 464 881 467 865 l 463 896 l 457 896 l 456 881 q 450 843 454 865 q 439 800 446 821 l 272 372 z "},"Б":{"ha":908,"x_min":126,"x_max":844,"o":"m 153 0 q 132 6 138 0 q 126 26 126 11 l 126 958 q 153 986 126 986 l 746 986 q 767 980 761 986 q 774 958 774 974 l 774 919 q 767 899 774 904 q 746 893 761 893 l 226 893 l 226 569 l 554 569 q 767 494 689 569 q 844 285 844 419 q 767 76 844 151 q 554 0 689 0 l 153 0 m 226 93 l 544 93 q 688 144 636 93 q 739 285 739 194 q 688 426 739 375 q 544 476 636 476 l 226 476 l 226 93 z "},"В":{"ha":929,"x_min":126,"x_max":849,"o":"m 153 0 q 126 28 126 0 l 126 958 q 153 986 126 986 l 546 986 q 744 921 674 986 q 814 733 814 856 q 683 511 814 568 l 683 508 q 849 265 849 465 q 771 69 849 139 q 560 0 693 0 l 153 0 m 226 547 l 533 547 q 711 721 711 547 q 533 893 711 893 l 226 893 l 226 547 m 226 93 l 557 93 q 695 140 647 93 q 743 275 743 186 q 695 410 743 364 q 557 457 647 457 l 226 457 l 226 93 z "},"Г":{"ha":747,"x_min":126,"x_max":707,"o":"m 153 0 q 126 28 126 0 l 126 958 q 153 986 126 986 l 679 986 q 701 980 694 986 q 707 958 707 974 l 707 919 q 701 899 707 904 q 679 893 694 893 l 226 893 l 226 28 q 200 0 226 0 l 153 0 z "},"Д":{"ha":1025,"x_min":39,"x_max":979,"o":"m 65 -212 q 39 -185 39 -212 l 39 67 q 44 88 39 82 q 65 93 50 93 l 115 93 q 165 142 144 114 q 210 230 186 169 q 247 403 235 290 q 260 676 260 515 l 260 958 q 266 980 260 974 q 288 986 272 986 l 836 986 q 858 980 851 986 q 864 958 864 974 l 864 93 l 951 93 q 973 88 967 93 q 979 67 979 82 l 979 -185 q 973 -206 979 -200 q 951 -212 967 -212 l 907 -212 q 881 -185 881 -212 l 881 0 l 138 0 l 138 -185 q 131 -206 138 -200 q 110 -212 125 -212 l 65 -212 m 236 93 l 763 93 l 763 893 l 357 893 l 357 676 q 324 283 357 410 q 236 93 290 156 z "},"Е":{"ha":832,"x_min":126,"x_max":761,"o":"m 153 0 q 126 28 126 0 l 126 958 q 153 986 126 986 l 717 986 q 743 958 743 986 l 743 919 q 738 899 743 904 q 717 893 732 893 l 226 893 l 226 547 l 654 547 q 681 519 681 547 l 681 481 q 654 453 681 453 l 226 453 l 226 93 l 733 93 q 755 88 749 93 q 761 67 761 82 l 761 28 q 755 6 761 13 q 733 0 749 0 l 153 0 z "},"Ж":{"ha":1310,"x_min":29,"x_max":1281,"o":"m 61 0 q 47 28 29 0 l 222 371 q 361 514 278 481 l 63 960 q 76 986 44 986 l 126 986 q 161 982 151 986 q 181 963 171 978 l 458 543 q 514 546 476 546 l 604 546 l 604 958 q 610 980 604 974 q 632 986 617 986 l 678 986 q 699 980 693 986 q 706 958 706 974 l 706 546 l 794 546 q 851 543 835 546 l 1129 963 q 1149 982 1139 978 q 1183 986 1158 986 l 1233 986 q 1252 978 1249 986 q 1247 960 1256 969 l 949 514 q 1088 371 1032 481 l 1263 28 q 1249 0 1281 0 l 1203 0 q 1167 5 1178 0 q 1149 24 1156 10 l 994 333 q 918 427 961 400 q 794 454 875 454 l 706 454 l 706 28 q 699 6 706 13 q 678 0 693 0 l 632 0 q 610 6 617 0 q 604 28 604 13 l 604 454 l 514 454 q 391 427 433 454 q 315 333 349 400 l 161 24 q 107 0 150 0 l 61 0 z "},"З":{"ha":897,"x_min":67,"x_max":817,"o":"m 464 -19 q 203 42 297 -19 q 72 222 110 103 q 70 245 67 238 q 89 258 74 253 l 132 274 q 167 256 157 283 q 265 118 197 163 q 464 74 332 74 q 650 126 589 74 q 711 274 711 178 q 664 408 711 358 q 529 458 617 458 l 290 458 q 269 464 275 458 q 264 485 264 469 l 264 522 q 269 543 264 538 q 290 549 275 549 l 519 549 q 643 597 601 549 q 685 721 685 644 q 458 913 685 913 q 269 870 333 913 q 175 735 206 828 q 140 718 167 711 l 97 733 q 81 768 71 743 q 209 947 118 888 q 464 1006 300 1006 q 704 933 622 1006 q 786 729 786 861 q 660 511 786 564 q 817 269 817 457 q 728 56 817 132 q 464 -19 640 -19 z "},"И":{"ha":999,"x_min":126,"x_max":874,"o":"m 153 0 q 126 28 126 0 l 126 958 q 153 986 126 986 l 200 986 q 226 958 226 986 l 226 426 q 210 129 226 272 l 213 129 q 371 390 276 249 l 771 972 q 800 986 781 986 l 846 986 q 867 980 861 986 q 874 958 874 974 l 874 28 q 867 6 874 13 q 846 0 861 0 l 800 0 q 778 6 785 0 q 772 28 772 13 l 772 574 q 790 857 772 708 l 788 857 q 639 613 733 753 l 229 15 q 200 0 219 0 l 153 0 z "},"Й":{"ha":964,"x_min":126,"x_max":874,"o":"m 732 1215 q 506 1065 683 1065 q 279 1215 328 1065 q 292 1239 274 1233 l 328 1251 q 356 1242 349 1257 q 506 1135 386 1135 q 657 1242 622 1135 q 681 1253 663 1257 l 721 1239 q 732 1215 739 1231 m 153 0 q 126 28 126 0 l 126 958 q 153 986 126 986 l 200 986 q 226 958 226 986 l 226 426 q 210 129 226 272 l 213 129 q 371 390 276 249 l 771 972 q 800 986 781 986 l 846 986 q 867 980 861 986 q 874 958 874 974 l 874 28 q 867 6 874 13 q 846 0 861 0 l 800 0 q 778 6 785 0 q 772 28 772 13 l 772 574 q 790 857 772 708 l 788 857 q 639 613 733 753 l 229 15 q 200 0 219 0 l 153 0 z "},"К":{"ha":882,"x_min":126,"x_max":851,"o":"m 153 0 q 126 28 126 0 l 126 958 q 153 986 126 986 l 200 986 q 226 958 226 986 l 226 546 l 360 546 l 390 546 l 701 963 q 757 986 719 986 l 807 986 q 825 978 821 986 q 821 960 829 969 l 492 526 q 660 371 596 497 l 836 28 q 821 0 851 0 l 776 0 q 722 24 733 0 l 567 333 q 491 427 533 400 q 368 454 449 454 l 226 454 l 226 28 q 200 0 226 0 l 153 0 z "},"Л":{"ha":947,"x_min":14,"x_max":821,"o":"m 83 -15 q 47 -3 58 -26 l 26 38 q 39 74 14 61 q 97 106 76 92 q 145 158 117 119 q 188 253 174 197 q 212 408 201 308 q 222 644 222 507 l 222 958 q 249 986 222 986 l 793 986 q 815 980 808 986 q 821 958 821 974 l 821 28 q 815 6 821 13 q 793 0 808 0 l 747 0 q 726 6 732 0 q 721 28 721 13 l 721 893 l 321 893 l 321 646 q 313 416 321 515 q 287 249 306 317 q 251 138 268 182 q 201 64 233 94 q 146 19 168 33 q 83 -15 124 4 z "},"М":{"ha":1147,"x_min":126,"x_max":1021,"o":"m 153 0 q 126 28 126 0 l 126 958 q 153 986 126 986 l 189 986 q 229 964 217 986 l 574 354 l 917 963 q 954 986 928 986 l 994 986 q 1021 958 1021 986 l 1021 28 q 994 0 1021 0 l 953 0 q 931 6 938 0 q 925 28 925 13 l 926 594 q 943 840 926 707 l 938 840 q 831 625 896 740 l 619 251 q 588 231 608 231 l 560 231 q 526 251 538 231 l 313 629 q 211 842 254 728 l 206 842 q 221 594 221 718 l 221 28 q 215 6 221 13 q 193 0 208 0 l 153 0 z "},"Н":{"ha":982,"x_min":126,"x_max":856,"o":"m 153 0 q 126 28 126 0 l 126 958 q 153 986 126 986 l 200 986 q 226 958 226 986 l 226 547 l 756 547 l 756 958 q 762 980 756 974 q 783 986 768 986 l 829 986 q 856 958 856 986 l 856 28 q 829 0 856 0 l 783 0 q 762 6 768 0 q 756 28 756 13 l 756 453 l 226 453 l 226 28 q 200 0 226 0 l 153 0 z "},"О":{"ha":957,"x_min":97,"x_max":860,"o":"m 479 -19 q 196 73 294 -19 q 97 329 97 165 l 97 657 q 196 913 97 821 q 479 1006 294 1006 q 761 913 663 1006 q 860 657 860 821 l 860 329 q 761 73 860 165 q 479 -19 663 -19 m 270 140 q 307 107 270 140 q 479 74 343 74 q 688 140 615 74 q 760 329 760 207 l 760 657 q 688 846 760 779 q 479 913 615 913 q 270 846 343 913 q 197 657 197 779 l 197 329 q 270 140 197 207 z "},"П":{"ha":974,"x_min":126,"x_max":847,"o":"m 153 0 q 126 28 126 0 l 126 958 q 153 986 126 986 l 819 986 q 841 980 835 986 q 847 958 847 974 l 847 28 q 841 6 847 13 q 819 0 835 0 l 774 0 q 747 28 747 0 l 747 893 l 226 893 l 226 28 q 200 0 226 0 l 153 0 z "},"Р":{"ha":900,"x_min":126,"x_max":839,"o":"m 153 0 q 126 28 126 0 l 126 958 q 153 986 126 986 l 525 986 q 755 904 671 986 q 839 678 839 822 q 755 452 839 533 q 525 371 671 371 l 226 371 l 226 28 q 200 0 226 0 l 153 0 m 226 464 l 517 464 q 676 521 618 464 q 735 678 735 578 q 676 836 735 779 q 517 893 618 893 l 226 893 l 226 464 z "},"С":{"ha":919,"x_min":97,"x_max":858,"o":"m 478 -19 q 196 73 294 -19 q 97 329 97 165 l 97 657 q 195 913 97 821 q 478 1006 293 1006 q 722 947 633 1006 q 847 768 810 888 q 849 745 853 753 q 831 732 846 738 l 788 718 q 766 717 774 714 q 753 735 758 719 q 658 869 722 826 q 478 913 594 913 q 270 846 342 913 q 199 658 199 779 l 199 328 q 271 141 199 208 q 478 74 343 74 q 661 118 597 74 q 754 257 725 163 q 790 274 765 282 l 832 258 q 850 224 858 249 q 724 42 813 103 q 478 -19 635 -19 z "},"Т":{"ha":804,"x_min":36,"x_max":768,"o":"m 379 0 q 358 6 364 0 q 353 28 353 13 l 353 893 l 64 893 q 42 899 49 893 q 36 919 36 904 l 36 958 q 42 980 36 974 q 64 986 49 986 l 740 986 q 762 980 756 986 q 768 958 768 974 l 768 919 q 762 899 768 904 q 740 893 756 893 l 453 893 l 453 28 q 447 6 453 13 q 425 0 440 0 l 379 0 z "},"У":{"ha":858,"x_min":15,"x_max":839,"o":"m 268 0 q 254 28 240 0 l 385 282 l 28 958 q 43 986 15 986 l 90 986 q 125 982 115 986 q 143 963 135 978 l 438 393 l 717 963 q 733 983 725 979 q 765 986 742 986 l 811 986 q 826 958 839 986 l 367 24 q 322 0 357 0 l 268 0 z "},"Ф":{"ha":1186,"x_min":79,"x_max":1106,"o":"m 569 -29 q 543 -1 543 -29 l 543 90 l 454 90 q 176 183 272 90 q 79 443 79 276 l 79 550 q 176 810 79 717 q 454 903 272 903 l 543 903 l 543 993 q 569 1021 543 1021 l 615 1021 q 637 1015 631 1021 q 643 993 643 1008 l 643 903 l 731 903 q 1009 810 913 903 q 1106 550 1106 717 l 1106 443 q 1009 183 1106 276 q 731 90 913 90 l 643 90 l 643 -1 q 637 -23 643 -17 q 615 -29 631 -29 l 569 -29 m 454 181 l 543 181 l 543 813 l 454 813 q 251 745 321 813 q 181 554 181 678 l 181 439 q 251 248 181 315 q 454 181 321 181 m 643 181 l 731 181 q 934 248 864 181 q 1004 439 1004 315 l 1004 554 q 934 745 1004 678 q 731 813 864 813 l 643 813 l 643 181 z "},"Х":{"ha":893,"x_min":35,"x_max":860,"o":"m 56 0 q 38 9 40 0 q 43 29 35 18 l 382 501 l 53 960 q 49 978 46 969 q 67 986 53 986 l 121 986 q 153 982 144 986 q 174 963 163 978 l 447 581 l 721 963 q 740 982 731 978 q 771 986 749 986 l 826 986 q 844 978 840 986 q 840 960 847 969 l 510 501 l 851 29 q 857 9 860 18 q 838 0 854 0 l 782 0 q 748 3 757 0 q 729 24 739 7 l 443 424 l 161 24 q 141 4 150 8 q 108 0 132 0 l 56 0 z "},"Ц":{"ha":1003,"x_min":126,"x_max":956,"o":"m 886 -212 q 865 -206 871 -212 q 858 -185 858 -200 l 858 0 l 153 0 q 126 28 126 0 l 126 958 q 153 986 126 986 l 200 986 q 226 958 226 986 l 226 93 l 742 93 l 742 958 q 748 980 742 974 q 769 986 754 986 l 815 986 q 842 958 842 986 l 842 93 l 928 93 q 949 88 943 93 q 956 67 956 82 l 956 -185 q 949 -206 956 -200 q 928 -212 943 -212 l 886 -212 z "},"Ч":{"ha":910,"x_min":74,"x_max":783,"o":"m 710 0 q 683 28 683 0 l 683 399 q 425 371 565 371 q 156 456 239 371 q 74 711 74 542 l 74 958 q 80 980 74 974 q 101 986 86 986 l 147 986 q 174 958 174 986 l 174 711 q 233 526 174 588 q 429 465 292 465 q 683 494 590 465 l 683 958 q 710 986 683 986 l 756 986 q 777 980 771 986 q 783 958 783 974 l 783 28 q 777 6 783 13 q 756 0 771 0 l 710 0 z "},"Ш":{"ha":1301,"x_min":126,"x_max":1176,"o":"m 153 0 q 126 28 126 0 l 126 958 q 153 986 126 986 l 200 986 q 226 958 226 986 l 226 93 l 601 93 l 601 958 q 607 980 601 974 q 628 986 613 986 l 674 986 q 695 980 689 986 q 701 958 701 974 l 701 93 l 1075 93 l 1075 958 q 1081 980 1075 974 q 1103 986 1088 986 l 1149 986 q 1170 980 1164 986 q 1176 958 1176 974 l 1176 28 q 1170 6 1176 13 q 1149 0 1164 0 l 153 0 z "},"Щ":{"ha":1338,"x_min":126,"x_max":1290,"o":"m 1221 -212 q 1200 -206 1206 -212 q 1194 -185 1194 -200 l 1194 0 l 153 0 q 126 28 126 0 l 126 958 q 153 986 126 986 l 200 986 q 226 958 226 986 l 226 93 l 601 93 l 601 958 q 607 980 601 974 q 628 986 613 986 l 674 986 q 695 980 689 986 q 701 958 701 974 l 701 93 l 1075 93 l 1075 958 q 1081 980 1075 974 q 1103 986 1088 986 l 1149 986 q 1170 980 1164 986 q 1176 958 1176 974 l 1176 93 l 1264 93 q 1285 88 1279 93 q 1290 67 1290 82 l 1290 -185 q 1264 -212 1290 -212 l 1221 -212 z "},"Ъ":{"ha":1049,"x_min":36,"x_max":988,"o":"m 301 0 q 280 6 286 0 q 274 28 274 13 l 274 893 l 64 893 q 42 899 49 893 q 36 919 36 904 l 36 958 q 42 980 36 974 q 64 986 49 986 l 347 986 q 369 980 363 986 q 375 958 375 974 l 375 615 l 674 615 q 903 534 819 615 q 988 308 988 453 q 903 82 988 164 q 674 0 819 0 l 301 0 m 375 93 l 664 93 q 825 150 767 93 q 883 308 883 207 q 825 465 883 408 q 664 522 767 522 l 375 522 l 375 93 z "},"Ы":{"ha":1233,"x_min":126,"x_max":1108,"o":"m 153 0 q 126 28 126 0 l 126 958 q 153 986 126 986 l 200 986 q 226 958 226 986 l 226 615 l 525 615 q 755 534 671 615 q 839 308 839 453 q 755 82 839 164 q 525 0 671 0 l 153 0 m 1035 0 q 1013 6 1019 0 q 1007 28 1007 13 l 1007 958 q 1013 980 1007 974 q 1035 986 1019 986 l 1081 986 q 1102 980 1096 986 q 1108 958 1108 974 l 1108 28 q 1102 6 1108 13 q 1081 0 1096 0 l 1035 0 m 226 93 l 517 93 q 676 150 618 93 q 735 308 735 207 q 676 465 735 408 q 517 522 618 522 l 226 522 l 226 93 z "},"Ь":{"ha":900,"x_min":126,"x_max":839,"o":"m 153 0 q 126 28 126 0 l 126 958 q 153 986 126 986 l 200 986 q 226 958 226 986 l 226 615 l 525 615 q 755 534 671 615 q 839 308 839 453 q 755 82 839 164 q 525 0 671 0 l 153 0 m 226 93 l 517 93 q 676 150 618 93 q 735 308 735 207 q 676 465 735 408 q 517 522 618 522 l 226 522 l 226 93 z "},"Э":{"ha":925,"x_min":67,"x_max":829,"o":"m 447 -19 q 201 42 290 -19 q 75 222 113 103 q 93 258 67 249 l 135 274 q 171 256 161 283 q 264 118 200 163 q 447 74 328 74 q 656 140 583 74 q 728 328 728 207 l 728 453 l 311 453 q 290 458 296 453 q 283 479 283 464 l 283 518 q 290 540 283 533 q 311 546 296 546 l 728 546 l 728 660 q 656 847 728 781 q 447 913 585 913 q 266 870 329 913 q 174 735 203 828 q 138 718 164 711 l 94 733 q 78 768 69 743 q 203 947 115 888 q 447 1006 292 1006 q 731 914 632 1006 q 829 658 829 822 l 829 329 q 730 73 829 165 q 447 -19 631 -19 z "},"Ю":{"ha":1315,"x_min":126,"x_max":1218,"o":"m 844 -19 q 565 72 663 -19 q 468 328 468 164 l 468 453 l 226 453 l 226 28 q 200 0 226 0 l 153 0 q 126 28 126 0 l 126 958 q 153 986 126 986 l 200 986 q 226 958 226 986 l 226 547 l 468 547 l 468 658 q 565 914 468 822 q 844 1006 663 1006 q 1122 914 1025 1006 q 1218 658 1218 822 l 1218 328 q 1122 72 1218 164 q 844 -19 1025 -19 m 844 74 q 1047 140 976 74 q 1118 328 1118 206 l 1118 658 q 1047 847 1118 781 q 844 913 976 913 q 639 847 710 913 q 568 658 568 781 l 568 328 q 639 140 568 206 q 844 74 710 74 z "},"Я":{"ha":928,"x_min":60,"x_max":801,"o":"m 88 0 q 72 28 60 0 l 218 331 q 303 428 253 401 q 145 515 201 446 q 89 699 89 585 q 166 910 89 835 q 381 986 243 986 l 775 986 q 796 980 790 986 q 801 958 801 974 l 801 28 q 796 6 801 13 q 775 0 790 0 l 729 0 q 708 6 714 0 q 701 28 701 13 l 701 414 l 510 414 q 386 388 429 414 q 311 293 343 361 l 188 24 q 169 5 181 10 q 132 0 158 0 l 88 0 m 390 507 l 701 507 l 701 893 l 390 893 q 244 842 296 893 q 193 699 193 792 q 245 557 193 607 q 390 507 297 507 z "},"а":{"ha":747,"x_min":69,"x_max":650,"o":"m 369 -19 q 133 33 197 -19 q 69 196 69 85 q 140 362 69 314 q 375 410 210 410 q 557 396 474 410 l 557 461 q 516 601 557 551 q 369 651 475 651 q 174 551 232 651 q 140 539 161 531 l 107 553 q 93 589 81 563 q 372 735 171 735 q 588 660 526 735 q 650 460 650 586 l 650 96 q 640 44 650 60 q 600 17 629 29 q 369 -19 517 -19 m 363 58 q 531 81 474 58 q 552 94 547 88 q 557 121 557 101 l 557 322 q 365 335 432 335 q 209 303 254 335 q 164 197 164 271 q 206 92 164 126 q 363 58 247 58 z "},"б":{"ha":803,"x_min":104,"x_max":719,"o":"m 411 -19 q 183 52 263 -19 q 104 251 104 124 l 104 596 q 187 920 104 824 q 481 1017 269 1017 l 529 1017 q 638 1035 604 1017 q 674 1019 663 1047 l 685 986 q 686 965 689 971 q 669 951 683 960 q 532 929 626 929 l 482 929 q 252 862 314 929 q 190 619 190 794 l 190 589 q 429 700 264 700 q 644 628 568 700 q 719 429 719 556 l 719 251 q 641 52 719 124 q 411 -19 563 -19 m 252 113 q 280 89 252 113 q 411 64 307 64 q 570 113 515 64 q 625 251 625 163 l 625 429 q 571 568 625 519 q 411 617 517 617 q 261 572 317 617 q 197 478 206 526 l 197 251 q 252 113 197 163 z "},"в":{"ha":775,"x_min":110,"x_max":700,"o":"m 136 0 q 110 25 110 0 l 110 689 q 136 714 110 714 l 476 714 q 622 665 569 714 q 674 528 674 615 q 590 374 674 417 q 700 197 700 326 q 645 53 700 106 q 494 0 590 0 l 136 0 m 203 407 l 467 407 q 550 437 519 407 q 581 521 581 467 q 461 635 581 635 l 203 635 l 203 407 m 203 79 l 478 79 q 570 113 538 79 q 603 206 603 146 q 569 297 603 264 q 475 329 536 329 l 203 329 l 203 79 z "},"г":{"ha":626,"x_min":110,"x_max":588,"o":"m 135 0 q 110 25 110 0 l 110 689 q 135 714 110 714 l 563 714 q 583 708 578 714 q 588 689 588 703 l 588 653 q 563 628 588 628 l 203 628 l 203 25 q 197 6 203 11 q 178 0 192 0 l 135 0 z "},"д":{"ha":861,"x_min":40,"x_max":817,"o":"m 65 -193 q 45 -188 50 -193 q 40 -168 40 -183 l 40 61 q 45 81 40 75 q 65 86 50 86 l 107 86 q 180 203 154 124 q 206 474 206 283 l 206 689 q 211 708 206 703 q 231 714 217 714 l 690 714 q 709 708 704 714 q 714 689 714 703 l 714 86 l 792 86 q 817 61 817 86 l 817 -168 q 792 -193 817 -193 l 751 -193 q 726 -168 726 -193 l 726 0 l 131 0 l 131 -168 q 106 -193 131 -193 l 65 -193 m 217 86 l 621 86 l 621 628 l 296 628 l 296 468 q 217 86 296 185 z "}}}
